<?xml version="1.0" encoding="iso-8859-1"?>
<!-- Generator: Adobe Illustrator 19.0.0, SVG Export Plug-In . SVG Version: 6.00 Build 0)  -->
<svg version="1.1" id="Capa_1" xmlns="http://www.w3.org/2000/svg" xmlns:xlink="http://www.w3.org/1999/xlink" x="0px" y="0px"
	 viewBox="0 0 120 120" style="enable-background:new 0 0 120 120;" xml:space="preserve">
<g id="_x30_503-ice-cream-cone">
	<g>
		<path style="fill-rule:evenodd;clip-rule:evenodd;" d="M93.209,46.508c-0.669-0.775-0.938-1.953-1.686-2.65
			c-0.404-1.042-1.84-1.048-1.686-2.648c0.755-2.296,1.708-4.393,1.927-7.226c-0.149-5.231-0.992-9.766-2.168-13.969
			c-0.641-2.089-1.061-4.398-2.168-6.021c-0.61-2.12-2.137-3.323-3.131-5.058c-5.762-5.717-13.673-9.287-25.529-8.911
			c-0.308,0.014-0.333,0.309-0.722,0.241c-5.726,0.215-10.378,1.504-14.21,3.612c-2.204,0.767-3.737,2.204-5.539,3.372
			c-0.667,0.777-1.651,1.238-2.167,2.168c-0.79,0.734-1.778,1.271-2.168,2.407c-2.994,2.946-4.824,7.057-6.262,11.562
			c-1.315,4.667-1.446,10.961-0.723,16.375c0.443,0.521,0.26,1.668,0.723,2.168c0.149,0.896,0.574,1.515,0.722,2.409
			c-0.097,0.946-1.058,1.028-1.204,1.927c-0.125,0.356-0.356,0.607-0.482,0.963c-0.415,0.146,0.019,1.143-0.481,1.205
			c-0.37,2.453-0.344,5.314,0.481,7.225c0.849,1.479,2.109,2.547,3.612,3.371c0.897,0.308,2.031,0.377,2.891,0.724
			c1.225,0.229,2.514-0.382,3.13,0c0.964,2.167,1.311,4.95,2.168,7.224c0.094,0.63,0.124,1.322,0.482,1.688
			c0.077,0.914,0.329,2.04,0.482,2.649c0.034,0.141,0.239,0.236,0.24,0.241c0.243,0.985,0.152,2.041,0.722,2.89
			c1.046,5.296,2.683,10.002,4.094,14.932c1.243,5.1,2.915,9.771,4.335,14.691c0.391,1.135,0.849,2.203,0.964,3.613
			c0.589,1.018,0.586,2.625,1.204,3.611c0.517,2.695,1.331,5.092,2.65,6.984c0.604,0.359,1.326,0.602,1.686,1.205
			c1.532,0.314,3.069,0.623,5.057,0.482c0.865-0.502,2.018-0.713,3.132-0.964c2.452-4.211,4.132-9.193,6.021-13.97
			c2.219-4.443,3.477-9.848,5.057-14.932c2.519-4.145,2.766-10.561,5.059-14.932c0.588-2.704,1.639-4.944,2.408-7.466
			c1.034-2.338,1.65-5.094,2.648-7.466c2.525,0.197,3.551-1.108,5.54-1.445c1.479-0.85,2.547-2.108,3.372-3.613
			C94.228,52.43,93.957,48.741,93.209,46.508z M44.559,71.798c-0.911-3.585-1.939-7.053-3.13-10.357c2.161,0.89,4,2.101,7.224,1.927
			c0.474,0.409,1.027,0.738,1.205,1.445c0.293,0.508,0.906,0.699,0.963,1.444c-1.405,1.485-2.751,3.028-4.094,4.577
			C45.368,70.517,45.595,71.789,44.559,71.798z M49.618,88.415c-0.193-1.172-0.423-2.308-0.964-3.131
			c-0.072-1.292-0.49-2.239-0.962-3.131c-0.073-1.292-0.492-2.238-0.964-3.131c0.096-1.158-1.052-2.02-0.481-2.891
			c1.166-0.661,1.273,0.896,2.167,1.205c0.576,0.63,0.89,1.52,1.687,1.926c1.232,1.178,1.894,2.924,4.334,2.891
			c0.557,0.073,0.269-0.696,0.724-0.723c-0.195-2.053-1.574-2.922-2.65-4.094c-0.461-0.664-1.068-1.18-1.445-1.928
			c-0.556-0.486-1.286-0.8-1.444-1.685c0.73-1.758,2.631-2.346,3.371-4.094c0.389-0.068,0.414,0.228,0.723,0.24
			c1.288,1.842,2.853,3.408,4.335,5.058c-0.077,1.208-1.553,1.017-1.445,2.409c0.321,1.772,2.678,0.648,3.613,0.24
			c1.136,0.39,1.672,1.377,2.408,2.168c0.914,0.611,1.803,1.248,2.65,1.927h1.685c-0.283,1.081-1.562,1.166-1.927,2.167
			c-0.845,0.521-1.401,1.328-1.927,2.168c-1.06-0.466-1.597-1.453-2.89-1.686c-0.982,0.142-1.544,0.703-1.687,1.686
			c0.027,1.499,1.091,1.959,1.687,2.891c-0.39,1.135-1.378,1.672-2.168,2.408c-0.517,0.928-1.501,1.391-2.168,2.167
			c-1.746-1.466-3.391-3.031-4.817-4.816C50.468,88.687,49.902,88.692,49.618,88.415z M61.177,64.331
			c0.562,1.364,1.795,2.059,2.409,3.372c-0.706,1.782-2.112,2.866-2.891,4.575c-1.08-0.364-1.658-1.23-2.167-2.167
			c-1.186-0.82-1.944-2.069-3.13-2.89c1.266-1.785,2.561-3.54,3.13-6.021C59.594,62.061,60.053,63.528,61.177,64.331z M59.01,57.828
			c0.141-0.501,0.505-0.778,0.723-1.204c1.476,0.933,3.208,1.609,5.057,2.168c2.213-0.035,4.636,0.141,6.503-0.24
			c-0.429,1.416-1.963,1.729-2.409,3.131c-0.482,0.4-1.119,0.646-1.203,1.444c-0.483,0.401-1.12,0.646-1.206,1.445
			c-0.97-0.234-1.355-1.052-1.927-1.687c-0.796-0.406-1.111-1.297-1.686-1.927C61.451,60.044,60.779,58.387,59.01,57.828z
			 M56.361,60.959c-0.479,0.004-0.307,0.657-0.963,0.482c-0.736,1.191-2.205,1.649-2.891,2.89c-0.495-0.307-1.221-0.384-1.204-1.204
			c1.772-0.153,2.671-1.183,4.094-1.686c0.175-0.547,0.724-0.72,1.204-0.964c0.3-0.405,0.701-1.229,1.204-0.722
			C57.844,60.675,56.822,60.538,56.361,60.959z M52.026,96.362c-0.27-0.773-0.66-1.428-0.722-2.408
			c0.852,0.191,0.882,1.205,1.686,1.445C52.63,95.681,52.705,96.399,52.026,96.362z M56.361,111.053v-0.964h0.722
			c0.558,1.369,1.963,1.892,2.409,3.372C57.452,113.656,57.072,112.188,56.361,111.053z M57.324,105.032
			c-0.429-0.132-1-0.123-1.205-0.48c-0.148,0.334-0.927,0.035-0.963,0.48c-0.245,0.157-0.249,0.554-0.724,0.482
			c-0.397-2.332-1.28-4.18-1.685-6.503c1.426,0.222,1.997-0.411,3.131-0.481c1.216,1.271,2.298,2.68,3.613,3.854
			C58.975,103.471,57.98,104.083,57.324,105.032z M68.403,93.954c-1.379,6.088-4.211,10.722-5.781,16.618
			c-1.322-0.524-1.959-1.733-2.889-2.649c0.266-1.178,1.461-1.428,1.927-2.408c0.713-0.65,1.558-1.171,2.408-1.686
			c-0.219-1.812,1.322-3.089,0.241-4.336c-1.123-0.159-1.547,0.38-2.409,0.481c-0.415-0.788-1.271-1.138-1.685-1.927
			c-0.386-0.738-1.279-0.969-1.446-1.926c1.65-1.321,3.24-2.701,4.577-4.335c1.392,0.374,1.919,1.612,3.853,1.444
			c0.316-0.085,0.378-0.424,0.722-0.481c0.321-2.408-1.404-2.771-1.926-4.336c2.114-2.221,3.717-4.953,4.575-8.43
			c-1.534-0.17-1.71,1.019-2.889,1.205c-0.003-0.641,0.09-1.375-0.241-1.686c-1.303-1.668-3.032-2.91-4.336-4.577
			c0.655-1.674,2.466-2.19,3.131-3.854c0.389-0.067,0.414,0.229,0.723,0.241c1.956,2.058,3.864,4.164,6.744,5.299
			C72.858,83.317,70.021,88.026,68.403,93.954z M77.073,66.016c-0.679,2.213-1.394,4.388-1.927,6.744
			c-1.523-0.323-2.266-1.428-3.131-2.408c-0.799-0.084-1.045-0.722-1.446-1.205c-0.482-0.399-1.119-0.647-1.203-1.444
			c0.736-1.913,2.419-2.88,3.371-4.576c1.481-1.088,2.299-2.839,3.853-3.854c-0.174-0.656,0.479-0.485,0.482-0.964
			c0.085-0.316,0.424-0.379,0.482-0.722c0.576,0.708,1.712,0.857,1.927,1.927C78.374,61.378,78.177,64.151,77.073,66.016z
			 M88.632,53.011c-0.781,1.146-1.91,1.943-3.13,2.649c-1.25,0.125-1.494-0.756-2.409-0.963c-1.191-0.141-1.54,0.705-2.408,0.24
			c-0.461-0.502-0.923-1.004-1.686-1.203c-0.006-1.211,1.008-2.414,0.241-3.613c-0.257-0.547-0.731-0.875-1.444-0.964
			c-1.834-0.228-2.033,1.181-2.891,1.927c-0.431,1.094-1.273,1.777-1.927,2.65c-0.918,0.285-1.768,0.639-2.648,0.963
			c-2.91-0.383-5.81-0.773-7.948-1.927c-1.187-0.421-1.953-1.259-3.131-1.686c-0.577-0.775-1.848-1.913-3.131-1.205
			c-0.881,0.268-0.842,1.826-0.481,2.651c0.278,0.845,1.217,1.03,1.204,2.168c-1.353,0.573-2.24,1.611-3.371,2.408
			c-1.117,0.809-2.309,1.545-3.854,1.926c-4.022,0.008-6.45-1.578-8.671-3.371c-1.173,0.21-1.597-0.329-2.409-0.482
			c-2.802,0.158-6.192,0.721-7.707-0.963c-0.754-1.635-0.762-5.404,0.241-6.743c0.625-0.259,1.613-0.153,1.927-0.722
			c1.676,0.17,1.889,1.803,3.612,1.926c0.939,1.004,3.56,0.422,3.854-0.723c0.018-2.906-2.411-3.369-3.854-4.816
			c-0.016-0.707-0.551-0.895-0.963-1.205c-0.405-1.039-0.835-2.055-1.444-2.89c-0.193-1.492-0.465-2.905-0.722-4.335v-5.539
			c0.479-4.177,1.5-7.812,2.889-11.078c1.097-1.312,2.216-2.602,3.372-3.854c1.289-1.121,2.57-2.248,3.854-3.373
			c4.307-1.873,8.505-3.856,13.727-4.816H61.9c1.661,0.508,3.379,0.957,5.298,1.205c1.157,0.931,2.882,1.293,3.854,2.408
			c1.622,0.466,2.175,2,3.612,2.649c1.235,0.852,2.595,1.579,3.853,2.407c0.944,1.144,1.987,2.189,3.132,3.131
			c0.691,1.558,1.399,3.098,2.168,4.577c0.29,1.957,0.634,3.861,0.962,5.78v5.779c-0.209,1.877-0.788,3.387-0.722,5.54
			c-0.541,0.101-0.007,1.278-0.482,1.444c-0.332,0.311-0.239,1.047-0.241,1.687c0.481,1.847,2.278,2.378,3.371,3.612
			c0.058,0.746,0.67,0.934,0.964,1.445c0.107,0.614,0.337,1.106,0.722,1.444C88.45,50.465,88.778,51.501,88.632,53.011z
			 M70.33,9.901c-1.244-1.19-3.46-0.638-3.613,1.205c0.174,1.992,0.92,3.414,3.131,3.371c0.054-0.188,0.202-0.279,0.482-0.24
			C71.087,13.167,70.845,11.034,70.33,9.901z M65.031,18.331c0.42-1.178-0.292-2.717-0.722-3.613
			c-0.621-0.232-1.416-0.842-2.168-0.722c-0.04,0.007-0.405,0.44-0.481,0.481c-0.28,0.15-0.535,0.019-0.724,0.24
			c-0.27,0.318,0.077,0.807-0.482,0.964c-0.014,1.38,0.23,2.501,0.723,3.372c0.375,0.349,1.124,0.321,1.445,0.723
			c0.761-0.231,1.697-0.367,2.167-0.964C64.799,18.8,65.05,18.275,65.031,18.331z M79.482,17.848
			c-1.845-0.238-2.517,0.695-2.65,2.168c0.35,1.176,1.175,1.876,2.65,1.927c0.943-0.501,1.412-1.478,1.204-3.131
			C80.244,18.532,79.87,18.182,79.482,17.848z M70.088,21.221c-0.238,2.164,0.688,3.165,2.408,3.371
			c0.36-0.283,0.68-0.603,0.964-0.963v-2.168C72.796,20.489,70.913,20.132,70.088,21.221z M68.403,30.373
			c-0.153-0.283-0.062-0.505-0.241-0.722c-0.336-0.406-1.094-0.66-1.204-0.964c-1.774-0.169-2.6,0.612-2.89,1.927
			c0.362,2.047,1.387,3.43,3.613,3.612c1.139-0.54,1.501-2.06,1.203-3.372C68.87,30.794,68.452,30.464,68.403,30.373z
			 M77.073,31.095c0.215,1.149,0.97,1.76,2.168,1.927c0.746-0.297,1.356-0.731,1.445-1.686
			C80.773,29.327,76.974,28.483,77.073,31.095z"/>
	</g>
</g>
<g>
</g>
<g>
</g>
<g>
</g>
<g>
</g>
<g>
</g>
<g>
</g>
<g>
</g>
<g>
</g>
<g>
</g>
<g>
</g>
<g>
</g>
<g>
</g>
<g>
</g>
<g>
</g>
<g>
</g>
</svg>
