<?xml version="1.0" encoding="iso-8859-1"?>
<!-- Generator: Adobe Illustrator 19.0.0, SVG Export Plug-In . SVG Version: 6.00 Build 0)  -->
<svg version="1.1" id="Capa_1" xmlns="http://www.w3.org/2000/svg" xmlns:xlink="http://www.w3.org/1999/xlink" x="0px" y="0px"
	 viewBox="0 0 120 120" style="enable-background:new 0 0 120 120;" xml:space="preserve">
<g id="_x30_501-simmer">
	<g>
		<path style="fill-rule:evenodd;clip-rule:evenodd;" d="M74.698,17.322c0.543,1.533,1.625,2.528,1.917,4.314v1.438
			c-0.527,2.34-3.761,4.752-1.679,7.431c0.448,0.003,0.537,0.195,0.961,0.24c1.738,0.181,2.036-0.916,3.115-1.198
			c1.08-1.399,2.007-2.948,2.877-4.555c-0.008-1.445,0.408-2.467,0.239-4.074c-0.742-3.732-3.249-5.7-4.075-9.35V8.693
			c0.498-1.502,2.702-1.295,2.397-3.597c-0.341-0.856-1.33-1.067-2.636-0.958c-1.045,0.393-2.061,0.814-2.878,1.438
			c-1.458,1.658-2.112,4.119-1.917,7.431C73.546,14.477,73.844,16.176,74.698,17.322z M44.016,24.752
			c1.425,2.73,4.258,4.053,5.514,6.951c-0.173,0.733,0.245,0.873,0.24,1.438c-0.055,3.62-2.497,4.855-2.877,8.151
			c0.613,1.064,1.243,2.112,2.877,2.157c1.746-0.252,2.388-1.607,3.115-2.877c0.753-1.324,1.416-2.74,1.918-4.315
			c0.383-1.375,0.203-3.312,0.24-5.034c-0.651,0.172,0.171-1.13-0.479-0.958c0.174-0.734-0.414-0.705-0.24-1.438
			c-0.914-1.084-1.567-2.43-2.636-3.357c-0.848-1.149-2.277-1.719-2.638-3.356c0.004-1.674,0.702-2.652,0.959-4.074
			c1.093-1.305,1.845-2.95,3.116-4.076c0.815-1.582,2.971-1.822,2.876-4.314c-0.119-0.999-1.083-1.153-1.917-1.438
			c-0.306,0.014-0.331,0.306-0.719,0.24c-4.095,2.136-6.495,5.969-8.869,9.827c-0.303,1.774-0.952,3.203-0.719,5.513
			C44.132,23.838,43.996,24.372,44.016,24.752z M63.672,32.662c0.135,2.133-1.412,2.583-1.198,4.794
			c0.5,0.778,0.994,1.563,2.157,1.678c1.797-0.04,2.467-1.208,3.355-2.157c0.664-1.174,1.161-2.516,1.199-4.315
			c-0.045-1.313-0.444-2.271-0.719-3.355c-0.574-0.703-1.083-1.475-1.679-2.158c-0.738-0.619-1.505-1.211-1.677-2.396
			c0.295-2.661,2.522-3.391,2.876-5.992c-0.365-0.595-0.905-1.012-1.677-1.198c-0.563,0.235-1.177,0.421-1.918,0.479
			c-2.163,2.07-4.733,3.736-4.554,8.149C60.248,29.214,63.022,29.877,63.672,32.662z M119.761,55.674
			c-0.416-0.385-0.702-0.896-0.959-1.439c-1.37-1.186-4.138-0.977-6.711-0.957c-2.059,0.417-3.809,1.144-5.753,1.676
			c-0.716,0.563-1.607,0.951-2.397,1.439c-0.704,0.423-1.612,1.621-2.396,1.198c-0.456-1.591,0.247-2.868-0.479-4.075
			c-0.545-0.174-0.717-0.721-0.959-1.198c-4.894-2.857-10.386-5.114-18.216-5.032c-6.677-1.315-14.958-1.022-22.532-1.439
			c-0.307,0.014-0.332,0.308-0.719,0.24c-6.889,0.461-14.82-0.12-20.854,1.199c-3.381,0.293-6.7,0.65-9.589,1.438
			c-3.448,0.307-6.443,1.066-8.15,3.115c-0.548,2.488-0.671,5.4-0.958,8.149c-1.096-0.421-1.98-1.056-2.876-1.678
			c-0.876,0.158-0.919-0.519-1.677-0.48c-0.438-0.361-1.344-0.254-1.679-0.719c-2.65-0.385-5.314-0.758-8.389-0.719
			c-0.583,0.535-2.19,0.049-2.397,0.959c-1.016,0.182-1.279,1.117-1.917,1.678c-0.62,3.128,0.805,5.344,1.678,7.67
			c0.939,0.74,1.736,1.619,2.637,2.396c1.853,0.545,3.429,1.365,5.514,1.679c1.002,0.196,1.929,0.468,3.115,0.479
			c0.736,0.543,2.47,0.088,2.878,0.958c0.104,2.064-0.39,3.255,0,5.034c0.482,0.476,0.783,1.134,1.437,1.438
			c0.416,0.623,1.978,0.099,1.918,1.198c0.33,7.979,0.413,16.207,1.678,23.25c0.591,0.848,0.673,2.205,1.438,2.877
			c0.102,1.416,0.992,2.044,1.439,3.115c2.534,1.78,5.255,3.374,8.628,4.315c0.963,0.235,2.103,0.294,3.356,0.239
			c3.845,0.82,8.085,1.901,12.704,2.157c3.568,0.198,7.37-0.239,11.266-0.239c11.567-0.001,23.34-0.578,32.119-2.876
			c1.872-1.645,4.115-2.917,5.993-4.556c0.516-1.162,1.487-1.867,1.679-3.354c0.439-0.358,0.597-1.001,1.197-1.198
			c0.31-0.57,0.615-1.145,0.96-1.679c0.685-4.589,0.749-9.798,0.957-14.861c0.606-2.03-0.089-5.363,0.48-7.431
			c0.039-2.755,0.021-5.455-0.24-7.91c1.644-0.912,3.344-1.769,5.513-2.156c2.88-2.473,6.401-4.306,9.108-6.951
			c0.671-2.047,2.142-3.292,2.397-5.753C119.48,56.912,119.892,56.021,119.761,55.674z M19.088,67.418
			c-0.49,0.513-0.948-0.066-1.438-0.24c-0.421-0.219-1.196-0.081-1.439-0.479c-3.674-0.321-6.787-1.202-9.827-2.157
			c-0.631-0.862-1.783-2.296-1.439-3.356c2.852-0.135,5.151,0.284,7.431,0.719c1.286,0.793,2.686,1.469,4.075,2.158
			c0.46,0.578,1.125,0.951,1.677,1.439C18.947,65.64,19.263,66.284,19.088,67.418z M27.477,52.078
			c1.174,0.056,1.814-0.423,3.116-0.24c1.955-0.203,3.697-0.617,5.993-0.48c3.921-0.473,8.285-0.504,12.224-0.958
			c0.388,0.066,0.414-0.227,0.72-0.24c12.427-0.282,23.6,0.689,34.516,1.918c-0.45,0.748-1.845,0.553-2.876,0.719
			c-0.962,0.235-2.103,0.294-3.355,0.239c-2.072,0.325-4.25,0.544-6.232,0.959H50.488c-0.807,0.152-2.227-0.309-2.637,0.239
			c-3.842-0.154-8.302,0.312-11.746-0.239c-2.153,0.155-3.784-0.21-5.753-0.24c-2.004,0.008-4.177,0.183-5.273-0.719
			C25.387,52.224,26.857,52.576,27.477,52.078z M97.469,96.9c-0.583,3.572-1.983,6.327-3.835,8.63
			c-0.596,0.442-1.353,0.725-1.679,1.438c-1.549,0.528-2.937,1.218-4.314,1.918c-0.954,0.21-1.204,0.21-2.157,0
			c-4.117,1.636-10.087,1.419-15.341,1.919c-4.556-0.162-8.288,0.5-12.464,0.719c-1.284-0.076-2.556-0.162-3.596-0.48
			c-0.83,0.369-2.185,0.211-3.355,0.24c-6.704-0.328-12.113-1.95-18.217-2.877c-0.636-0.482-1.345-0.893-2.158-1.197
			c-1.436-1.761-3.119-3.273-3.595-5.992c3.586,1.205,6.781,2.805,11.505,2.875c1.019-0.498,2.405-0.631,2.636-1.918
			c-0.208-1.549-1.489-2.025-3.115-2.157c-0.381-0.499-1.678-0.081-2.158-0.478c-0.773-0.107-1.299-0.46-2.157-0.479
			c-2.658-0.777-5.188-1.684-7.431-2.877v-2.876c2.64,0.396,4.718,1.354,7.671,1.438c0.254,0.543,1.506,0.092,2.157,0.238
			c0.178,0.542,1.344,0.094,1.918,0.242c1.258-0.182,2.381-0.496,2.636-1.68c0.042-1.8-1.457-2.059-2.877-2.396
			c-1.709,0.031-2.984-0.372-4.555-0.479c-1.475-0.283-2.901-0.615-4.554-0.721c-0.826-0.675-3.701,0.05-2.397-2.157
			c-0.229-0.863,1.035-0.425,1.199-0.239c0.733-0.174,0.705,0.414,1.438,0.239c0.846,0.272,1.972,0.265,2.877,0.479
			c1.123-0.394,2.231-0.803,2.397-2.157c-0.104-2.054-1.758-2.556-3.836-2.636c-1.608-0.47-4.037-0.118-3.355-2.877
			c1.336-0.203,4.787,0.549,5.034-1.438c-0.194-2.523-3.178-2.256-5.034-3.116c-0.44-5.964-0.651-12.283-0.24-18.456
			c3.767,0.76,8.489,1.39,12.463,1.198c4.737,0.457,9.534,0.855,14.622,0.959c0.88-0.158,1.822-0.256,2.637-0.479h15.581
			c3.209-0.547,6.525-0.986,10.067-1.199c3.443-0.232,5.928-1.422,9.587-1.438c1.075-0.364,2.307-0.57,3.355-0.959h0.72
			c0.866-0.068,0.548,1.049,0.959,1.438c0.145,0.574,0.344,1.094,0.239,1.918v4.314c-0.107,1.306,0.428,1.969,0.24,3.355
			c-1.501,0.417-2.846,0.988-3.835,1.918c-0.106,0.612-0.335,1.101-0.719,1.438v3.835c0.235,0.885,1.049,1.188,1.438,1.917
			c0.704,0.254,1.588,0.33,2.157,0.721c0.982,0.232,1.536-0.594,2.157,0C98.4,83.769,97.461,89.863,97.469,96.9z M95.311,72.931
			c0.039-0.758-0.637-0.801-0.479-1.678c0.168-1.927,2.592-2.352,3.596-0.959C99.137,72.432,97.135,73.999,95.311,72.931z
			 M113.049,59.987c-0.726,0.952-2.052,1.304-3.116,1.917c-2.198,1.079-4.952,1.602-7.191,2.638
			c-0.314-0.724-0.164-1.913-0.479-2.638c3.542-2.369,7.555-4.27,13.183-4.553C115.196,58.779,114.065,59.326,113.049,59.987z"/>
	</g>
</g>
<g>
</g>
<g>
</g>
<g>
</g>
<g>
</g>
<g>
</g>
<g>
</g>
<g>
</g>
<g>
</g>
<g>
</g>
<g>
</g>
<g>
</g>
<g>
</g>
<g>
</g>
<g>
</g>
<g>
</g>
</svg>
