<?xml version="1.0" encoding="iso-8859-1"?>
<!-- Generator: Adobe Illustrator 19.0.0, SVG Export Plug-In . SVG Version: 6.00 Build 0)  -->
<svg version="1.1" id="Capa_1" xmlns="http://www.w3.org/2000/svg" xmlns:xlink="http://www.w3.org/1999/xlink" x="0px" y="0px"
	 viewBox="0 0 116 116" style="enable-background:new 0 0 116 116;" xml:space="preserve">
<g id="_x30_506-cheese-wedge">
	<g>
		<path style="fill-rule:evenodd;clip-rule:evenodd;" d="M115.94,43.026c-0.442-0.517-0.738-1.182-1.2-1.68
			c-0.75,0.074,0.61-0.693-0.24-0.72c0.198-0.679-0.338-0.622-0.24-1.2c-1.213-0.467-2.078-1.281-3.119-1.92
			c-1.135-0.625-2.315-1.206-3.36-1.92c-2.666-0.853-4.809-2.231-7.68-2.88c-0.896-0.784-2.507-0.854-3.601-1.441
			c-1.491-0.268-2.351-1.169-4.08-1.199c-1-0.76-2.54-0.98-3.84-1.44c-0.459-0.421-1.251-0.509-1.92-0.72
			c-0.582-0.299-1.167-0.594-1.92-0.721c-0.49-0.428-1.083-0.461-1.68-0.72c-0.148-0.063-0.549-0.405-0.721-0.479
			c-0.517-0.226-1.472-0.536-1.92-0.721c-3.392-1.394-6.428-3.419-9.6-5.039c-3.396-2.012-6.852-3.642-10.32-5.28
			c-1.191-0.564-2.512-1.464-4.08-1.2c-0.453-0.054-0.529,0.269-0.96,0.24c-11.244,1.715-20.692,5.227-29.52,9.359
			c-2.315,0.885-4.131,2.27-6.48,3.12c-0.705,0.896-2.094,1.107-2.88,1.92c-1.131,0.55-2.348,1.013-3.12,1.92
			c-2.265,0.935-3.979,2.422-6,3.601c-0.958,0.642-1.687,1.514-2.88,1.92c-0.74,0.939-1.621,1.739-2.4,2.64
			c-0.111,1.546-0.093,2.275-0.479,3.84c-0.606,0.993-0.608,2.592-0.96,3.841c-0.328,2.951-0.677,5.883-0.72,9.119
			c-0.187,6.747,1.029,12.092,2.16,17.521c0.587,1.014,0.656,2.544,1.2,3.6c0.369,1.232,0.772,2.428,1.2,3.601
			c0.893,2.388,1.94,4.619,2.88,6.96c1.153,2.126,2.045,4.514,3.12,6.72c0.289,1.312,1.077,2.123,1.2,3.6
			c0.727,0.953,0.745,2.615,2.16,2.881c-0.04,0.52,0.851,0.108,1.2,0.239c0.349-0.131,1.24,0.28,1.199-0.239h3.12
			c1.653,0.426,3.986,0.174,6,0.239c3.87,0.291,7.809,0.513,11.761,0.72c20.315,0.245,40.201,0.918,60.959,0.721
			c3.962-0.201,8.1,1.16,11.521,0c1.509-1.371,2.729-3.03,2.4-6.24c0.351-2.608,0.359-5.56,0.479-8.4
			c-0.249-0.87-0.75-1.489-1.44-1.92c-0.315-0.885-0.798-1.602-1.44-2.16c-0.616-1.783-1.802-2.998-1.92-5.279
			c-0.125-1.326,0.138-2.263,0.24-3.361c0.476-0.403,0.382-1.377,0.96-1.68c0.111-0.768,0.914-0.847,0.96-1.681
			c0.851-0.749,1.823-1.376,2.88-1.92c0.537-0.262,1.202-0.397,1.68-0.72c0.46-0.42,1.478-0.282,1.44-1.2
			C116.12,60.059,115.826,51.46,115.94,43.026z M47.06,20.706c1.968,1.232,3.758,2.642,6,3.6c0.848,0.753,1.904,1.296,3.119,1.681
			c0.623,0.638,2.662,1.107,3.36,0.24c-0.024-1.736-1.544-1.977-2.16-3.121c-2.063-0.975-3.787-2.292-5.76-3.359
			c0.746-0.534,1.911-0.649,3.12-0.721c2.828,1.013,4.151,3.529,7.919,3.601c0.531-0.03,0.102-1.019,0.241-1.441
			c3.465,2.136,6.951,4.249,10.56,6.24c1.7,1.101,3.904,1.695,5.521,2.88c2.054,0.665,3.989,1.451,5.76,2.4
			c4.315,1.286,8.366,2.835,12.481,4.32c2.136,0.665,4.197,1.402,6,2.4c1.155,0.204,1.946,0.773,2.88,1.2
			c0.733,0.626,2.184,0.536,2.399,1.68H72.02c-1.283-0.396-2.138-1.222-3.361-1.68c0.2-1.161,0.684-2.037,0.72-3.36
			c-0.239-0.72-0.72-1.201-1.439-1.44c-1.579,0.261-1.802,1.879-2.4,3.121c-1.154-0.126-2.013-0.548-2.88-0.96
			c0.398-1.821,0.473-4.369-1.679-4.321c-1.621,0.219-1.113,2.568-1.44,4.081c-0.405,0.475-0.262,1.498-0.479,2.16
			c-0.315,0.566-0.102,1.658-0.481,2.16c-1.745-0.096-3.908,0.229-5.279-0.24c0.224-2.096,0.659-3.98,0.959-6
			c0.344-1.428,1.509-4.457,0-5.521c-1.567-0.208-1.527,1.192-2.399,1.681c-0.701,1.938-1.134,4.146-1.681,6.241
			c-0.646-1.194-1.903-1.778-2.64-2.881c0.301-2.1,0.641-4.159,0.96-6.24c0.595-0.42,2.576,0.516,3.12-0.479
			c-0.168-2.392-2.454-2.665-3.84-3.84c-0.86-0.42-1.688-0.872-2.4-1.44c-0.612-0.026-0.84-0.44-1.2-0.72
			c-0.459-0.101-1.032-0.087-0.959-0.72C44.38,21.387,45.776,21.102,47.06,20.706z M72.98,54.306
			C72.69,54.331,72.833,53.958,72.98,54.306c0.185,0.054,0.473,0.007,0.479,0.24c0.413-0.013,0.615,0.185,0.72,0.479
			c0.997-0.229,0.049,0.719,0,0c-0.33,0.011-0.526-0.112-0.72-0.239v-0.24C73.273,54.493,72.986,54.54,72.98,54.306z M72.259,47.827
			h12c0.436,0.732-0.52,1.78-0.72,2.64c-0.911,0.369-1.009,1.551-1.92,1.92C76.627,52.74,72.97,51.756,72.259,47.827z M64.82,42.067
			h-2.88c0.196-0.764,0.153-1.768,0.479-2.4C63.31,40.377,64.695,40.592,64.82,42.067z M49.94,41.827h-2.88
			c0.097-1.024-0.233-2.473,0.24-3.12c0.991,0.275,1.888,0.275,2.879,0C49.978,39.625,49.867,40.634,49.94,41.827z M41.54,25.026
			c0.388-0.067,0.413,0.228,0.72,0.24c1.252,1.069,2.831,1.81,4.32,2.641c-0.388,0.893-0.816,1.742-1.2,2.64
			c-0.317,0.962-0.475,2.085-0.96,2.88c-1.425-0.895-2.835-1.805-4.08-2.88C40.595,28.562,41.027,26.754,41.54,25.026z
			 M39.86,34.386c1.396,0.763,2.585,1.735,3.84,2.64c-0.098,1.742-0.323,3.357-0.72,4.801c-1.461,0.181-2.177-0.384-3.601-0.24
			C39.345,38.992,39.371,36.456,39.86,34.386z M35.3,24.546c0.771-0.269,1.423-0.657,2.399-0.72c0.204-0.355,0.604-0.516,1.2-0.48
			c-0.236,1.844-1.167,2.994-1.2,5.04c-1.188-0.011-1.45-0.949-2.399-1.2c-0.525-0.595-1.396-0.844-1.921-1.439
			C33.492,24.818,34.704,24.99,35.3,24.546z M32.419,29.106c0.388-0.067,0.414,0.227,0.721,0.24c1.062,1.098,2.622,1.697,3.6,2.881
			c-0.062,1.857-0.588,3.251-0.48,5.28c-0.729,0.432-1.393-0.909-2.159-1.201c-0.845-0.435-1.393-1.167-2.4-1.44
			C31.556,32.563,32.264,31.111,32.419,29.106z M31.22,38.707h0.72c0.381,0.819,1.651,0.749,2.16,1.44
			c0.792,0.326,2.062,0.177,1.92,1.439h-4.8V38.707z M27.379,28.147c0.724-0.558,1.466-1.095,2.641-1.2
			c0.385,0.62-0.437,1.692-0.481,2.64c-0.402,0.798-0.435,1.966-0.72,2.88c-1.11-0.09-1.65-0.75-2.16-1.44
			C26.808,29.975,27.282,29.249,27.379,28.147z M25.699,34.866c1.124,0.155,1.503,1.057,2.4,1.44v4.8
			c-0.929-0.031-0.947-0.973-1.681-1.199c-0.471-0.409-1.199-0.56-1.44-1.2C25.255,37.463,25.241,35.928,25.699,34.866z
			 M21.14,31.026c1.231,0.049,1.51,1.051,2.16,1.681c-0.353,1.328-0.663,2.698-0.961,4.08c-0.968-0.393-1.83-0.89-2.399-1.681
			C20.061,33.468,20.575,32.222,21.14,31.026z M19.22,38.227c1.232,0.688,3.037,0.802,2.88,2.879h-3.121
			C18.885,39.971,19.056,39.104,19.22,38.227z M14.659,38.467c0.017-0.943,0.116-1.804,0.48-2.4v-0.721h0.72
			c0.561,0.859-0.003,2.299-0.24,3.121c-0.149,0.651,0.305,1.905-0.24,2.16h-0.479C13.882,40.636,14.603,38.909,14.659,38.467z
			 M10.579,37.507c0.727,0.588-0.182,1.562,0,2.4c-0.94-0.02-1.497-0.424-2.16-0.721C8.828,38.315,9.952,38.16,10.579,37.507z
			 M6.739,69.667c0.127-0.369,0.25-0.016,0.24,0.24C6.853,70.276,6.728,69.922,6.739,69.667z M7.459,67.747
			c0.046-0.272,0.241-0.133,0.24,0C7.653,68.019,7.458,67.88,7.459,67.747z M108.981,66.067c-4.705,1.215-7.819,4.021-11.04,6.72
			c-0.504,1.017-1.308,1.732-1.92,2.64c-0.44,1.785-0.8,3.285-0.48,5.281c1.673,4.328,4.343,7.657,9.12,8.88h3.6
			c-0.524,2.195-0.236,5.203-0.959,7.2c-15.924-1.037-33.804-0.116-50.161-0.72c0.303-1.777,1.334-2.826,1.68-4.561
			c0.699-1.205,1.426-3.262,0-4.08c-1.499-0.139-1.995,0.725-2.4,1.68c-0.902,0.378-0.727,1.833-1.439,2.4
			c-0.248,1.033-0.6,1.961-1.2,2.641c0.064,1.344-0.406,2.153-1.92,1.92c-0.531-1.103,0.985-1.988,1.2-3.12
			c0.529-1.071,1.535-1.665,1.439-3.361c-0.082-0.878-0.821-1.097-1.439-1.439c-2.188,0.213-2.42,2.38-3.36,3.84
			c-1.239,1.16-1.193,3.606-3.12,4.08c-0.682-0.803,0.66-1.118,0.721-1.92c0.647-0.511,0.022-1.768-0.24-2.16
			c-1.538-0.178-2.426,0.295-2.881,1.199c-0.279,0.44-0.627,0.812-0.959,1.2c-0.22,0.421-0.083,1.198-0.48,1.44
			c-8.082,0.849-16.924-0.521-24.96,0.24c0.091-1.27,1.067-1.652,1.2-2.881c0.639-0.641,0.756-1.803,0.96-2.88
			c-0.354-0.766-0.474-1.767-1.681-1.68c-2.172,0.067-1.996,2.483-2.159,4.56c-0.907,0.107-0.347-1.254-0.96-1.439
			c0.028-0.691-0.132-1.571,0.239-1.92c0.198-1.322,0.796-2.244,0.96-3.6c0.561-0.96,0.799-2.242,0.961-3.601
			c0.689-0.835,0.582-2.556-0.481-2.88c-1.642-0.043-1.91,1.291-2.4,2.4c-0.858,0.741-1.123,2.076-1.68,3.119
			c-0.607-0.468,0.133-1.611,0.24-2.16c0.094-0.865,0.311-1.609,0.48-2.399c0.384-1.456,0.756-2.925,1.2-4.321
			c0.311-1.529,0.805-2.875,1.2-4.319c0.425-1.22,0.964-3.581-0.481-4.08c-0.904-0.259-0.93,0.604-1.2,0.96
			c-0.289,0.382-0.743,0.692-0.72,1.2c-0.759,0.601-1.079,1.64-1.44,2.64c-1.062,1.658-1.369,4.071-2.16,6.001
			c-1.504-1.091-0.046-3.151,0-4.8c0.67-1.41,0.771-3.391,1.44-4.801c0.223-1.856,0.953-3.205,1.199-5.039
			c0.292-1.645,1.305-3.641-0.24-4.561c-1.914,0.086-2.09,1.91-2.88,3.12c-0.519,1.401-1.183,2.657-1.439,4.319
			c-0.39,0.172-0.39-1.131,0-0.959c0.131-0.35-0.28-1.241,0.239-1.2c-0.018-0.897,0.102-1.659,0.481-2.16
			c0.021-1.739,0.425-3.095,0.72-4.56c0.12-1.721,0.548-3.133,0.721-4.801c0.722-1.145,0.517-3.151-0.96-3.359
			c-2.287,0.113-1.965,2.836-2.641,4.56c-0.542,1.778-0.969,3.671-1.439,5.521c-0.545-0.256-0.092-1.509-0.24-2.16
			c-0.371-0.35-0.211-1.229-0.24-1.92v-4.561c-0.192-0.832,0.357-0.922,0.24-1.68c-0.053-2.293,0.002-4.479,0.24-6.481v-0.72
			c2.604,1.26,5.585,2.468,9.119,3.12c4.806,0.887,10.566,1.077,16.561,1.2c11.917,0.644,24.616,0.504,36.72,0.96
			c0.424,0.401-0.213,0.805,0,1.68v2.16c0.583,3.498,2.651,5.509,5.04,7.2c1.732,0.439,4.062,0.698,6,0.239
			c4.568-2.232,8.524-5.076,9.121-11.279c8.407-0.152,17.683,0.562,24.48-1.2c0.141,6.419-0.294,13.414,0.239,19.44H108.981z
			 M107.061,85.267c-0.812-0.066-1.379-0.381-2.4-0.24c-2.445-1.394-4.617-3.062-5.28-6.239c0.346-3.736,3.531-4.63,5.521-6.72
			c0.279-0.039,0.427,0.053,0.479,0.239c-0.444,0.995-0.611,2.269-0.96,3.36v2.401C104.64,81.128,106.059,82.989,107.061,85.267z
			 M79.22,38.947c0.654,0.379,1.213,0.704,1.68,0.96c0.673,0.367,1.637,0.829,2.16,0.96c0.88,0.22,1.312,0.264,2.16,0.239
			c0.61-0.845-0.675-1.453-0.961-2.159c-0.81-0.39-1.432-0.968-2.159-1.44c-1.688-0.792-3.032-1.928-4.8-2.64
			c-1.41-0.991-2.804-1.997-4.561-2.639c-1.228-1.254-3.291-1.67-4.8-2.641h-0.72v0.96c2.368,2.352,5.094,4.346,8.159,6
			C76.593,37.425,78.164,38.336,79.22,38.947z M53.06,56.707c-0.479-0.962-0.962-1.919-1.441-2.88
			c-0.854-0.825-1.772-1.588-2.64-2.4c-1.829-0.571-3.907-0.893-6.481-0.72c-0.146,0.014-0.284,0.036-0.24,0.24
			c-1.23-0.192-1.574,0.505-2.64,0.479c-0.495,0.545-1.227,0.853-1.92,1.2c-0.202,0.917-1.353,0.887-2.16,1.2
			c-0.509,1.331-1.502,2.178-2.16,3.359c-0.74,2.272-0.624,5.182-0.239,6.721c0.076,0.309,0.186,0.508,0.239,0.72
			c0.168,0.672,0.706,1.157,0.721,1.44c0.015,0.277,0.153,0.106,0.239,0.239c0.553,0.854,1.127,1.542,1.681,2.16
			c1.952,0.928,3.947,1.812,6.96,1.681c5.037-0.483,7.85-3.191,9.84-6.721c0.51-1.65,0.545-3.774,0.48-6
			C53.02,57.386,53.039,57.048,53.06,56.707z M37.7,57.667C37.724,57.957,37.351,57.814,37.7,57.667
			c-0.113-0.754,0.646-0.634,0.72-1.2C39.068,56.826,38.004,57.469,37.7,57.667z M49.7,61.987c-1.171,1.629-2.765,2.835-4.56,3.84
			c-1.68-0.721-3.588-1.213-4.56-2.641c-0.243-2.323,0.382-3.777,0.96-5.279c1.585-1.135,3.113-2.327,5.28-2.881
			c1.683,0.317,2.302,1.698,3.12,2.881C49.947,59.353,50.014,60.862,49.7,61.987z M98.18,57.186c-0.744,0.316-1.331-0.711-1.68,0
			c-2.129-0.129-2.825,1.175-3.6,2.4c-0.202,1.642,0.326,2.553,0.96,3.36c2.217,1.115,4.681-0.227,5.76-1.681
			c0.358-1.393-0.082-2.172-0.48-3.359C98.539,57.948,98.389,57.538,98.18,57.186z M97.7,61.026c-0.581,0.767-2.331,1.004-3.12,0.24
			c-0.51-2.303,1.021-3.463,2.88-2.64C97.709,59.259,97.747,60.099,97.7,61.026z M25.22,61.747c2.39-2.154-1.688-6.102-3.12-3.12
			C22.504,60.302,22.866,62.02,25.22,61.747z M56.659,59.346c-0.159,1.6,0.426,2.455,1.68,2.641c0.89-0.311,1.559-0.842,1.681-1.92
			C59.65,58.489,57.575,57.955,56.659,59.346z M68.419,65.827c0.358-0.283,0.678-0.603,0.96-0.96
			c0.424-2.347-2.305-3.863-3.359-1.92v1.68C66.679,65.167,66.941,66.105,68.419,65.827z M79.7,70.627
			c-0.626-0.093-1.316-0.123-1.68-0.479h-3.361c-0.146,0.014-0.284,0.035-0.24,0.239H73.94c-2.714,1.103-4.867,3.88-5.761,6.481
			c-0.369,0.831-0.212,2.188-0.239,3.36c0.444,1.234,1.248,2.111,1.68,3.359c0.71,1.05,1.685,1.836,2.64,2.641
			c1.647,0.624,4.113,0.624,5.761,0c3.518-2.098,6.764-5.695,5.52-11.761C82.805,72.641,81.216,71.67,79.7,70.627z M76.339,82.387
			c-0.928-0.032-0.946-0.974-1.68-1.2c-0.328-0.631-1.009-0.909-1.2-1.68c-0.161-1.201,0.223-1.857,0.24-2.88
			c0.735-1.186,2.096-1.744,2.88-2.88c1.772,0.228,3,1,3.6,2.4C80.034,79.362,78.379,81.067,76.339,82.387z M39.14,77.107
			c-1.327-1.108-3.459-2.02-5.761-1.92c-0.146,0.007-0.283,0.042-0.239,0.24c-1.375-0.095-2.352,0.208-3.12,0.721
			c-1.117,0.163-1.626,0.934-2.641,1.2c-1.22,1.34-2.502,2.618-3.36,4.32c-0.428,4.668,1.17,7.31,3.6,9.12
			c1.47,0.21,2.662,0.699,4.321,0.72c1.162-0.197,2.226-0.493,3.36-0.72c2.207-1.312,3.87-3.169,5.039-5.52
			c0.418-2.08,0.322-4.908-0.239-6.72C39.492,78.355,39.488,77.56,39.14,77.107z M33.14,86.948c-0.888-0.073-0.9-1.021-1.44-1.441
			c-0.692-0.188-0.599-1.16-0.96-1.68c-0.097-1.137,0.429-1.651,0.24-2.88c1.289-1.015,2.359-2.759,4.8-1.921
			c0.217,0.424,0.537,0.744,0.96,0.961c-0.021,0.34-0.039,0.68,0.24,0.72C37.133,84.221,35.585,86.031,33.14,86.948z M67.46,86.948
			c-1.583,0.257-1.329,2.35-1.439,4.079c0.676,0.765,1.11,1.771,2.639,1.681C71.947,92.062,70.811,86.789,67.46,86.948z
			 M80.179,90.787c0.799,0.875,2.563,0.865,2.641-0.72C82.751,88.286,79.461,88.474,80.179,90.787z"/>
	</g>
</g>
<g>
</g>
<g>
</g>
<g>
</g>
<g>
</g>
<g>
</g>
<g>
</g>
<g>
</g>
<g>
</g>
<g>
</g>
<g>
</g>
<g>
</g>
<g>
</g>
<g>
</g>
<g>
</g>
<g>
</g>
</svg>
