<?xml version="1.0" encoding="iso-8859-1"?>
<!-- Generator: Adobe Illustrator 19.0.0, SVG Export Plug-In . SVG Version: 6.00 Build 0)  -->
<svg version="1.1" id="Capa_1" xmlns="http://www.w3.org/2000/svg" xmlns:xlink="http://www.w3.org/1999/xlink" x="0px" y="0px"
	 viewBox="0 0 105 105" style="enable-background:new 0 0 105 105;" xml:space="preserve">
<g id="_x30_204-cherry">
	<g>
		<path style="fill-rule:evenodd;clip-rule:evenodd;" d="M91.353,49.901c-1.839-0.395-3.483-0.985-5.709-0.993
			c-2.23,0.003-3.908,0.558-5.708,0.993c-1.494,0.822-2.844,1.788-4.219,2.73c-4.106-7.228-7.616-15.053-9.679-24.324
			c-0.125-1.034,0.725-1.095,0.496-2.233c-0.135-0.94-0.601-1.551-0.496-2.731c-0.145-4.943,0.377-9.22,0.992-13.402v-5.46
			c0.305-2.206-0.578-3.228-1.488-4.218c-0.696-0.298-1.713-0.274-2.73-0.249c-1.895,0.422-3.449,1.184-4.963,1.985
			c-1.382,1.019-3.028,1.771-3.475,3.723c-0.672,0.915,0.28,1.921,0,3.226c-2.31,3.647-5.021,6.892-9.183,8.687
			c-0.662-0.249-0.818-1.002-1.241-1.489c-0.801-0.192-1.468-0.519-1.986-0.993c-1.849-0.385-3.617-0.851-5.709-0.993h-3.971
			c-9.879,0.875-16.7,4.81-21.344,10.921c-1.276,1.372-2.275,3.019-3.227,4.715c-0.982,1.748-2.005,3.455-2.73,5.46
			c-1.844,3.533-3.228,7.527-4.218,11.914c0.035,2.447-0.329,5.291,0.993,6.453c5.923,0.364,10.699,1.876,17.373,1.489
			c5.497-0.543,9.617-2.462,13.403-4.716c1.701-1.276,3.412-2.544,4.963-3.971c1.011-0.479,1.268-1.711,2.483-1.986
			c0.167-0.576,0.825-0.664,0.993-1.241c0.354-0.06,0.418-0.409,0.745-0.496c0.06-0.27,0.409-0.597,0.496-0.249
			c-1.378,2.509-3.02,4.756-4.218,7.446c-0.892,1.093-1.322,2.649-1.986,3.971c-0.699,1.286-0.895,3.076-1.737,4.219
			c-3.241-1.021-7.776-0.769-11.665-0.496c-0.251,0.411-1.054,0.27-1.489,0.496c-0.552,0.193-0.968,0.521-1.737,0.497
			c-0.698,0.71-2.104,0.709-2.73,1.489c-1.971,0.842-3.36,2.266-4.964,3.474c-0.458,0.617-0.75,1.401-1.489,1.738
			c-0.258,0.901-0.824,1.493-1.241,2.234c-0.463,0.777-0.756,1.726-1.241,2.482c-0.583,1.897-0.996,3.968-1.241,6.205
			c-0.076,2.227,0.04,4.263,0.249,6.205c0.11,0.965,0.188,1.963,0.496,2.729c-0.179,0.759,0.254,0.905,0.248,1.49
			c0.428,0.15-0.02,1.177,0.497,1.241c0.784,3.6,2.739,6.031,4.468,8.687c1.332,1.316,2.867,2.428,4.219,3.723
			c1.082,0.241,1.787,0.86,2.73,1.241c0.96,0.446,2.44,0.372,3.226,0.993c3.844,1.615,8.865,2.055,13.899,2.482
			c2.598-0.133,4.766-0.695,6.95-1.241c2.897-1.653,5.716-3.384,7.693-5.957c1.151-1.165,2.262-2.37,2.979-3.971
			c1.197-1.121,1.512-3.121,2.729-4.219c1.136,1.346,1.913,3.051,2.979,4.467c1.65,1.411,3.266,2.856,5.708,3.474
			c0.859,0.382,2.262,0.22,3.475,0.248c2.552,1.088,6.484,0.796,9.68,1.242c1.602-1.045,4.597-0.698,6.453-1.49
			c2.229-0.913,3.826-2.461,6.205-3.226c0.591-0.98,1.603-1.541,2.482-2.234c0.978-0.676,1.609-1.701,2.73-2.233
			c0.426-0.898,1.076-1.571,1.737-2.234c0.657-0.667,0.977-1.671,1.738-2.234c0.875-1.854,1.979-3.48,2.978-5.212
			c0.678-2.632,1.149-5.469,1.24-8.687C104.13,60.123,98.841,53.913,91.353,49.901z M60.824,5.474
			c0.386-0.359,1.159-0.331,1.49-0.745c0.211-0.045,0.234,0.097,0.248,0.249c0.123,2.686-0.32,4.81-0.744,6.949
			c-0.981-0.395-1.439,0.23-2.234-0.248c0.107-1.133-0.25-2.733,0.248-3.475c-0.038-0.79-0.563-1.092-0.497-1.985
			C60.091,6.229,60.301,5.694,60.824,5.474z M49.657,28.308c0.413-0.331,0.083-1.405,0.496-1.737
			c-0.122-1.115,0.126-1.859,0.249-2.73c-0.015-1.062-0.333-1.818-0.497-2.73c2.546-1.26,4.449-3.162,6.205-5.212
			c0.289-0.041,0.441,0.055,0.497,0.249c-0.353,3.123-1.751,5.199-2.979,7.446c-1.145,2.33-2.69,4.259-3.971,6.453
			C48.905,29.669,49.862,28.956,49.657,28.308z M28.063,46.674c-0.774,0.448-1.376,0.807-2.481,1.241
			c-0.25,0.098-0.567,0.425-0.745,0.497c-0.585,0.235-1.264,0.266-1.986,0.496c-0.148,0.047-0.629,0.462-0.744,0.497
			c-0.229,0.066-0.517-0.069-0.745,0c-0.457,0.138-1.899,0.262-2.978,0.497c-4.537,0.224-8.525-0.535-12.658,0
			c-0.415-1.624,0.618-3.813,0.993-5.461c0.738-1.495,1.061-3.406,1.986-4.716c1.17-3.297,2.779-6.155,4.468-8.935
			c3.505-5.429,8.343-9.526,15.884-10.92c2.346-0.054,4.398-0.401,6.949-0.248c1.771,0.381,3.983,0.319,5.213,1.241
			c-1.479,1.096-3.451,0.179-4.965,1.241c-1.424-0.396-3.429-0.209-5.211-0.248c-0.818,0.01-1.236,0.419-2.234,0.248
			c-1.012,0.643-2.811,0.499-3.475,1.489c0.118,2.033,2.188,2.114,3.971,2.482c0.105,0.85-0.744,0.746-0.993,1.241
			c-0.171,0.49-1.384-0.061-1.488,0.497c-2.934,0.045-5.562,0.394-7.446,1.488c-1.265,0.224-2.259,0.719-2.978,1.49
			c-0.988,0.419-1.881,0.931-1.738,2.482c0.244,1.156,2.022,0.679,2.978,0.496c0.85-0.474,2.338-0.31,3.227-0.745
			c0.816-0.181,0.381,0.493,0,0.497c-0.088,0.326-0.438,0.391-0.496,0.745c-0.518,0.31-0.681,0.974-1.241,1.241
			c-0.857,0.879-1.488,1.986-2.482,2.73c-0.481,1.256-1.484,1.991-1.986,3.227c-0.594,1.143-1.762,1.712-1.737,3.475
			c0.079,0.583,0.768,0.555,0.993,0.993c2.294-0.187,2.671-2.293,4.468-2.979c1.062-1.42,2.332-2.631,3.474-3.971
			c0.814-0.428,1.172-1.31,1.986-1.738c-0.038-0.7,0.702-0.622,0.993-0.993c0.073-0.506,0.671-0.487,0.745-0.993
			c1.293-1.188,2.697-2.266,3.971-3.475c0.612,0.791-0.512,1.961-0.744,2.73c-0.215,1.109-0.751,1.897-0.745,3.227
			c0.322,0.919,0.622,1.861,1.737,1.985c1.723-0.015,2.006-1.469,2.482-2.729c0.912-0.826,1.368-2.107,1.985-3.227
			c1.158-2.316,2.317-4.633,3.475-6.95c0.905-0.583,1.809-1.169,2.979-1.489c0.118,1.288,0.574,2.238,1.488,2.73
			c1.382-0.108,1.839-1.14,1.987-2.482c0.647-0.759-0.27-3.082,1.241-2.978c1.387,0.034,0.172,1.137,0.496,2.233
			c-0.071,1.005-0.425,1.726-0.496,2.731c-0.399,1.752-1.195,3.107-1.489,4.963C39.169,37.294,34.392,43.011,28.063,46.674z
			 M52.634,84.151c-0.336,1.65-0.905,3.067-1.489,4.468c-0.631,0.362-0.48,1.505-1.241,1.737c0.052,1.044-0.943,1.043-0.993,1.986
			c-1.158,0.827-1.632,2.339-2.729,3.226c-0.819,1.167-1.983,1.988-2.979,2.979c-1.574,0.577-3.359,0.944-4.964,1.489
			c-4.189,0.053-7.602-0.671-10.92-1.489c0.481-1.337,1.631-4.54-0.496-4.964c-2.178-0.274-2.056,1.75-3.228,2.482
			c-0.906-0.17-1.209-0.941-1.985-1.241c0.45-1.454,0.954-2.853,1.738-3.971c0.357-1.155,1.063-3.538-0.249-4.219
			c-1.634-0.062-2.172,0.971-2.73,1.985c-0.947,0.542-0.736,2.242-1.985,2.482c-0.125-1.034-0.869-1.448-0.994-2.482
			c0.899-3.321,3.121-5.318,3.972-8.687c-0.073-0.506-0.671-0.487-0.744-0.993c-1.478,0.095-2.602,0.543-3.228,1.489
			c-0.519,0.308-0.932,0.722-1.24,1.241c-0.344,0.099-0.703,1.41-0.993,0.745c-0.377-1.692-0.525-3.612-0.497-5.709
			c0.192-3.449,1.067-6.214,2.234-8.687c1.75-1.808,3.34-3.775,5.709-4.964c3.422-0.474,7.912-0.895,10.672,0.496
			c-0.381,1.356-0.219,3.255-0.248,4.965c-1.543-0.251-3.347-1.401-4.468,0c-0.351,2.004,0.8,2.509,1.489,3.474
			c1.131,0.442,1.763,1.381,2.979,1.737c1.885,1.259,4.592,1.695,7.445,1.986c3.677-0.294,6.609-1.333,6.453-5.461
			c-0.412-0.497-0.666-1.153-1.489-1.24c-1.232-0.24-1.324,0.661-2.234,0.744c-0.185,0.808-1.231,0.755-1.737,1.241
			c-1.235,0.076-2.278-0.04-3.228-0.249c-0.297-1.565-0.482-4.424,0-5.956c4.601-0.216,6.876,1.895,9.432,3.724
			c1.109,1.538,2.42,2.873,3.226,4.715c0.849,1.797,1.425,3.87,1.737,6.205V84.151z M98.053,79.436
			c-0.701,0.623-0.787,1.86-1.488,2.482c-0.215,1.026-1.026,1.456-1.241,2.482c-1.673,1.222-3.37,2.421-4.715,3.971
			c-1.166,0.323-1.626,1.352-2.731,1.737c-0.753,0.652-1.793,1.019-2.481,1.737h-1.985c-1.869,1.158-4.518,1.835-7.446,1.241
			c0.11-2.261-0.202-4.101-1.986-4.468c-2.096-0.111-1.204,2.768-2.234,3.723c-0.807-0.186-1.536-0.449-2.234-0.745
			c-0.184-3.076,2.149-7.848-0.744-9.183c-1.683,0.054-1.986,1.489-2.481,2.729c-0.491,1.165-0.889,2.422-0.994,3.972
			c-1.045-0.113-1.142-1.174-1.985-1.489c0.042-1.281-0.154-2.801,0.249-3.723c-0.138-1.848,0.559-4.531-1.241-4.715
			c-1.214-0.139-1.187,0.964-1.737,1.489c-0.479,0.513-0.605,1.381-0.993,1.986c-0.626-0.615-1.68-0.802-1.737-1.986
			c0.076-1.233-0.041-2.277-0.249-3.226c-0.158-2.242-1.134-3.665-1.49-5.709c-1.607-3.191-3.783-5.813-6.205-8.19
			c-1.101-0.387-1.879-1.099-2.729-1.737c-1.212-0.195-2.087-0.726-3.227-0.993c-1.575-0.08-3.519,0.21-4.715-0.249
			c-0.484-1.003,0.522-1.712,0.496-2.978c0.538-0.704,0.619-1.863,1.241-2.482c0.486-1.996,1.578-3.387,2.482-4.964
			c0.751-1.813,1.968-3.16,2.73-4.963c1.029-1.453,1.886-3.078,2.729-4.716c3.449-6.562,8.226-11.796,10.673-19.359v-0.745
			c0.289-0.041,0.441,0.055,0.497,0.248c0.562,6.386,2.081,11.817,3.474,17.374c1.003,2.471,1.719,5.231,2.978,7.445
			c0.771,2.621,2.285,4.498,3.227,6.95h-2.978c-1.884,0.351-3.913,0.554-5.212,1.489c-0.963,0.194-1.535,0.782-2.234,1.241
			c-0.925,0.15-1.01,1.141-1.985,1.241c-1.943,2.524-4.657,4.278-4.716,8.687c0.224,1.183,1.929,0.885,2.98,1.241
			c1.72-0.679,2.512-2.286,3.474-3.723c1.144-1.173,2.129-2.504,3.227-3.723c0.768-0.059,0.964-0.69,1.489-0.993
			c0.634-0.11,1.142-0.348,1.489-0.744c0.393-0.021,0.947,0.119,0.994-0.248h3.723c1.173,0.398,2.822,0.322,3.226,1.489
			c0.045,0.952-0.202,0.09-0.743,0.248h-1.49c-0.488,0.422-1.06,0.761-1.241,1.489c-0.178,1.887,1.321,2.175,2.482,2.73
			c1.13,0.54,2.448,1.003,3.723,1.241h4.468c2.915-0.643,5.483-1.631,6.453-4.219c0.224-1.632-0.363-2.45-1.242-2.979
			c-2.005,0.062-2.772,1.364-4.218,1.986c-0.929-0.146-0.769-1.383-1.49-1.737c-0.332-0.5-1.598-0.811-0.993-1.489
			c1.257-0.564,2.538-1.102,3.971-1.489c1.158,0,2.316,0,3.475,0c0.818,0.175,1.586,0.398,2.482,0.497
			c5.54,2.817,9.259,7.452,9.928,15.14C99.082,73.514,98.028,75.936,98.053,79.436z"/>
	</g>
</g>
<g>
</g>
<g>
</g>
<g>
</g>
<g>
</g>
<g>
</g>
<g>
</g>
<g>
</g>
<g>
</g>
<g>
</g>
<g>
</g>
<g>
</g>
<g>
</g>
<g>
</g>
<g>
</g>
<g>
</g>
</svg>
