<?xml version="1.0" encoding="iso-8859-1"?>
<!-- Generator: Adobe Illustrator 19.0.0, SVG Export Plug-In . SVG Version: 6.00 Build 0)  -->
<svg version="1.1" id="Capa_1" xmlns="http://www.w3.org/2000/svg" xmlns:xlink="http://www.w3.org/1999/xlink" x="0px" y="0px"
	 viewBox="0 0 120 120" style="enable-background:new 0 0 120 120;" xml:space="preserve">
<g id="_x30_301-pina-colada">
	<g>
		<path style="fill-rule:evenodd;clip-rule:evenodd;" d="M99.375,23.694c-0.536-1.094-1.076-2.184-1.803-3.088
			c-0.854-2.406-2.558-3.961-3.346-6.436c-0.815-0.814-1.348-1.912-1.802-3.088c-0.979-0.65-1.078-2.182-2.059-2.831
			c-0.234-1.396-1.358-1.901-1.802-3.089c-1.076-0.554-1.377-1.884-2.832-2.059c-5,0.488-9.471,1.51-14.67,1.801
			c-0.111,0.575-1.269,0.104-1.802,0.258c-0.605,0.082-0.967,0.406-1.802,0.257c-1.105,0.269-2.643,0.103-3.605,0.515
			c-2.464,0.281-5.554-0.063-5.919,2.317c0.313,1.402,2.451,0.981,4.118,1.029c0.723,1.681,2.089,2.716,3.603,3.602
			c0.003,0.684-0.097,1.471,0.258,1.803c1.558,0.272,1.979-0.595,3.088-0.773c0.56,1.5,1.643,2.477,2.575,3.603
			c0.858,0,0.877,0.838,1.801,0.772c0.726,0.132,1.155,0.562,1.286,1.287c1.345,0.45,1.946-1.576,2.574-0.257
			c-0.119,0.909-0.65,1.409-1.029,2.059c-0.471,0.645-0.535,1.695-1.287,2.059c-7.402,0.11-13.861-0.724-20.59-1.287
			c-0.654-0.976-1.048-2.214-1.287-3.603c-0.594-1.123-1.02-2.413-1.287-3.86c-1.204-2.227-1.833-5.031-2.832-7.465V5.162
			c-0.748-1.482-1.341-3.119-2.315-4.375c-0.487,0.057-0.569-0.291-1.029-0.258c0.184-0.699-1.214,0.184-1.031-0.516
			c-1.055-0.025-2.109-0.051-2.83,0.258c-3.94,0.18-7.538,0.699-11.067,1.287c-2.119-0.061-3.544,0.575-5.662,0.514
			c-1.653,0.494-3.929,0.363-5.147,1.287c-0.733,2.87,0.284,6.008,1.285,7.98c1.248,0.045,2.063-0.34,3.09-0.516
			c6.192,0.781,10.736-2.299,16.987-2.316c0.411,2.506,1.577,4.257,2.059,6.691c0.623,0.836,0.819,2.1,1.286,3.089
			c0.201,1.258,1.07,1.848,1.031,3.347c-0.938-0.265-1.502-0.9-2.574-1.029c-0.618,1.149-2.522,0.68-3.089,1.544
			c-0.266,1.81,0.38,2.708,0.771,3.86c0.973,5.979,3.718,10.182,3.604,17.245c-1.217,2.987-2.673,5.735-3.604,9.009
			c-0.787,3.415-1.983,6.424-2.574,10.037c0.144,1.945-0.165,3.438-0.256,5.148c0.241,1.902,0.272,4.017,0.514,5.92
			c0.94,1.721,1.455,3.863,2.832,5.146c0.914,1.831,2.742,2.75,3.86,4.376c1.114,0.172,1.383,1.19,2.574,1.287
			c0.408,0.879,1.77,0.804,2.316,1.544c1.172,0.115,1.912,0.662,2.831,1.03c0.921,0.452,2.262,0.483,2.831,1.286
			c0.396,0.891,0.229,2.348,0.258,3.604c-1.412,0.39-2.357,1.246-3.347,2.059c-0.058,0.201-0.007,0.509-0.257,0.516
			c-0.332,1.298-0.64,2.621-0.515,4.375c0.306,0.724,0.579,1.48,0.772,2.316c0.488,0.455,0.799,1.09,1.287,1.545
			c0.247,0.782,1.538,0.521,1.287,1.801c0.183,0.955-0.439,1.105-0.258,2.06c-3.127,0.733-5.501,2.22-7.979,3.603
			c-1.463,0.425-2.542,1.233-3.86,1.802c-0.655,0.289-1.255,0.633-1.802,1.029c-0.234,0.796-1.365,0.694-1.287,1.803
			c0.145,1.234,0.926,1.791,1.802,2.314c0.912,0.547,2.335,0.635,3.346,1.03c1.837,1.081,4.358,1.476,6.95,1.802h3.603
			c0.812-0.125,0.909,0.465,1.801,0.258h7.723c3.258-0.603,6.234-1.488,9.008-2.574c1.245-1.158,2.679-2.127,3.089-4.117
			c-0.807-2.283-3.445-2.732-5.661-3.604c-2.422-0.754-4.601-1.748-5.663-3.861c1.713-0.945,2.835-2.482,3.86-4.117
			c0.041-0.305-0.044-0.731,0.258-0.773c0.062-1.692-0.012-3.248-0.258-4.633c-0.81-0.82-0.992-2.268-1.802-3.088
			c-0.104-0.669-0.769-0.777-0.772-1.545c-0.327-0.213-1.469-0.901-0.773-1.287c4.354-0.193,7.081-2.014,10.295-3.346
			c2.312-2.492,4.541-5.068,6.692-7.722c0.657-3.72,1.808-6.944,2.316-10.81v-3.09c-0.644-3.13-0.767-6.781-1.801-9.522
			c-0.209-1.679-0.821-2.954-1.029-4.632c-0.452-1.523-1.235-2.712-1.545-4.376c0.076-0.411-0.101-0.884,0-1.287
			c0.232-0.928,0.304-2.244,0.516-3.089c0.411-1.646,0.582-3.256,1.029-4.891c0.394-1.439,1.025-2.828,1.287-4.375
			c0.335-1.984,0.268-3.873,0.258-6.178c-0.656-0.375-0.716-1.344-1.031-2.059c-0.6-0.086-1.107-0.264-1.286-0.771
			c-1.479-0.346-3.181-0.267-4.117-0.773c0.293-0.907,0.565-1.837,1.285-2.316c0.713,0.659,1.882,0.864,2.575,1.544
			c1.537-0.336,1.917,0.484,2.83,0.772c1.421-1.308,2.923,0.761,4.89,0.515c0.518,1.028-0.013,3.104,1.545,3.088
			c1.656,0.455,0.905-1.498,1.803-1.801c1.175-0.112,2.834,0.26,3.603-0.258c1.259,0.588,1.822,2.801,3.604,2.059
			C100.933,25.792,99.709,24.647,99.375,23.694z M40.177,3.875c-0.408,0.343-0.694,0.055-1.029,0.515
			c-1.036,0.177-1.47-0.246-2.317-0.257c-2.723,0.279-4.75,1.255-7.207,1.801c-0.936,0.522-2.291,0.627-3.345,1.03
			c-0.991,0.468-2.254,0.664-3.09,1.287c-0.93-0.442-0.761-1.985-0.772-3.347c6.675-0.102,12.35-1.206,18.273-2.059
			C40.694,3.301,40.415,3.674,40.177,3.875z M48.67,115.065c-0.729,0.268-1.072,0.268-1.802,0c0.213-1.073,1.698-0.877,2.316-1.543
			c0.25,0.006,0.2,0.313,0.258,0.514C49.668,114.863,48.594,114.389,48.67,115.065z M49.957,113.522
			c0.077-0.695,1.083-0.463,1.286-1.03C51.96,112.977,50.689,113.631,49.957,113.522z M53.303,116.352
			c-0.538,0.109-0.682-0.177-1.029-0.258C52.192,115.64,53.715,115.635,53.303,116.352z M83.932,5.162
			c-0.218,0.553-0.634,0.91-1.545,0.772C82.748,5.523,83.274,5.277,83.932,5.162z M67.974,11.34
			c-1.09,0.061-1.308-0.752-2.059-1.029C65.5,9.78,64.525,9.813,64.628,8.766c4.166-0.038,7.446-0.962,11.324-1.287
			C73.492,8.964,70.619,10.037,67.974,11.34z M56.649,27.811c5.252,0.411,10.723,0.606,15.701,1.287
			c-0.948,1.885-1.861,3.803-3.089,5.406c-3.487-0.287-7.138-0.412-10.553-0.773c-1.334-1.411-1.819-3.672-2.574-5.663
			C56.343,28.021,56.39,27.811,56.649,27.811z M59.738,43.512c0.468,0.991,0.664,2.254,1.287,3.089
			c0.183,1.19,0.521,2.226,1.029,3.089c0.04,1.419,0.559,2.358,0.773,3.604c0.442,0.93,0.492,2.253,1.028,3.088
			c0.359,2.387,1.565,3.928,1.803,6.436c-1.073-0.214-0.877-1.698-1.545-2.316c-0.232-0.969-0.553-1.85-1.029-2.574
			c-1.079-7.672-3.7-13.801-5.919-20.334c-0.302-0.041-0.217-0.469-0.258-0.771c0.416-0.072,0.443,0.242,0.772,0.258
			C58.159,39.429,59.051,41.368,59.738,43.512z M54.333,27.555c0.535,1.231,1.523,3.211,1.028,4.633
			c-1.145-1.086-1.367-3.094-2.058-4.633H54.333z M47.899,10.311c0.39,2.182,0.966,4.182,1.801,5.918
			c0.436,2.053,1.64,3.338,2.06,5.406c-1.732,0.359-1.357-1.389-2.316-1.802c-0.285-1.087-0.82-1.927-1.03-3.089
			c-0.601-0.771-0.646-2.1-1.287-2.832c-0.002-1.283-0.921-1.651-0.771-3.088C46.892,10.676,47.088,10.186,47.899,10.311z
			 M43.008,5.162c0.023-1.35,1.072-1.674,1.543-2.574c0.3-0.041,0.459,0.057,0.516,0.258C44.904,4.141,44.01,4.705,43.008,5.162z
			 M45.067,8.508c-0.727-1.115,0.597-2.676,1.545-2.06C46.83,7.869,46.102,8.342,45.067,8.508z M48.67,26.268
			c0.665,2.252,1.331,4.502,2.573,6.177c-1.112,0.759-2.629-0.279-3.86-0.257c-0.585-1.988-1.494-3.654-1.801-5.92H48.67z
			 M68.746,113.778c-1.522,1.053-4.104,1.043-6.178,1.545c-0.644,0.044-0.806-0.397-1.029-0.772
			c0.079-0.594-0.743-0.286-0.771-0.773c-0.955-0.182-1.105,0.439-2.06,0.258c0.148-1.654,1.255-2.348,1.544-3.86
			c0.595-0.521,1.375-0.855,1.544-1.802c0.187-0.787-0.263-0.938-0.257-1.545c-0.482-0.057-1.706-0.664-2.059,0
			c-0.581-0.682,0.213-2.178,0.257-3.088c-0.026-0.799,0.811-0.735,0.515-1.803c-0.112-1.174-1.548-1.025-2.317-1.543
			c0.061-0.799,0.913-0.804,1.545-1.029c0.292-0.566,0.859-0.856,1.029-1.545c-0.716-1.668-2.593-0.083-3.861,0
			c0.16-1.127,1.581-0.993,2.574-1.287c0.713-0.487,1.411-0.991,2.058-1.545c-0.274-0.582-0.78-0.935-1.544-1.029
			c0.701-0.672,1.828-0.918,2.831-1.287c0.364,0.744,1.284,1.793,1.544,2.832c0.172,0.687,0.434,0.935,0.773,1.544
			c0.354,0.638,0.487,2.202,0.257,3.089c-0.807,1.252-2.178,1.939-3.089,3.088C61.829,109.198,64.711,112.065,68.746,113.778z
			 M76.724,80.061c-0.806,0.587-1.307,1.356-2.059,2.059c-1.076,1.008-3.934,1.779-5.662,2.574c-7.863,0.4-13.028-1.9-18.273-4.118
			c-1.084-1.062-2.199-2.091-3.347-3.089c-0.81-1.764-1.984-3.162-2.574-5.147c-0.902-1.671-1.131-4.017-1.544-6.177v-3.604
			c0.314-2.174,1.124-3.852,1.544-5.92c1.074-1.414,1.084-3.893,2.316-5.149c0.237-1.563,0.526-3.076,1.287-4.117
			c0.293-1.424,1.071-2.359,1.545-3.604c0.232-3.493-1.169-5.353-1.287-8.493c1.021,0.522,2.646,0.442,3.604,1.029
			c1.293,4.282,2.897,8.255,4.118,12.612c0.461,0.996,0.67,2.247,1.028,3.346c0.5,0.873,0.368,2.379,1.031,3.088
			c0.336,2.409,1.479,4.011,1.801,6.436c0.798,1.518,1.399,3.232,2.831,4.117c2.015,0.354,4.855,1.4,6.435,0
			c0.158-1.701-0.733-2.356-1.544-3.088c0.1-2.075-0.818-3.13-1.287-4.634c-0.482-1.49-0.844-3.103-1.544-4.376
			c0.152-1.095-0.186-1.701-0.257-2.572c-1.577-4.771-3.418-9.281-4.892-14.156c2.751-0.006,5.069,0.422,7.722,0.514
			c-0.137,1.467-2.264,2.115-1.544,3.604c2.629,0.795,3.189-2.619,4.891-3.604c2.362,0.219,3.879-0.409,5.919-0.514
			c-0.52,3.598-1,7.235-1.286,11.067c0.431,3.343,1.87,5.68,2.573,8.75c0.76,3.017,1.005,6.547,1.287,10.038
			C79.287,71.983,78.354,76.37,76.724,80.061z M78.269,29.356c-0.399,1.318-0.405,3.027-0.771,4.376
			c-1.376,0.511-3.046,0.73-4.891,0.773c-0.579-0.768,0.714-1.383,0.772-2.316c0.608-0.592,0.823-1.579,1.286-2.316
			c0.091-0.338,0.453-0.405,0.516-0.773C76.201,29.194,77.647,28.864,78.269,29.356z M75.438,16.487
			c-1.896-0.85-3.577-1.913-4.375-3.859c2.097-0.736,3.748-1.915,5.919-2.574c0.691-0.682,2.038-0.709,2.574-1.545
			c1.318-0.14,1.648-1.268,2.831-1.544c-0.026-0.312,0.375-0.158,0,0c-0.331,1.041-1.19,1.554-1.802,2.316
			c-0.576,0.795-1.041,1.704-1.801,2.317C77.721,13.28,76.395,14.699,75.438,16.487z M83.416,20.606
			c-2.017-0.813-3.53-2.132-5.403-3.09c0.241-1.043,1.194-1.377,1.543-2.316c0.717-0.57,1.141-1.432,1.802-2.059
			c0.979-1.51,2.153-2.822,3.09-4.375c0.249,0.007,0.198,0.314,0.256,0.515C84.274,13.054,83.977,16.961,83.416,20.606z
			 M86.248,20.348c-0.117-3.205,0.695-5.481,0.515-8.75c0.299-0.043,0.458,0.056,0.515,0.256c0.391,3.127,1.227,5.809,1.544,9.009
			C87.793,20.862,87.277,20.348,86.248,20.348z M92.168,22.664c-0.162-2.756-1.186-4.648-1.286-7.465
			c0.218-0.047,0.241,0.102,0.256,0.258c1.296,2.481,2.893,4.658,4.118,7.207H92.168z M69.518,47.888
			c-1.893-0.295-1.746,1.793-0.515,2.06c0.253-0.348,0.688-0.515,1.03-0.772C70.073,48.535,69.629,48.378,69.518,47.888z
			 M54.076,56.896c1.418-1.219-0.157-2.61-0.516-3.089c-0.179-0.238-0.071-0.566-0.257-0.771c-0.353-0.391-0.947-0.832-1.286-0.771
			c-0.057-0.201-0.216-0.3-0.515-0.258c-0.08,0.606-0.895,0.479-0.772,1.287c-0.012,1.126,0.642,1.588,1.029,2.316
			C52.036,56.534,52.718,57.052,54.076,56.896z M73.637,58.955c-1.951,0.273-0.798,3.279,0.771,3.089
			c0.384-0.304,0.726-0.645,1.029-1.029C75.329,59.836,74.877,59.001,73.637,58.955z M52.788,66.419
			c-0.381,0.134-0.648,0.381-1.029,0.515v1.545c0.935,1.036,3.401,0.49,3.088-1.287C54.447,66.649,53.893,66.258,52.788,66.419z
			 M63.599,70.281c0.767-0.177,0.861-1.025,0.771-2.06C62.516,66.15,60.862,70.364,63.599,70.281z M47.125,70.795
			c0.417,0.441,1.077,0.639,2.06,0.515C51.237,69.313,46.538,67.237,47.125,70.795z M69.518,77.229
			c-0.321,1.873,1.126,2.743,2.574,2.06c0.058-0.199,0.008-0.507,0.258-0.515C72.442,77.091,70.652,76.197,69.518,77.229z
			 M51.759,76.973c-0.082,0.348-0.367,0.49-0.258,1.029h1.029C52.603,77.328,52.438,76.895,51.759,76.973z M57.42,79.545
			c-0.295,0.305-0.291,0.91-0.256,1.545c0.609,0.52,1.79,0.746,2.316,0C59.469,79.9,58.748,79.419,57.42,79.545z"/>
	</g>
</g>
<g>
</g>
<g>
</g>
<g>
</g>
<g>
</g>
<g>
</g>
<g>
</g>
<g>
</g>
<g>
</g>
<g>
</g>
<g>
</g>
<g>
</g>
<g>
</g>
<g>
</g>
<g>
</g>
<g>
</g>
</svg>
