<?xml version="1.0" encoding="UTF-8" standalone="no"?>
<!-- Generator: Adobe Illustrator 19.0.0, SVG Export Plug-In . SVG Version: 6.00 Build 0)  -->

<svg
   xmlns:dc="http://purl.org/dc/elements/1.1/"
   xmlns:cc="http://creativecommons.org/ns#"
   xmlns:rdf="http://www.w3.org/1999/02/22-rdf-syntax-ns#"
   xmlns:svg="http://www.w3.org/2000/svg"
   xmlns="http://www.w3.org/2000/svg"
   xmlns:sodipodi="http://sodipodi.sourceforge.net/DTD/sodipodi-0.dtd"
   xmlns:inkscape="http://www.inkscape.org/namespaces/inkscape"
   version="1.1"
   id="Capa_1"
   x="0px"
   y="0px"
   viewBox="0 0 114 114"
   style="enable-background:new 0 0 114 114;"
   xml:space="preserve"
   inkscape:version="0.91 r13725"
   sodipodi:docname="breakfast.svg"><metadata
     id="metadata42"><rdf:RDF><cc:Work
         rdf:about=""><dc:format>image/svg+xml</dc:format><dc:type
           rdf:resource="http://purl.org/dc/dcmitype/StillImage" /></cc:Work></rdf:RDF></metadata><defs
     id="defs40" /><sodipodi:namedview
     pagecolor="#ffffff"
     bordercolor="#666666"
     borderopacity="1"
     objecttolerance="10"
     gridtolerance="10"
     guidetolerance="10"
     inkscape:pageopacity="0"
     inkscape:pageshadow="2"
     inkscape:window-width="1280"
     inkscape:window-height="709"
     id="namedview38"
     showgrid="false"
     inkscape:zoom="2.0701754"
     inkscape:cx="52.517327"
     inkscape:cy="9.6528209"
     inkscape:window-x="0"
     inkscape:window-y="0"
     inkscape:window-maximized="1"
     inkscape:current-layer="g4" /><g
     id="_x30_202-croissant"><g
       id="g4"><path
         style="clip-rule:evenodd;fill-rule:evenodd"
         d="m 113.11,38.664 c -0.591,-0.758 -0.634,-2.062 -1.265,-2.78 -0.215,-1.218 -1.049,-1.817 -1.264,-3.034 -0.907,-0.778 -1.493,-1.878 -2.275,-2.781 -0.231,-1.453 -1.671,-1.699 -2.023,-3.033 0.286,-0.811 0.514,-1.677 0.506,-2.781 -0.357,-1.75 -0.896,-3.318 -1.012,-5.309 -0.832,-1.359 -0.715,-3.667 -1.517,-5.056 -0.518,-3.78 -2.154,-6.442 -3.539,-9.354 C 99.856,3.884 99.098,3.125 98.446,2.26 97.61,1.578 96.52,1.152 95.665,0.49 93.003,-0.273 89.603,0.031 86.564,0.238 84.607,1.65 83.48,3.893 82.52,6.304 c -1.423,1.948 -2.124,4.618 -2.528,7.585 0.363,3.851 0.999,7.427 2.023,10.618 -2.104,1.688 -3.598,3.984 -5.309,6.066 -0.6,1.339 -0.577,3.299 -1.517,4.298 -0.415,1.608 -1.154,2.891 -1.518,4.55 -0.306,1.212 -0.344,2.69 -0.506,4.046 -0.196,1.63 0.376,2.489 0.253,4.045 -1.974,0.217 -3.371,1.01 -5.562,1.011 -1.561,0.882 -3.413,1.475 -4.804,2.527 -1.586,0.943 -2.801,2.256 -4.297,3.287 -3.944,4.314 -7.197,9.32 -9.607,15.169 -2.625,0.324 -4.261,1.638 -6.573,2.275 -2.14,0.81 -4.529,1.368 -7.078,1.77 -2.293,-0.188 -3.923,0.291 -6.067,0.253 -0.299,0.459 -1.317,0.198 -1.769,0.505 -0.457,0.386 -0.774,0.911 -1.77,0.759 -1.415,-0.187 -2.053,-1.15 -3.792,-1.012 C 21.113,73.441 20.035,72.918 18.56,72.792 15.369,72.89 12.884,73.689 9.964,74.056 8.15,74.139 6.837,74.115 5.666,74.309 4.601,74.424 4.502,75.505 3.644,75.827 3.498,76.861 2.48,77.022 2.38,78.102 1.343,79.425 0.804,81.246 0.357,83.158 0.281,89.554 2.555,93.6 5.919,96.556 c 2.53,1.094 4.678,2.571 7.331,3.54 0.933,0.921 2.356,1.353 3.539,2.022 1.467,0.387 2.086,1.622 3.792,1.77 1.828,0.059 3.505,-0.035 4.804,-0.506 0.016,1.754 0.801,2.738 1.265,4.045 1.862,2.014 4.714,3.038 7.331,4.298 2.559,1.402 6.225,1.696 9.606,2.274 4.587,-0.216 9.562,-0.044 13.146,-1.264 0.043,-0.295 0.4,-0.274 0.759,-0.252 0.745,-0.857 2.028,-1.176 2.528,-2.276 0.937,-0.747 1.812,-1.558 2.781,-2.275 0.812,-0.872 1.312,-2.058 2.021,-3.033 1.464,1.654 3.139,3.098 5.056,4.298 1.967,0.562 4.117,0.939 6.826,0.758 0.676,-0.25 1.333,-0.521 2.274,-0.505 1.64,-1.058 3.561,-1.834 5.057,-3.033 1.706,-1.075 2.773,-2.79 4.551,-3.793 0.444,-0.903 1.791,-0.905 2.275,-1.77 1.032,-0.4 1.549,-1.315 2.527,-1.77 1.28,-1.501 2.729,-2.834 4.045,-4.298 4.943,-6.097 9.216,-12.863 11.124,-21.994 l 0,-3.286 c -0.272,-0.907 -0.636,-1.724 -0.758,-2.782 -0.751,-1.439 -1.863,-2.518 -2.529,-4.044 1.207,-0.31 2.333,-0.7 3.034,-1.517 1.427,-1.945 2.387,-4.355 3.792,-6.32 0.288,-2.24 1.235,-3.821 1.517,-6.068 0.095,-3.633 -0.026,-7.049 -0.503,-10.111 z M 25.385,92.765 c -0.168,1.516 0.229,2.467 0.253,3.791 -1.492,0.446 -2.729,1.147 -4.045,1.771 -0.927,-0.001 -1.854,0 -2.78,0 C 15.482,97.106 13.149,94.889 10.217,93.27 9.405,92.38 8.687,91.452 7.942,90.49 7.256,89.603 6.507,88.683 5.919,87.709 5.572,83.654 6.542,80.916 7.942,78.607 8.127,78.372 8.402,78.224 8.701,78.102 l 7.583,0 c 3.162,0.715 6.848,0.905 10.366,1.263 -0.437,4.451 -0.69,9.088 -1.265,13.4 z M 87.828,6.304 c 0.817,-0.278 1.509,-0.682 2.275,-1.011 1.987,0.372 3.779,0.938 6.32,0.758 3.745,4.85 4.6,12.591 6.32,19.467 -4.655,-1.245 -9.18,-2.618 -15.422,-2.276 -1.396,-3.07 -2.06,-6.872 -2.023,-11.376 0.568,-2.131 1.445,-3.95 2.53,-5.562 z M 59.514,99.338 c -1.1,3.029 -1.491,6.768 -3.792,8.595 -1.81542,1.38339 -1.884321,1.26655 -4.299,1.265 l -8.849,0 c -3.672,-0.794 -6.509,-2.423 -9.353,-4.045 -1.233,-2.391 -2.357,-4.889 -3.033,-7.838 -0.209,-6.36 0.223,-12.078 1.769,-16.685 3.814,-2.169 8.536,-3.43 14.663,-3.286 1.153,-0.279 2.439,-0.426 3.286,-1.012 0.332,-0.088 0.397,-0.444 0.759,-0.505 0.204,0.048 0.252,0.253 0.505,0.253 0.26,1.931 1.42,2.961 1.771,4.803 0.722,1.469 1.611,2.771 2.023,4.551 1.716,2.666 2.627,6.137 4.297,8.848 -0.175,1.943 0.428,3.11 0.253,5.056 z M 99.71,81.64 c -1.071,1.289 -2.081,2.639 -3.033,4.045 -4.213221,4.804556 -3.757169,5.739964 -9.606,9.861 -0.7,0.816 -1.867,1.166 -2.528,2.023 -1.81,1.223 -3.574,2.492 -5.562,3.539 -1.836,0.27 -3.439,0.774 -5.561,0.758 -0.595,0.007 -0.744,-0.435 -1.517,-0.252 -0.527,-0.399 -1.029,-0.824 -1.77,-1.012 -1.561,-1.811 -3.039,-3.702 -4.045,-6.067 -0.665,-1.021 -0.975,-2.396 -1.769,-3.286 -0.558,-1.045 -0.909,-2.293 -1.77,-3.033 -0.335,-1.352 -1.175,-2.197 -1.77,-3.287 -0.593,-1.008 -1.001,-2.202 -1.771,-3.033 -0.914,-2.373 -2.176,-4.396 -3.033,-6.826 0.107,-0.529 -0.174,-0.669 -0.253,-1.012 -0.081,-2.277 0.214,-4.933 -0.253,-6.825 0.069,-0.825 0.822,-1.511 1.264,-2.022 0.509,-0.59 0.925,-1.287 1.771,-1.518 0.92,-1.185 1.903,-2.308 2.78,-3.538 3.329,-2.235 5.881,-5.243 9.102,-7.585 1.346,-0.256 2.568,-0.634 3.792,-1.011 l 0.505,0 c 2.201,1.423 5.374,1.873 7.332,3.538 2.477,0.473 4.414,1.486 6.32,2.529 2.215,0.65 4.005,1.725 5.814,2.78 1.891,0.975 3.612,2.118 5.057,3.539 1.502,1.364 3.262,2.468 4.298,4.298 0.73,4.438131 1.07812,4.686799 -3.794,13.397 z m 9.355,-34.128 c -0.325,3.291 -1.872,5.845 -3.034,7.837 -1.03,0.402 -1.973,0.892 -3.033,1.264 -1.148,0.286 -2.646,0.221 -3.792,0.506 -1.57,-0.452 -2.573,-1.473 -4.045,-2.023 -1.327,-0.695 -2.728,-1.316 -4.046,-2.021 -1.432,-0.59 -3.075,-0.97 -4.298,-1.77 -0.912,-0.098 -1.686,-0.336 -2.274,-0.759 -0.913,-0.099 -1.688,-0.335 -2.275,-0.758 -0.845,0.001 -0.67,-1.017 -1.265,-1.265 -0.059,-0.782 -0.703,-0.982 -1.011,-1.517 -0.156,-0.688 -0.501,-1.185 -1.012,-1.517 -0.127,-0.631 -0.478,-1.039 -0.758,-1.517 0.125,-0.887 0.377,-1.646 0.253,-2.78 0.541,-2.577 2.007,-4.229 2.78,-6.573 1.588,-1.53 2.023,-4.213 3.793,-5.563 0.408,0.071 0.435,-0.238 0.758,-0.252 l 0.506,0 c -0.047,-0.216 0.099,-0.238 0.253,-0.253 3.048,0.399 4.972,0.359 8.09,0 2.759,0.505 5.372,1.079 7.584,2.022 0.113,0.049 -0.017,0.239 0.253,0.253 0.171,0.009 1.007,0.542 1.264,0.759 0.712,0.597 1.57,1.582 2.528,2.275 -0.041,0.293 0.056,0.449 0.253,0.505 1.781,3.126 3.002,8.338 2.528,13.147 z M 80.244,96.304 c -53.496,11.79733 -26.748,5.89867 0,0 z"
         id="path6"
         inkscape:connector-curvature="0"
         sodipodi:nodetypes="ccccccccccccccccccccccccccccccccccccccccccccccccccccccccccccccccccccccccccccccccccccccccccccccccccccccccccccccccccccccccccccccccccccccccccccccccccccccccccc" /></g></g><g
     id="g8" /><g
     id="g10" /><g
     id="g12" /><g
     id="g14" /><g
     id="g16" /><g
     id="g18" /><g
     id="g20" /><g
     id="g22" /><g
     id="g24" /><g
     id="g26" /><g
     id="g28" /><g
     id="g30" /><g
     id="g32" /><g
     id="g34" /><g
     id="g36" /></svg>