<?xml version="1.0" encoding="UTF-8" standalone="no"?>
<!-- Generator: Adobe Illustrator 19.0.0, SVG Export Plug-In . SVG Version: 6.00 Build 0)  -->

<svg
   xmlns:dc="http://purl.org/dc/elements/1.1/"
   xmlns:cc="http://creativecommons.org/ns#"
   xmlns:rdf="http://www.w3.org/1999/02/22-rdf-syntax-ns#"
   xmlns:svg="http://www.w3.org/2000/svg"
   xmlns="http://www.w3.org/2000/svg"
   xmlns:sodipodi="http://sodipodi.sourceforge.net/DTD/sodipodi-0.dtd"
   xmlns:inkscape="http://www.inkscape.org/namespaces/inkscape"
   version="1.1"
   id="Capa_1"
   x="0px"
   y="0px"
   viewBox="0 0 120 120"
   style="enable-background:new 0 0 120 120;"
   xml:space="preserve"
   inkscape:version="0.91 r13725"
   sodipodi:docname="fast-food.svg"><metadata
     id="metadata42"><rdf:RDF><cc:Work
         rdf:about=""><dc:format>image/svg+xml</dc:format><dc:type
           rdf:resource="http://purl.org/dc/dcmitype/StillImage" /></cc:Work></rdf:RDF></metadata><defs
     id="defs40" /><sodipodi:namedview
     pagecolor="#ffffff"
     bordercolor="#666666"
     borderopacity="1"
     objecttolerance="10"
     gridtolerance="10"
     guidetolerance="10"
     inkscape:pageopacity="0"
     inkscape:pageshadow="2"
     inkscape:window-width="1280"
     inkscape:window-height="709"
     id="namedview38"
     showgrid="false"
     inkscape:zoom="1.9666667"
     inkscape:cx="86.897643"
     inkscape:cy="40.729729"
     inkscape:window-x="0"
     inkscape:window-y="0"
     inkscape:window-maximized="1"
     inkscape:current-layer="g4" /><g
     id="_x30_502-fastfood"><g
       id="g4"><path
         style="clip-rule:evenodd;fill-rule:evenodd"
         d="m 119.98,53.196 c -0.021,-1.153 -1.03,-1.318 -1.644,-1.879 0.055,-0.915 -0.504,-1.218 -0.704,-1.878 -0.72,-0.298 -1.236,-0.8 -1.879,-1.175 -0.347,-0.122 -0.591,-0.348 -0.939,-0.47 -0.142,-0.405 -1.114,0.019 -1.173,-0.469 0.628,-4.459 1.807,-8.367 2.347,-12.914 0.404,-1.223 0.438,-3.587 -0.469,-4.226 -1.991,-0.607 -5.879,0.017 -7.514,-0.235 0.254,-1.859 0.805,-4.406 0.47,-6.103 -0.385,-0.556 -1.614,-0.265 -2.113,-0.704 -1.142,-0.147 -2.848,0.101 -3.288,0.233 -0.212,0.065 -0.485,-0.04 -0.704,0 -1.015,0.187 -1.975,0.684 -1.878,1.645 0.917,1.118 4.13,-0.061 5.4,0.704 -0.102,1.776 -0.877,2.881 -0.705,4.931 -0.348,0.044 -0.215,0.567 -0.235,0.939 -0.219,0.25 -0.866,0.072 -0.704,0.704 0.399,0.228 0.603,0.648 0.469,1.409 -0.488,2.094 -0.348,4.816 -0.704,7.044 -0.023,2.828 -0.146,4.476 0.235,7.043 0.17,0.718 -0.24,0.856 -0.235,1.409 -0.14,0.486 0.29,1.542 -0.234,1.644 -0.908,0.126 -1.146,-0.42 -2.113,-0.234 -1.025,-0.164 -1.044,0.678 -1.878,0.704 -0.361,0.813 -0.209,2.141 -0.235,3.287 -0.84,1.352 -1.48,2.902 -2.583,3.991 -1.017,1.173 -1.994,2.389 -3.521,3.052 -0.49,-2.864 -0.132,-5.698 0,-8.687 0.254,-5.771 -0.473,-11.635 -0.704,-17.141 -0.365,-0.834 0.798,-0.142 0.704,-0.704 0.514,-0.034 0.505,-0.592 0.47,-1.174 -0.115,-1.396 -1.64,-0.207 -1.644,-1.408 0.113,-1.6 -0.114,-2.859 -0.234,-4.227 0.167,-1.484 -0.256,-3.412 0,-4.226 1.899,-0.214 3.418,-0.808 5.4,-0.939 l 0,7.043 c -0.101,0.759 -1.531,0.19 -1.174,1.409 0.021,0.762 1.401,0.165 1.174,1.174 0.164,5.486 -0.239,10.404 -0.235,15.731 0.033,1.61 0.35,2.939 1.878,3.052 0.367,-0.338 0.818,-0.592 0.94,-1.174 0.505,-0.198 -0.089,-1.496 0.469,-1.644 -0.142,-7.059 0.292,-14.693 -0.235,-21.366 0.022,-2.136 0.062,-4.288 -0.469,-5.87 -0.868,-0.775 -2.517,-0.771 -4.227,-0.704 -1.408,0.313 -2.477,0.966 -3.756,1.408 C 91.819,19.918 91.387,18.08 91.101,16.097 88.05,15 84.021,14.88 79.83,14.923 c -0.661,0.277 -1.19,0.688 -1.644,1.175 -0.135,1.777 0.272,3.016 0.47,4.461 -0.15,0.944 0.306,2.496 -0.234,3.052 -3.298,-0.089 -6.272,0.146 -7.983,1.643 0.062,2.52 -0.18,5.346 0.235,7.514 -0.944,-0.23 -2.061,-0.288 -3.287,-0.234 -0.983,0.348 -2.301,0.359 -3.053,0.938 -0.624,0.003 -1.341,-0.089 -1.643,0.235 0.09,0.794 -1.039,0.369 -0.705,1.408 -0.775,0.867 1.102,1.08 0.939,2.113 -0.054,2.95 0.649,5.143 0.939,7.748 0.127,1.36 0.254,2.72 0.47,3.992 -0.166,0.87 0.401,1.008 0.235,1.878 -0.331,0.821 0.658,1.503 0,1.878 -1.017,-1.41 -2.14,-2.712 -3.288,-3.991 -0.798,-0.454 -1.6,-0.904 -2.113,-1.644 -3.376,-0.85 -5.573,-2.879 -9.157,-3.521 -0.619,-0.398 -1.34,-0.695 -2.348,-0.705 -0.635,-0.459 -1.558,-0.633 -2.583,-0.704 -1.555,-0.558 -3.616,-0.61 -5.4,-0.939 l -6.574,0 C 26.053,41.916 20.36,43.971 15.026,46.386 9.972,49.079 5.444,52.3 2.817,57.42 c -0.403,2.095 -0.403,5.059 0.704,6.341 1.822,1.073 5.041,0.751 7.513,1.174 l 3.757,0 c 6.281,0.248 13.413,0.786 19.723,0.234 10.601,-0.043 19.967,-1.321 30.759,-1.174 1.078,-0.217 1.134,0.588 2.113,0.47 0.713,-0.695 2.078,-0.74 2.112,-2.113 0.048,-1.848 -1.915,-1.684 -2.112,-3.287 2.546,0.174 5.436,-0.479 7.278,-0.234 0.343,0.909 0.357,2.147 0.704,3.052 2.069,3.489 4.835,6.279 9.627,7.044 l 3.757,0 c 5.871,-1.486 9.908,-4.805 12.913,-9.157 0.145,-0.872 0.559,-1.475 0.704,-2.349 0.458,-0.559 -0.142,-2.177 0.704,-2.347 1.349,0.217 2.614,0.517 3.992,0.704 l 6.809,0 c 0.822,0.33 1.503,-0.658 1.878,0 -2.371,5.378 -4.507,10.99 -5.87,17.375 -0.381,0.558 -0.456,1.422 -0.704,2.113 0,0.938 -0.469,1.408 -0.47,2.348 -0.403,1.553 -0.756,3.158 -0.938,4.931 -0.581,1.376 -0.443,3.472 -0.94,4.931 0.174,1.112 -0.264,1.614 -0.234,2.583 0.013,1.03 -0.095,1.94 -0.47,2.582 -10.538,-0.284 -19.245,1.263 -29.35,1.409 -0.499,-0.754 0.098,-2.602 -1.409,-2.348 -1.599,-0.19 -0.3,2.517 -1.878,2.348 -0.864,-1.327 0.718,-5.101 -1.173,-5.4 -2.216,0.211 -1.404,3.448 -1.644,5.636 -0.771,0.245 -1.923,0.111 -2.583,0.469 -0.52,-0.812 -0.79,-1.87 -1.174,-2.817 0.379,-0.559 0.844,-1.035 1.174,-1.644 0.68,-0.337 0.429,-1.605 1.174,-1.878 0.557,-1.4 1.555,-2.359 1.409,-4.462 -0.17,-1.474 -0.941,-2.347 -1.409,-3.521 1.365,-1.217 2.193,-2.973 1.878,-5.87 0.903,-0.818 2.001,-1.441 2.113,-3.052 0.202,-3.466 -3.637,-5.106 -6.34,-3.521 -0.243,-0.854 -0.924,-1.269 -1.643,-1.645 -3.471,0.286 -6.746,0.769 -9.862,1.409 -7.545,-0.047 -14.381,-0.803 -21.601,-1.174 -7.316,0.668 -16.166,-0.2 -23.479,0.47 -2.495,0.009 -5.374,-0.365 -5.635,1.878 -0.286,1.303 1.053,0.981 1.174,1.879 -3.01,1.135 -5.413,2.879 -5.868,6.572 0.315,0.154 0.437,0.501 0.469,0.938 0.612,0.508 1.804,0.798 2.583,0.47 0.216,0.802 0.549,1.486 0.94,2.113 0.742,-0.039 0.784,0.624 1.643,0.47 0.104,0.679 1.774,-0.208 1.878,0.47 -3.098,-0.202 -4.244,1.548 -5.4,3.287 -0.301,2.257 0.5,3.412 0.469,5.4 0.483,0.064 0.221,0.874 0.704,0.939 0.096,0.451 0.911,0.186 0.705,0.938 -0.925,1.245 -1.41,3.492 -1.174,5.4 0.225,1.824 1.353,3.067 2.113,3.991 7.403,2.85 18.742,1.764 27.47,3.287 l 7.279,0 c 3.601,-0.625 7.427,-1.024 11.036,-1.643 0.967,-0.186 1.205,0.36 2.113,0.234 4.043,-0.336 8.375,0.912 11.74,-0.234 0.368,-0.57 0.875,-1.004 0.704,-2.113 1.477,-0.715 2.303,-2.08 3.052,-3.522 1.418,-0.087 2.595,0.065 3.756,0.235 l 4.931,0 c 7.754,0.613 15.135,-1.13 23.244,-0.939 0.742,0.114 0.83,-0.424 1.645,-0.235 2.768,-0.205 6.575,0.627 7.982,-0.938 -0.115,-0.741 0.423,-0.83 0.235,-1.644 -0.297,-0.407 -0.794,-0.615 -0.704,-1.409 1.337,-2.498 2.067,-5.602 2.582,-8.923 0.554,-0.385 0.2,-1.679 0.704,-2.112 -0.007,-1.025 0.205,-1.831 0.47,-2.583 0,-0.938 0.469,-1.409 0.47,-2.349 0.277,-0.739 0.264,-1.771 0.704,-2.348 1.177,-6.57 3.699,-11.797 4.226,-19.019 0.585,-0.667 1.586,-0.919 1.411,-2.344 z M 35.923,45.681 c -0.04,0.68 -1.509,1.137 -1.409,0 z m 28.646,14.792 -6.81,0 C 42.798,61.512 26.93,62.358 11.27,61.412 l -3.287,0 C 7.503,61.193 6.425,61.59 5.87,60.943 5.824,57.454 7.912,56.097 9.626,54.369 c 1.559,-1.807 3.831,-2.899 5.87,-4.227 4.415,-2.394 9.567,-4.051 16.2,-4.227 1.083,-0.143 0.838,1.041 1.409,1.409 0.562,0.299 0.865,0.856 1.878,0.704 1.507,0.1 2.22,-0.598 2.582,-1.644 0.132,-0.338 0.366,-0.573 0.704,-0.705 2.069,0.358 4.496,0.357 6.34,0.94 1.891,0.456 3.692,1.003 5.4,1.643 1.832,0.595 3.392,1.461 5.166,2.113 1.453,0.895 2.932,1.764 4.696,2.348 0.958,1.233 1.886,2.498 2.583,3.992 0.555,0.54 0.751,1.44 1.173,2.113 0.395,0.453 1.365,1.104 0.942,1.645 z m 3.051,-4.931 c -0.042,-3.636 -0.857,-6.499 -0.938,-10.095 -0.514,-0.426 -0.04,-1.84 -0.47,-2.349 -0.192,-0.747 -0.15,-1.729 -0.47,-2.348 -0.057,-1.604 -0.521,-2.899 -1.173,-4.227 1.644,-1.017 4.377,-0.944 5.87,-2.113 0.2,-0.043 0.222,0.092 0.235,0.235 0.428,6.537 -0.043,13.973 0.469,20.427 -0.957,0.375 -2.122,0.542 -3.523,0.47 z m 14.089,7.28 C 79.74,61.895 79.228,59.511 77.717,58.126 77.689,57.45 77.845,56.589 77.482,56.248 76.846,55.555 75.525,55.543 74.431,55.31 74.324,52.52 74.674,49.275 74.196,46.857 l 0,-6.104 c -0.304,-2.279 -0.284,-4.883 -0.47,-7.279 -0.26,-0.992 -0.271,-2.233 -0.235,-3.523 -0.075,-0.55 -0.371,-0.881 -0.234,-1.643 0.139,-0.486 -0.291,-1.543 0.234,-1.643 1.481,-0.399 3.574,-0.184 5.4,-0.235 0.971,4.899 1.071,10.669 1.409,16.201 0.739,5.053 0.284,11.299 1.644,15.731 -0.248,1.316 -0.279,2.851 -0.235,4.46 z m 2.817,1.643 C 83.959,56.658 83.87,48.371 83.587,40.282 83.053,32.442 82.376,24.744 80.77,17.976 l 0,-0.704 c 2.573,0.637 5.332,1.085 8.452,1.173 -1.135,15.817 1.789,29.484 2.113,44.612 -1.599,1.14 -4.189,2.01 -6.809,1.408 z m 26.061,-26.767 c 0.831,0.412 1.21,-0.789 1.409,-0.235 -0.492,4.908 -2.306,8.495 -2.113,14.088 -1.144,-0.107 -2.75,0.246 -3.521,-0.234 l 0,-3.991 c 1.258,-4.299 0.71,-10.404 1.644,-15.027 1.883,0.253 3.393,-0.313 5.165,0.235 -0.197,1.525 -0.521,2.922 -0.939,4.227 -0.5,-0.44 -0.519,-1.361 -1.645,-1.175 -0.337,0.131 -0.572,0.366 -0.704,0.704 -0.203,0.908 0.574,0.834 0.704,1.408 z m 2.114,13.853 c -0.005,-0.553 0.405,-0.691 0.235,-1.408 0.958,0.138 1.677,0.515 1.878,1.408 z M 4.931,87.475 c -0.648,-0.306 -0.47,-1.27 -0.235,-1.878 0.529,0.175 0.092,1.316 0.235,1.878 z m 0.939,5.4 c -0.1,-0.491 0.16,-0.621 0.235,-0.939 0.68,0.043 0.565,1.116 -0.235,0.939 z m 1.408,-3.521 c 0.413,-1.043 1.174,0.592 1.878,0.704 -0.763,0.823 -1.341,-0.525 -1.878,-0.704 z m 55.646,11.504 c -2.677,-0.016 -4.919,0.403 -7.748,0.235 -1.084,-0.481 -2.763,-0.366 -3.992,-0.705 -4.738,0.271 -8.783,1.235 -13.618,1.409 -1.194,0.1 -0.325,-1.867 -1.643,-1.643 -1.284,-0.268 -0.89,1.145 -1.409,1.643 l -1.878,0 c -0.08,-1.797 0.107,-3.863 -1.173,-4.461 -1.787,0.17 -1.148,2.766 -1.645,4.227 -0.273,-0.432 -1.531,0.124 -1.174,-0.939 0.137,-0.763 -0.159,-1.092 -0.234,-1.644 -0.14,-0.486 0.289,-1.542 -0.235,-1.644 0.248,-0.873 -0.792,-0.46 -0.939,-0.938 -1.688,0.348 -1.395,2.675 -1.409,4.695 l -2.113,0 c -0.483,-0.691 0.049,-2.397 -0.94,-2.583 -1.694,-0.285 -1.456,1.361 -1.878,2.348 -0.961,0.102 -1.503,-0.217 -2.113,-0.47 -0.131,-1.434 0.422,-3.552 -0.704,-3.99 -1.378,-0.283 -1.604,0.587 -1.878,1.408 -0.15,0.867 0.304,2.339 -0.235,2.817 -1.614,0.206 -0.692,-2.125 -1.408,-2.817 -0.002,-1.329 -0.014,-2.647 -0.939,-3.053 -1.381,-0.05 -1.395,1.267 -1.409,2.583 -0.296,1.165 0.551,2.859 -0.234,3.052 -1.257,0.163 -0.591,-1.601 -1.174,-2.112 C 10.727,96.785 11.157,94.79 9.863,94.518 8.221,94.677 8.471,96.727 8.454,98.51 7.752,97.334 8.045,95.162 7.985,93.345 c 2.08,-0.659 5.262,-0.216 7.513,-0.705 0.319,0.698 1.622,0.413 2.582,0.47 1.119,0.023 1.114,-1.077 2.113,-1.174 0.982,0.113 1.822,0.37 2.583,0.704 2.861,-0.121 5.344,0.135 7.983,0.235 2.67,-0.54 5.858,-0.559 8.687,-0.939 0.896,-0.199 1.493,-0.698 2.349,-0.939 0.845,-0.062 1.132,0.434 1.878,0.471 0.438,-0.033 0.785,-0.155 0.94,-0.471 0.338,0.125 0.573,-0.915 0.704,-0.234 0.995,-0.056 1.193,0.685 1.879,0.939 0.81,-0.286 1.37,-0.821 2.112,-1.174 0.678,-0.34 1.394,-0.643 1.878,-1.174 0.79,-0.086 0.392,1.018 0.704,1.408 0.418,0.13 0.976,0.121 1.175,0.47 l 1.878,0 c 2.634,0.965 6.122,1.077 9.391,1.408 0.223,1.657 0.837,2.92 0.939,4.696 -0.332,1.625 -1.212,2.701 -2.349,3.522 z M 20.661,85.362 c 0.251,-0.532 0.713,-0.853 1.409,-0.939 -0.088,0.698 -0.7,1.578 -1.409,0.939 z m 0.235,4.226 c -0.512,0.042 -0.747,-0.192 -0.704,-0.705 0.512,-0.042 0.747,0.193 0.704,0.705 z m 0.47,-6.809 c -0.554,0.072 -0.438,0.815 -1.174,0.705 -0.479,0.695 -1.73,0.618 -2.347,1.174 -1.804,0.623 -3.399,1.453 -5.165,2.112 -1.437,-0.911 -1.625,-3.071 -2.583,-4.461 -0.012,-1.028 0.127,-1.908 0.705,-2.347 0.677,-0.683 0.555,0.636 1.174,0.704 0.069,0.633 0.987,0.421 1.173,0.939 2.971,0.311 4.088,-1.234 5.635,-2.349 0.392,0.313 0.365,1.044 0.705,1.409 0.414,0.212 0.727,0.524 0.939,0.939 0.413,0.135 1.379,-0.284 1.408,0.234 0.434,0.416 -0.061,0.729 -0.47,0.941 z m -3.991,7.513 -0.705,0 c 0.125,-0.188 0.245,-0.381 0.234,-0.704 0.502,-0.109 0.448,0.336 0.471,0.704 z m -2.349,-2.347 c -0.044,0.267 -0.235,0.131 -0.235,0 0.045,-0.267 0.236,-0.13 0.235,0 z m -2.347,0.938 c -0.933,0.703 -1.872,-0.21 -1.644,-1.408 0.424,0.594 1.443,0.593 1.644,1.408 z m 9.862,0.94 c 0.187,-0.528 1.573,-0.773 1.408,0.235 -0.579,0.031 -1.132,0.035 -1.408,-0.235 z m 3.99,-6.339 c -0.029,-0.599 -0.341,-0.911 -0.938,-0.939 0.044,-0.973 1.24,-0.795 1.408,-1.644 1.041,1.186 0.044,3.174 -0.47,4.227 -0.672,-0.336 0.638,-1.274 0,-1.644 z m 6.81,0 c -0.729,-0.29 -1.518,-0.517 -1.644,-1.409 1.113,-0.173 1.614,0.265 2.583,0.234 0.192,0.897 -1.132,0.277 -0.939,1.175 z m 1.878,6.574 -1.174,0 c 0.088,-0.629 1.249,-1.101 1.174,0 z m 21.366,-7.279 c -0.873,1.005 -2.413,1.343 -3.288,2.349 -1.345,0.533 -2.384,1.371 -3.521,2.113 -1.281,0.52 -2.04,1.561 -3.288,2.113 -2.487,-0.487 -3.794,-2.154 -5.87,-3.053 -0.842,-0.645 -1.35,-1.623 -2.583,-1.879 -0.716,-0.692 -1.177,-1.641 -1.878,-2.348 0.545,-0.784 1.746,-0.914 2.347,-1.643 0.689,0.017 0.872,0.537 1.174,0.939 0.352,0.275 0.96,0.292 1.174,0.704 3.569,0.771 6.707,-0.551 8.218,-2.582 0.903,0.27 1.326,1.021 2.112,1.408 0.333,-0.021 0.666,-0.039 0.704,0.234 3.092,0.274 4.658,-0.979 5.636,-2.817 0.936,-0.074 0.636,1.087 1.41,1.175 0.37,0.411 1.077,0.486 1.173,1.174 -1.164,0.712 -2.153,1.602 -3.52,2.113 z m 3.992,6.339 c -0.372,0.582 -1.643,0.096 -2.113,0 -0.066,-0.795 -0.374,-1.349 -0.235,-2.349 1.721,-0.154 0.399,2.732 2.348,2.349 z M 40.854,88.179 c -0.214,0.491 -0.693,0.716 -1.409,0.704 -0.271,-0.277 -0.266,-0.829 -0.234,-1.408 0.909,-0.127 0.967,0.598 1.643,0.704 z m -3.287,-2.113 0,0.47 -0.469,0 0,-0.47 z m 23.01,-2.114 c 0.266,-1.142 1.739,-1.078 2.347,-1.878 0.4,-0.086 0.443,0.184 0.47,0.47 -0.396,0.386 -0.291,1.273 -0.704,1.644 -0.735,-0.048 -1.723,0.158 -2.113,-0.236 z m 1.173,-5.165 c -0.17,-0.533 -0.706,-0.701 -1.173,-0.938 -0.634,-1.167 -1.393,-2.208 -2.113,-3.288 -1.909,-0.344 -1.986,1.146 -3.053,1.644 -0.66,0.827 -1.251,1.723 -2.582,1.878 -0.55,-0.467 -1.539,-0.495 -1.409,-1.643 -0.487,-0.061 -0.064,-1.032 -0.469,-1.174 0.072,-0.541 -0.678,-0.262 -0.705,-0.705 -1.38,0.106 -1.623,1.351 -2.113,2.348 -1.769,1.148 -4.448,3.721 -7.043,1.879 -0.455,-0.828 0.11,-1.05 0.235,-1.879 -0.173,-0.688 -0.713,-1.009 -1.175,-1.408 -0.687,0.096 -0.95,0.613 -1.408,0.939 -0.378,0.326 -0.743,0.665 -1.174,0.939 -0.614,0.872 -1.76,1.214 -2.582,1.878 -1.801,0.156 -3.174,-0.112 -3.992,-0.939 -0.312,-0.705 -0.239,-1.796 -0.235,-2.817 -2.873,1.354 -4.836,3.616 -9.157,3.521 -0.213,-0.412 -0.864,-0.388 -0.94,-0.939 -0.078,-0.547 -0.24,-1.012 -0.704,-1.174 -2.002,0.581 -3.292,1.875 -6.104,1.645 -0.593,-0.688 -0.815,-1.525 -0.47,-2.582 -0.923,0.016 -1.296,0.581 -1.878,0.938 -0.559,0.303 -1.12,0.602 -1.644,0.94 -1.201,0.263 -2.641,1.354 -3.991,0.704 -0.157,-1.644 1.41,-1.564 1.408,-3.053 -0.574,-0.482 -1.545,0.637 -2.348,0.704 -0.62,0.358 -2.114,0.839 -2.583,0 -0.623,-0.74 0.434,-1.304 0.704,-1.878 0.657,-0.36 1.325,-0.711 1.879,-1.174 1.464,-0.57 3.166,-0.904 4.226,-1.879 1.007,-0.011 1.782,-0.252 2.348,-0.704 6.604,-0.188 13.048,1.032 19.723,0.47 1.771,-0.15 5.02,-0.371 7.513,-0.234 0.916,0.258 2.187,0.161 3.053,0.469 5.177,-0.168 9.256,0.762 14.557,0.471 2.706,-0.582 5.48,-1.095 8.687,-1.175 0.21,-0.183 0.53,-0.252 0.939,-0.235 0.132,-0.338 0.367,-0.572 0.705,-0.703 1.58,0.297 3.781,-0.025 3.991,1.643 -0.244,1.419 -1.461,1.068 -2.818,0.939 -0.403,0.575 0.644,1.27 0.705,2.113 l 0,2.817 c -0.273,0.473 -0.997,1.692 -1.878,2.113 -0.361,0.173 -0.721,-0.045 -0.94,0.235 -1.618,0.051 -2.622,-0.51 -3.992,-0.706 z m 4.932,2.819 c 0.413,0.056 0.535,0.404 0.469,0.938 -0.544,0.075 -0.901,-0.038 -1.174,-0.235 -0.072,-0.541 0.678,-0.26 0.705,-0.703 z m 0,4.929 c -0.018,-1.19 0.83,-1.518 0.938,-2.583 0.587,0.832 0.002,2.499 -0.938,2.583 z M 84.761,21.733 c 0.564,0.219 0.622,0.943 1.643,0.704 0.23,-0.24 0.464,-0.476 0.704,-0.704 0.154,-1.014 -0.405,-1.316 -0.704,-1.879 -1.43,-0.257 -1.737,0.611 -1.643,1.879 z m -1.879,0 c -0.013,0.143 -0.035,0.277 -0.235,0.234 l 0,0.47 0.47,0 c 0.263,-0.339 0.254,-0.573 -0.235,-0.704 z m 1.644,5.634 c 0.953,0.093 1.636,-0.086 1.644,-0.94 -0.285,-1.755 -2.789,-0.568 -1.644,0.94 z m 8.922,0 c 0.302,0.402 0.485,0.924 1.174,0.939 0.802,-0.139 1.11,-0.768 0.939,-1.879 -0.861,-0.62 -2.243,-0.578 -2.113,0.94 z M 77.952,27.133 c -2.147,-1.344 -3.329,2.307 -0.704,2.112 0.748,-0.321 1.156,-1.242 0.704,-2.112 z m -1.643,3.522 c -2.414,-0.717 -2.166,2.324 -1.174,3.053 l 1.409,0 c 0.55,-0.389 0.508,-1.37 0.469,-2.349 -0.339,-0.131 -0.574,-0.367 -0.704,-0.704 z m 1.408,6.574 c 0.642,0.459 1.001,0.459 1.643,0 0.424,-1.803 -2.007,-1.737 -1.643,0 z m -35.924,9.627 c -1.371,0.35 -2.367,1.076 -2.583,2.583 0.264,0.675 0.493,1.384 0.938,1.878 0.664,-0.193 0.609,0.331 1.175,0.234 2.165,-0.072 3.318,-2.143 2.347,-3.992 -0.66,-0.199 -0.962,-0.757 -1.877,-0.703 z m -0.704,2.583 c 0.214,-0.412 0.435,-0.816 1.173,-0.705 0.018,0.704 -0.689,1.191 -1.173,0.705 z m -20.897,0 c -1.406,0.981 -1.972,3.938 0.235,4.46 1.275,-0.445 2.548,-0.895 3.287,-1.878 0.073,-0.854 -0.038,-1.527 -0.235,-2.113 -0.932,-0.621 -1.945,-0.797 -3.287,-0.469 z m 0,1.408 c 0.381,-0.353 1.732,-0.353 2.113,0 -0.066,1.14 -2.046,1.14 -2.113,0 z m 9.862,0 c -0.062,0.076 -0.384,-0.057 -0.469,0 -0.649,0.431 -0.555,1.326 -1.174,1.644 -0.16,2.115 0.312,3.602 1.878,3.992 0.648,0.1 0.22,-0.876 0.704,-0.94 1.838,0.116 2.485,-0.958 3.288,-1.878 0.046,-0.906 0.008,-1.73 -0.235,-2.348 -0.741,-0.781 -3.19,-1.452 -3.992,-0.47 z m -0.47,2.582 c 0.096,-0.565 -0.43,-0.51 -0.235,-1.173 0.683,-0.62 3.163,-0.811 3.522,0.234 -0.044,1.37 -2.169,1.36 -3.287,0.939 z m 24.418,-1.644 c -0.434,1.719 1.489,2.401 2.349,1.41 0.047,-1.451 -1.372,-2.322 -2.349,-1.41 z m -7.748,2.114 c -0.376,2.215 1.853,2.59 2.818,2.349 0.313,-0.078 0.699,-0.056 0.938,-0.235 0.194,-0.145 0.084,-0.503 0.235,-0.703 0.076,-0.102 0.426,-0.102 0.47,-0.235 0.261,-0.789 -0.056,-1.539 -0.235,-2.583 -1.471,-1.226 -3.976,-0.527 -4.226,1.407 z m 1.409,0.235 c -0.274,-0.963 1.633,-0.944 1.643,-0.235 0.038,0.91 -1.409,0.836 -1.643,0.235 z M 14.557,52.96 c -1.786,-0.221 -2.696,0.434 -2.817,1.878 0.456,1.03 0.824,2.15 2.348,2.113 1.254,-0.077 1.514,-1.147 1.878,-2.113 -0.389,-0.706 -0.674,-1.516 -1.409,-1.878 z m -1.409,1.409 c 0.371,0.02 0.896,-0.113 0.939,0.234 0.257,0.825 -1.439,0.63 -0.939,-0.234 z m 27.706,1.878 c -0.03,0.579 -0.035,1.132 0.235,1.408 0.579,0.032 1.131,0.036 1.408,-0.235 0.17,-0.716 -0.24,-0.854 -0.235,-1.408 -0.578,-0.03 -1.131,-0.035 -1.408,0.235 z m 17.61,0.236 c -0.598,0.028 -0.911,0.341 -0.94,0.938 0.215,0.412 0.437,0.816 1.174,0.705 0.271,-0.277 0.266,-0.83 0.235,-1.408 -0.182,-0.054 -0.464,-0.008 -0.469,-0.235 z"
         id="path6"
         inkscape:connector-curvature="0"
         sodipodi:nodetypes="cccccccccccccccccccccccccccccccccccccccccccccccccccccccccccccccccccccccccccccccccccccccccccccccccccccccccccccccccccccccccccccccccccccccccccccccccccccccccccccccccccccccccccccccccccccccccccccccccccccccccccccccccccccccccccccccccccccccccccccccccccccccccccccccccccccccccccccccccccccccccccccccccccccccccccccccccccccccccccccccccccccccccccccccccccccccccccccccccccccccccccccccccccccccccccccccccccccccccccccccccccccccccccccccccccccccccccccccccccccccccccccccccccccccccccccccccccccccccccccccccccccccccccccc" /></g></g><g
     id="g8" /><g
     id="g10" /><g
     id="g12" /><g
     id="g14" /><g
     id="g16" /><g
     id="g18" /><g
     id="g20" /><g
     id="g22" /><g
     id="g24" /><g
     id="g26" /><g
     id="g28" /><g
     id="g30" /><g
     id="g32" /><g
     id="g34" /><g
     id="g36" /></svg>