<?xml version="1.0" encoding="iso-8859-1"?>
<!-- Generator: Adobe Illustrator 19.0.0, SVG Export Plug-In . SVG Version: 6.00 Build 0)  -->
<svg version="1.1" id="Capa_1" xmlns="http://www.w3.org/2000/svg" xmlns:xlink="http://www.w3.org/1999/xlink" x="0px" y="0px"
	 viewBox="0 0 120 120" style="enable-background:new 0 0 120 120;" xml:space="preserve">
<g id="_x30_306-meat">
	<g>
		<path style="fill-rule:evenodd;clip-rule:evenodd;" d="M120,69.568c-0.116-1.699-0.399-3.229-0.474-4.969
			c-0.676-1.217-1.048-2.736-1.419-4.259c-0.036-1.698,0.141-3.611-0.237-4.969c-1.117-4.166-2.668-7.9-4.496-11.356
			c-0.689-2.622-1.582-5.042-2.602-7.335c-1.557-2.07-2.811-4.444-4.732-6.15c-0.883-0.932-1.563-2.065-2.839-2.604
			c-1.177-0.637-1.807-1.822-3.076-2.366c-1.54-1.851-3.165-3.617-4.968-5.204c-0.869-0.235-1.337-0.872-2.367-0.946
			c-0.886-0.219-1.244-0.965-2.129-1.184c-1.102-1.105-2.775-1.641-4.021-2.603c-2.303-0.379-3.917-1.446-6.152-1.893
			c-0.302,0.014-0.329,0.305-0.711,0.237c-7.544,1.523-13.594,5.159-18.691,9.227c-5.192,4.145-9.639,9.228-12.539,15.615
			c-1.176,1.899-2.05,4.101-3.076,6.151c-0.337,0.452-0.55,1.027-0.71,1.656c-0.41,0.379-0.693,0.885-0.946,1.42
			c-0.427,1.151-1.254,1.9-1.42,3.312c-1.99,1.875-2.953,4.775-5.204,6.389c-1.951,1.993-3.476,4.412-5.679,6.152
			c-3.046,1.843-5.788,3.989-9.463,5.204c-1.593,0.233-2.786-0.589-4.023,0c-3.012-2.35-8.746-4.407-13.723-2.601
			c-1.008,0.647-1.976,1.336-2.839,2.129c-0.49,0.929-0.844,1.995-1.42,2.839c-0.178,2.702,0.207,4.841,0.71,6.861
			c0.933,1.354,1.64,2.934,2.84,4.022c0.903,1.384,2.437,2.137,3.549,3.312c1,0.262,1.502,1.021,2.603,1.183
			c0.547,0.714,1.962,0.562,2.602,1.183c-0.99,2.481-1.304,5.637-1.183,9.229c0.659-0.107-0.186,1.289,0.474,1.182
			c-0.173,0.725,0.408,0.697,0.236,1.42c1.411,2.533,3.28,4.606,5.915,5.915c1.749,0.519,4.627,0.701,6.624,0.237
			c3.186-1.311,5.464-3.527,7.098-6.388c1.951-2.625,3.028-6.121,4.259-9.465c0.905-1.146,1.681-2.419,2.602-3.55
			c2.554-0.758,4.34-2.284,6.625-3.312c8.241-0.888,18.087-0.604,25.315,0.946c7.459,1.609,14.168,3.973,22.95,4.258
			c3.732-0.209,6.851-1.035,10.41-1.419c1.191-0.78,2.628-1.315,4.022-1.893c0.991-1.059,2.47-1.631,3.548-2.603
			c2.197-1.826,4.252-3.794,6.152-5.915c0.788-1.735,1.87-3.179,2.366-5.205C119.659,70.647,119.856,70.134,120,69.568z
			 M34.35,81.635c-0.844,0.573-1.468,1.369-2.128,2.129c-0.522,2.158-1.073,4.29-1.657,6.388c-1.28,1.401-1.686,3.677-2.839,5.206
			c-0.774,1.906-2.13,3.231-3.313,4.731c-0.79,0.155-1.156,0.735-1.892,0.946c-1.725,0.227-2.713-0.283-3.786-0.711
			c-0.93-1.197-1.608-2.649-2.129-4.258c-0.179-1.678,0.295-2.703,0.237-4.259c0.536-0.883,0.958-1.882,1.183-3.076
			c-0.178-0.888,0.904-0.516,0.946-1.183c0.653-0.057,0.54-0.88,0.946-1.183c-0.019-2.404,0.568-4.852-1.183-5.915
			c-1.631,0.102-1.657,1.812-3.075,2.129c-0.175-0.421-0.432-0.033-0.711,0h-3.312c-0.451-0.338-1.028-0.549-1.657-0.709
			c-0.187-0.523-0.827-0.593-1.183-0.947c-0.844-0.574-1.469-1.37-2.129-2.13c-0.37-1.601-0.945-2.997-1.183-4.731
			c0.496-1.555,1.506-2.595,2.839-3.312c1.189-0.084,2.063,0.146,2.839,0.474c1.642,0.645,3.232,1.343,4.496,2.366
			c1.557,0.729,2.453,2.121,4.258,2.603c1.443,0.26,1.958-0.409,2.839-0.71c0.861-0.242,1.464-0.745,2.366-0.946
			c1.446-0.764,2.425-1.992,4.023-2.603c0.041,1.536,0.59,2.564,1.182,3.549c1.318,0.812,4.082,0.178,5.679,0.71
			c0.193,0.988,0.461,1.904,0.473,3.075C36.093,80.38,34.803,80.587,34.35,81.635z M83.327,81.871
			c-0.382-1.433-0.452-3.177-2.129-3.312c-0.702,0.086-1.168,0.41-1.42,0.946c-0.509,0.2,0.089,1.508-0.473,1.655
			c-1.676-0.137-1.323-2.305-1.893-3.548c-0.082-1.653-0.368-3.104-1.657-3.55c-2.68,0.295-0.837,4.204-0.945,6.151
			c-1.033-0.149-1.973-0.394-2.84-0.709c-0.507-1.859-1.034-3.698-1.419-5.679c-1-1.288-0.813-3.762-3.076-3.785
			c-0.903,0.121-1.206,0.844-1.183,1.893c0.016,0.931,0.114,1.777,0.473,2.365c-0.115,1.738,1.055,3.298,0.71,4.495
			c-1.033,0.167-1.333-0.402-2.366-0.235c-0.331-2.508-1.208-4.47-1.893-6.625c-1.156-1.684-1.307-4.37-3.785-4.732
			c-1.085-0.138-1.103,0.789-1.656,1.184c0.691,3.566,2.46,6.056,2.839,9.937h-2.603c-0.431-2.093-0.923-4.124-1.893-5.678
			c-0.924-1.234-2.106-3.375-4.022-2.839c-0.77,0.271-0.836,1.389-0.236,1.893c-0.203,0.755,0.372,0.731,0.473,1.182
			c0.328,0.146,0.036,0.911,0.474,0.947c0.568,1.483,1.151,2.948,1.656,4.495c-0.819,0.364-2.156,0.209-3.311,0.237
			c-0.249-1.646-0.799-2.987-1.183-4.496c-0.914-0.9-0.928-2.7-2.367-3.076c-1.39,0.103-1.35,2.383-0.946,3.55
			c0.021,1.636,0.502,2.811,0.709,4.258c-1.772,0.358-3.628,0.63-5.205,1.184c-0.624,0.072-0.61-0.494-0.71-0.946
			c-0.481-0.07-0.629-0.474-0.946-0.71c-0.139-4.435-2.326-6.821-7.571-6.151c0.075-0.549-0.039-0.908-0.237-1.184
			c0.044-1.297,1.52-1.161,2.13-1.893c0.818-0.521,1.433-1.248,2.366-1.656c1.082-1.599,2.928-2.435,4.258-3.785
			c2.458-3.615,5.284-6.862,7.098-11.12c2.174-3.82,3.295-8.692,4.969-13.013c1.222-1.854,1.979-4.174,3.55-5.679
			c1.117-1.879,2.867-3.127,4.258-4.731c1.766-1.232,3.412-2.582,5.206-3.785c1.602-1.396,3.742-2.252,5.441-3.55
			c0.928-0.019,1.476-0.417,2.129-0.71c0.275,0.039,0.421-0.052,0.474-0.236c0.275-0.038,0.42,0.053,0.473,0.236
			c-1.122,8.342-2.947,15.98-2.365,26.025c0.89,6.129,2.46,11.578,7.097,13.96c1.332,0.167,2.366,0.631,4.022,0.474
			c2.048,3.788,3.487,8.185,5.205,12.303c0.292,0.497,0.655,0.923,0.946,1.42c0.929,1.437,2.525,2.206,3.549,3.548
			c0.776,0.408,1.119,1.249,1.893,1.657c0.189,0.993,1.267,1.099,1.42,2.129C92.656,83.665,86.955,82.824,83.327,81.871z
			 M113.374,72.17c-0.788,0.867-1.864,1.447-2.602,2.366c-1.043,0.534-1.365,1.79-2.602,2.129c-1.489,1.666-3.447,2.862-6.389,3.076
			c-2.264-0.496-2.887-2.634-4.495-3.785c-0.305-0.406-0.49-0.931-1.184-0.947c0.111-0.741-0.595-0.666-0.946-0.946
			c-0.6-0.741-1.237-1.443-1.893-2.129c-1.098-2.688-1.884-5.688-3.312-8.044c-0.778-3.008-2.068-5.504-4.495-6.862
			c-0.991-0.428-2.858,0.018-3.786-0.473c-1.945-0.658-2.296-2.908-3.312-4.495c-0.395-2.208-0.895-4.312-1.183-6.626
			c-0.023-4.832-0.101-9.722,0.709-13.722c0.897-3.915,0.689-8.935,2.367-12.067c-0.011-0.404,0.175-0.612,0.474-0.709
			c1.219,0.043,1.966,0.557,3.075,0.709c3.327,1.801,5.759,4.494,9.464,5.915c1.356,1.405,3.273,2.247,4.495,3.785
			c1.677,1.085,2.986,2.536,4.496,3.787c0.293,0.731,0.781,1.27,1.419,1.655c0.863,1.898,2.205,3.316,2.839,5.442
			c1.187,1.573,1.618,3.902,2.839,5.441c0.479,2.359,1.165,4.515,2.366,6.151c0.134,1.442,0.612,2.543,0.946,3.786
			c0.058,0.73,0.24,1.337,0.473,1.893c0.092,0.618,0.122,1.298,0.474,1.655C114.163,63.452,114.217,68.135,113.374,72.17z
			 M67.475,43.541c-0.07-0.057,0.042-0.387,0-0.473c-0.143-0.289-0.642-0.577-0.474-0.946c-0.337-0.057-0.398-0.39-0.709-0.474
			c-1.352,2.038-2.339,8.795,0.946,9.464c1.926-0.916,1.094-5.09,0.709-6.624C67.799,43.896,67.794,43.803,67.475,43.541z
			 M103.911,49.694c-0.535-0.885-0.774-2.066-1.183-3.076c-0.667-0.831-1.292-1.705-1.892-2.603c-0.895-0.287-1.428-0.938-2.13-1.42
			c-1.267-0.151-2.138-0.7-3.548-0.709c-0.043,0.246-0.21,0.196-0.474,0.236c-1.58,0.239-2.349,0.959-3.312,1.892
			c-1.109,2.121-1.453,5.47-0.946,8.518c0.508,0.754,0.655,1.868,1.182,2.603c0.37,0.892,0.923,1.601,1.42,2.366
			c1.101,1.423,2.423,2.624,4.495,3.075h1.893c1.154-0.266,1.84-1,2.84-1.42c0.381-0.88,0.933-1.59,1.419-2.365
			c0.179-1.004,0.294-2.072,0.474-3.075C104.234,52.21,103.726,51.297,103.911,49.694z M99.888,57.501
			c-1.604,0.264-1.999-0.684-2.602-1.419c-0.775-0.487-1.3-1.225-1.893-1.893c-0.457-1.121-0.797-2.359-0.945-3.787
			c0.071-1.742,0.404-3.223,0.945-4.494c-0.137-0.848,0.701-0.721,1.42-0.711c1.179,0.345,2.14,1.34,2.839,2.366
			c0.873,1.28,1.44,2.911,1.893,4.733C101.443,54.481,101.323,56.649,99.888,57.501z M62.269,47.564
			c-0.744-0.113-0.924,0.337-1.418,0.474c-0.412,1.56-0.178,3.766-0.237,5.679c0.409,2.035,0.266,4.624,2.366,4.968
			c1.78-0.271,1.414-2.686,1.419-4.731C63.786,51.727,63.773,48.899,62.269,47.564z M59.43,53.005
			c-0.589-1.224-0.147-3.481-1.656-3.785h-0.474c-0.013,0.303-0.304,0.328-0.236,0.71c-0.43,0.279-0.187,1.233-0.474,1.656
			c0.156,1.59-0.208,3.675,0,5.205c0.202,1.492,0.598,3.041,2.13,3.076c1.332-0.521,1.006-3.287,0.709-4.732V53.005z"/>
	</g>
</g>
<g>
</g>
<g>
</g>
<g>
</g>
<g>
</g>
<g>
</g>
<g>
</g>
<g>
</g>
<g>
</g>
<g>
</g>
<g>
</g>
<g>
</g>
<g>
</g>
<g>
</g>
<g>
</g>
<g>
</g>
</svg>
