<?xml version="1.0" encoding="iso-8859-1"?>
<!-- Generator: Adobe Illustrator 19.0.0, SVG Export Plug-In . SVG Version: 6.00 Build 0)  -->
<svg version="1.1" id="Capa_1" xmlns="http://www.w3.org/2000/svg" xmlns:xlink="http://www.w3.org/1999/xlink" x="0px" y="0px"
	 viewBox="0 0 114 114" style="enable-background:new 0 0 114 114;" xml:space="preserve">
<g id="_x30_205-latte">
	<g>
		<path style="fill-rule:evenodd;clip-rule:evenodd;" d="M85.688,82.61c-0.497-6.387-3.912-9.855-9.475-11.176H73.54
			c-0.928-0.342-1.767,0.635-2.186,0c1.834-12.984,5.356-24.281,5.588-38.869c-0.055-1.027,0.374-1.569,0.485-2.43
			c-0.449-0.036-0.149-0.822-0.485-0.971c0.071-0.639-0.943-0.191-0.729-0.973c0.996-0.947,1.507-2.379,2.187-3.644
			c0.022-2.06,0.055-3.911-0.243-5.102c-0.039-0.158-0.235-0.216-0.242-0.243c-0.135-0.463-0.088-1.062-0.243-1.458
			c-0.129-0.327-0.553-0.618-0.729-0.972c-0.232-0.462-0.292-1.144-0.486-1.457c-0.063-0.104-0.405-0.136-0.486-0.243
			c-0.161-0.215-0.092-0.539-0.243-0.728c-0.254-0.32-0.717-0.679-0.972-0.972c-0.919-1.062-1.623-1.686-2.429-2.186
			c-0.613-0.382-1.168-0.882-1.701-1.215c-1.399-0.301-2.756-0.645-4.615-0.485c-0.497,0.392-1.592,0.188-1.943,0.728
			c-0.953-0.062-0.903,0.879-1.944,0.729c-3.143-5.037-6.451-9.907-13.604-10.932c-3.342,0.059-7.242-0.44-8.503,1.699
			C39.899,2.801,40.67,3,41.231,3.412c0.393,0.578,0.872,1.071,1.215,1.701c0.382,1.398,1.19,2.372,0.972,4.373
			c-0.217,0.755-0.812,1.131-0.972,1.943c-1.653,1.1-3.34,2.166-5.588,2.672c-0.853,0.523-1.886,0.867-2.915,1.215
			c-0.857,0.602-1.722,1.194-2.673,1.7c-0.803,0.979-1.723,1.841-2.429,2.915c-0.328,1.292-0.647,2.593-0.486,4.373
			c0.204,0.281,0.32,0.651,0.243,1.215c0.578,0.312,0.204,1.578,0.972,1.7c0.057,0.915,0.914,1.029,0.972,1.944
			c-0.999,0.377-2.106,0.646-2.186,1.943c0.729,3.32,1.212,6.885,1.943,10.203c0.363,3.766,1.411,6.848,1.458,10.932
			c0.668,1.518,0.708,3.666,1.215,5.345c0.14,0.427-0.294,1.427,0.242,1.458c0.141,0.428-0.293,1.427,0.243,1.457
			c-0.032,0.6-0.037,1.17,0.243,1.458c0.14,0.427-0.294,1.428,0.243,1.457c-0.008,2.194,0.735,3.638,0.729,5.831
			c0.293,0.841,0.444,1.823,0.485,2.916c0.573,0.561,0.2,2.067,0.729,2.672c0.356,4.097,1.471,7.436,2.187,11.175
			c0.876,3.577,1.805,7.103,3.158,10.203c0.103,2.245,0.726,3.972,0.729,6.317c-1.868,0.166-2.99-0.412-4.859-0.244
			c-1.432,0.27-2.61,0.79-3.887,1.215c-0.211,0.355-0.363,0.771-0.972,0.729c-1.372,1.983-3.781,5.904-1.457,8.746
			c2.054,0.537,5.184-0.002,7.288,0.486c1,0.19,1.246-0.373,2.187-0.244c10.961,0.652,23.902,1.25,34.982,0.244
			c0.814-0.645,1.032-1.883,1.701-2.674c0.147-2.982-0.269-5.4-1.216-7.287c-0.705-0.267-1.167-0.777-1.7-1.215
			c-0.715-0.257-1.609-0.334-2.187-0.729h-3.158c-0.978-0.156-2.583,0.315-3.158-0.242c0.678-2.402,1.549-4.607,1.943-7.289
			c0.957,0.906,1.547,2.179,3.158,2.43c4.786,0.331,7.24-1.668,9.961-3.401c1.686-1.797,3.145-3.821,4.373-6.073
			c0.025-0.622,0.137-1.158,0.485-1.458C85.282,84.309,85.67,83.645,85.688,82.61z M38.801,107.389
			c-0.66-0.174,0.174,1.146-0.486,0.973c0.171,1.223-0.503,1.602-1.7,1.457c-0.056-1.675,0.945-2.294,1.215-3.645h0.972
			C39.257,106.638,38.657,106.614,38.801,107.389z M32.242,26.248c-0.458-1.242-0.569-2.831-0.485-4.615
			c1.551-2.094,4.243-3.045,7.045-3.888c1.076-0.786,2.861-0.862,3.644-1.943c1.44-0.341,2.086-1.475,3.158-2.186
			c0.309-0.824,0.725-1.542,1.214-2.186c0.232-1.307,0.302-2.775,0.243-4.373c-0.323-1.215-0.645-2.432-1.457-3.158
			c0.258-0.552,1.526-0.094,2.186-0.244c1.315,0.225,2.564,0.514,3.645,0.973C52.599,5,53.218,5.92,54.349,6.328
			c2.266,2.754,4.463,5.578,6.56,8.502c0.122,1.012,0.85,1.418,0.972,2.43c0.447,0.605,0.171,1.934,0.972,2.186
			c2.52-0.26,1.433-3.126,0.972-4.859c1.668-0.673,3.133-0.796,4.373-0.485c3.092,0.773,5.592,5.102,5.83,8.745
			c-0.476,1.954-1.604,3.255-2.915,4.373H49.976c-3.068,0.333-6.477,0.325-9.717,0.486C37.382,28.275,33.516,28.057,32.242,26.248z
			 M35.157,41.797c-0.742-3.227-1.662-6.274-2.429-9.475c13.17,0.74,27.936-1.215,41.056,0.242
			c-0.601,2.962-1.377,5.748-1.943,8.746c-5.382-0.275-10.836-1.246-16.52-1.215c-5.524,0.029-11.086,0.803-16.519,0.971
			C37.466,41.19,36.392,41.573,35.157,41.797z M37.586,53.214c-0.681-0.128-0.449-1.171-0.729-1.7
			c1.357-2.125,2.574-4.391,3.887-6.561c0.413-0.088,0.458,0.19,0.486,0.486C39.831,47.846,38.65,50.472,37.586,53.214z
			 M41.474,109.818c-0.896,0.225-0.442-1.281-0.243-1.457c0.04-0.688,0.445-1.013,0.485-1.701h0.729
			C42.201,107.793,41.999,108.967,41.474,109.818z M46.089,108.604c-0.538,0.19,0.046,1.504-0.972,1.215
			c0.233-0.98,0.495-1.933,0.729-2.916C46.972,106.922,45.899,108.004,46.089,108.604z M50.948,109.818h-1.7
			c0.077-1.705,0.167-3.396,2.43-2.916C51.54,107.981,50.89,108.545,50.948,109.818z M72.327,105.688
			c0.983,0.718,0.704,2.697,0.729,4.373c-4.239-0.028-8.002,0.42-12.39,0.244c-0.663-1.008-0.199-2.188-0.485-3.158
			c-1.117-0.064-1.026,1.079-1.701,1.457c-0.455,0.598-0.848,1.258-1.458,1.701c-1.243,0.19-1.764-0.342-2.915-0.244
			c0.31-1.148,0.663-2.252,0.972-3.4C60.752,106.262,66.957,106.393,72.327,105.688z M61.88,98.157
			c-0.221,1.292,0.356,2.743,0,3.401c-1.109-0.123-1.377,0.422-2.187,0c0.017-0.827-0.715-0.905-1.215-1.215
			c-1.161-0.027-1.607,0.66-1.943,1.457c-0.712-0.494,0.329-1.271,0.485-1.7c0.202-0.608,0.666-0.954,0.729-1.7
			c0.666-0.953,1.28-1.959,1.458-3.401c-0.246-0.483-0.421-1.038-0.972-1.215c-1.517-0.22-1.809,0.782-2.43,1.458
			c-0.441,0.855-1.183,1.41-1.458,2.429c-0.601,0.694-1.109,1.481-1.458,2.43c-0.863,0.433-0.701,1.89-1.943,1.944
			c-0.799,0.176-0.372-0.482,0-0.486c-0.177-0.663,0.483-0.489,0.486-0.972c0.385-0.507,0.792-0.99,0.972-1.701
			c0.978-0.885,1.508-2.218,2.187-3.4c0.66-1.203,1.511-2.214,1.943-3.645c0.494-0.358,0.813-1.288,0.728-2.187
			c-0.088-0.93-0.261-1.372-0.972-1.7c-1.67,0.11-2.142,1.421-2.915,2.43c-0.689,1.011-1.347,2.054-1.943,3.157
			c-1.418,2.065-2.566,4.398-4.13,6.316c-0.135,0.434-0.125,1.01-0.486,1.215c0.14,0.147,0.569,1.152,0,1.215
			c-1.311-0.309-0.934-2.305-1.214-3.644c1.042,0.071,1.605-0.338,2.186-0.729c2.289-3.137,3.969-6.883,6.073-10.203
			c0.857-1.839,1.773-3.553,2.673-5.344c0.869-1.732,2.005-3.468,2.43-5.588c-0.184-0.869-0.563-1.543-1.458-1.701
			c-2.352,0.322-2.571,2.773-3.887,4.131c-0.495,0.799-0.888,1.703-1.458,2.428c-0.53,0.767-0.66,1.932-1.457,2.431
			c-0.589,2.001-1.866,3.316-2.673,5.102c-0.504,0.792-1.136,1.455-1.457,2.429c-0.902,0.395-0.74,1.852-1.943,1.943
			c-0.388-3.788,1.973-4.828,2.672-7.53c1.4-1.921,2.397-4.243,3.401-6.559c1.414-1.905,2.016-4.625,3.4-6.559
			c0.226-1.477,1.129-2.273,1.458-3.645c0.855-0.837,0.58-3.076-0.729-3.158c-2.156,0.354-2.79,2.23-3.644,3.887
			c-0.966,1.545-1.829,3.191-2.672,4.859c-1.849,3.091-3.521,6.358-5.345,9.475c-0.757-0.464,0.38-1.057,0.243-1.701
			c0.523-0.205,0.392-1.066,0.729-1.457c1.483-3.052,3.042-6.028,4.615-8.988c0.979-2.1,2.195-3.961,3.158-6.074
			c0.455-1.083,1.139-1.939,1.458-3.158c0.548-0.181,0.095-1.363,0.243-1.943c-0.126-0.603-0.592-0.865-0.972-1.215
			c-2.228,0.121-2.641,2.057-3.644,3.4c-0.726,1.623-1.703,2.993-2.429,4.617c-0.968,1.381-1.705,2.992-2.673,4.373
			c-0.402,0.811-0.811,1.617-1.215,2.428c-0.73,0.404-0.461,1.807-1.457,1.943c-0.676-1.283,0.177-2.375,0.485-3.4
			c0.694-0.683,0.694-2.06,1.458-2.672c0.736-2.098,1.643-4.025,2.672-5.831c1.492-4.177,4.171-7.165,5.345-11.66
			c-0.142-0.507-0.511-0.786-0.729-1.215c-2.466-0.36-2.92,1.291-3.887,2.429c-0.716,1.39-1.618,2.594-2.187,4.13
			c-0.613-0.55,0.32-1.608,0.485-2.187c0.035-0.938,0.821-1.122,0.729-2.186c0.683-1.26,1.669-2.219,1.7-4.13
			c0.001-0.892-0.851-0.931-1.215-1.458c-0.872-0.144-1.175,0.283-1.7,0.486c-0.429-0.07-0.753,1.144-0.972,0.485
			c0.492-1.531,1.148-2.9,1.7-4.374c8.445-0.39,18.316-1.074,25.994,0.486C67.841,62.819,64.872,80.498,61.88,98.157z
			 M81.315,84.553c-0.436,0.859-0.933,1.658-1.214,2.673c-0.553,0.177-0.728,0.73-0.973,1.215c-1.056,0.726-1.944,1.618-3.158,2.186
			c-0.383,0.508-1.354,0.429-1.7,0.972c-0.67,0.221-1.706,0.076-2.186,0.486c-1.444-0.299-2.598-1.766-4.13-1.215
			c1.055-4.75,1.714-9.998,2.43-14.818c0.001-0.012,0.226,0.008,0.242,0c-0.011-0.416,0.181-0.63,0.486-0.73
			c1.899-0.137,3.602,0.026,5.102,0.486c0.562,0.174,1.339,0.286,1.701,0.486c0.102,0.057,0.156,0.447,0.242,0.486
			c0.429,0.192,0.633,0.146,1.215,0.728c0.45,0.449,0.586,0.837,0.972,1.457c0.206,0.332,0.328,0.342,0.486,0.973
			c0.055,0.221,0.458,0.603,0.485,0.729C81.557,81.791,81.14,83.074,81.315,84.553z"/>
	</g>
</g>
<g>
</g>
<g>
</g>
<g>
</g>
<g>
</g>
<g>
</g>
<g>
</g>
<g>
</g>
<g>
</g>
<g>
</g>
<g>
</g>
<g>
</g>
<g>
</g>
<g>
</g>
<g>
</g>
<g>
</g>
</svg>
