<?xml version="1.0" encoding="iso-8859-1"?>
<!-- Generator: Adobe Illustrator 19.0.0, SVG Export Plug-In . SVG Version: 6.00 Build 0)  -->
<svg version="1.1" id="Capa_1" xmlns="http://www.w3.org/2000/svg" xmlns:xlink="http://www.w3.org/1999/xlink" x="0px" y="0px"
	 viewBox="0 0 120.001 120.001" style="enable-background:new 0 0 120.001 120.001;" xml:space="preserve">
<g id="_x30_302-steak">
	<g>
		<path style="fill-rule:evenodd;clip-rule:evenodd;" d="M119.91,76.936c-0.344-0.696-0.86-1.216-1.284-1.541
			c-0.684-0.521-1.143-0.444-2.054-0.77c-0.109-0.039-0.374-0.453-0.514-0.514c-0.27-0.115-0.753,0.102-0.769-0.256
			c-2.087-0.482-4.14-0.997-5.906-1.798c-1.047-0.579-0.453-2.8-1.797-3.082c-0.958-0.754-1.184-2.239-2.055-3.08
			c-0.945-2.393-2.405-4.271-3.337-6.676c0.011-0.354-0.121-0.564-0.257-0.771c-1.147-3.901-2.005-8.095-3.081-12.067
			c-1.304-3.746-2.957-7.143-4.879-10.271c-0.69-0.542-1.509-1.088-2.054-1.541c-0.412-0.343-1.019-1.106-1.284-1.283
			c-0.31-0.208-0.712-0.065-1.026-0.257c-0.485-0.296-0.988-0.7-1.541-1.027c-2.126-1.259-4.302-2.58-6.419-3.852
			c-2.494-0.931-5.007-1.84-7.189-3.08c-2.637-0.788-4.375-2.473-7.19-3.082c-2.52-0.646-5.818-0.516-8.986-0.514
			c-0.049,0.262-0.225,0.223-0.514,0.256c-1.774,0.213-3.986,0.258-5.649,0.771c-0.427,0.6-1.394,0.659-2.054,1.027
			c-0.629,0.483-1.163,1.062-2.054,1.283c-1.118,1.106-2.193,2.257-3.851,2.824c-3.566,0.714-7.29,1.269-10.527,2.311
			c-1.372,0.768-3.112,1.169-4.622,1.797c-1.737,0.487-3.337,1.114-4.878,1.798c-1.486,0.654-2.736,1.543-4.365,2.055
			c-1.148,1.076-2.591,1.859-4.365,2.31c-1.338,0.801-3.075,1.203-4.108,2.311c-0.728,0.395-1.094,1.301-2.055,0.77
			C8.12,40.978,7.66,41.63,6.933,42.017c-3.718,3.728-5.329,9.563-6.676,15.662C0.162,60.522,0.293,62.28,0,65.125
			c0.424,1.801,0.65,3.801,1.027,5.648c0.449,0.236,0.567,0.803,0.514,1.541c2.585,3.232,5.325,6.314,7.959,9.5
			c2.977,2.844,6.163,5.478,10.014,7.447c4.65,0.997,9.241,2.056,14.635,2.311c1.95,0.875,5.381,0.267,7.703,0.77
			c0.111,0.574,1.265,0.104,1.797,0.257h2.054c1.143,0.313,2.249,0.662,3.595,0.771c3.071,0.16,5.571-0.25,8.217-0.514
			c5.818,0.088,11.6,0.211,16.69,1.027c0.002,0.406,0.458,0.139,0.77,0.257c0.341,0.128,0.449,0.379,0.77,0.513
			c0.345,0.146,0.572,0.094,1.028,0.257c0.137,0.05,0.601,0.456,0.77,0.515c0.306,0.106,0.714-0.088,1.027,0
			c0.153,0.043,0.523,0.441,0.77,0.513c3.362,0.972,7.079,1.192,10.271,2.311c4.982-0.2,9.938,0.743,14.635,0
			c1.043-0.581,2.347-0.905,3.338-1.541c0.8-0.909,1.956-1.467,3.081-2.054c1.905-1.432,3.964-2.711,5.391-4.621
			c1.005-2.247,1.634-4.872,2.311-7.446C118.729,80.548,120.404,79.827,119.91,76.936z M27.218,36.88
			c0.57-0.198,1.001-0.539,1.797-0.513c0.919-0.706,2.622-0.63,3.595-1.284c2.526-0.64,4.797-1.536,7.446-2.054
			c0.844-0.188,0.393,0.51,0,0.514c-0.091,0.336-0.453,0.403-0.514,0.77c-0.268,0.589-0.998,0.714-1.283,1.285
			c-1.066,0.73-1.771,1.824-2.825,2.566c-3.217,0.529-6.509-0.076-9.757-0.256C25.589,36.964,26.612,37.131,27.218,36.88z
			 M12.068,44.328c0.091-0.337,0.451-0.404,0.514-0.771c0.697-0.158,1.202-0.51,1.54-1.027c2.394-0.773,4.602-1.731,6.676-2.824
			c4.844,0.838,10.33,2.29,15.662,1.797c2.282-1.055,3.821-2.854,5.392-4.622c1.746-1.507,3.234-3.271,4.622-5.135
			c3.794-1.34,5.047-5.223,10.271-5.136c0.676-0.265,1.576-0.307,2.568-0.257c-0.025,2.715-2.156,3.321-2.825,5.393
			c-0.997,0.287-1.313,1.254-2.311,1.541c-0.632,0.566-1.125,1.271-2.054,1.54c-0.482,0.803-1.572,0.996-2.054,1.798
			c-0.861,0.338-1.066,1.33-1.797,1.797c-0.121,1.335-0.579,2.331-0.514,3.852c0.932,3.09,3.408,4.638,5.393,6.675
			c1.051,0.403,1.931,0.979,2.824,1.541c0.995,0.46,1.905,1.005,2.567,1.797c3.362,1.003,5.535,3.195,8.217,4.88
			c2.802,1.476,6.349,2.208,8.986,3.851c-0.407,0.636-1.796,0.104-2.312,0c-0.918-0.022-1.483-0.399-2.309-0.514
			c-1.38-0.417-2.813-0.78-3.853-1.54c-2.624-1.056-5.866-1.494-8.216-2.825c-2.558-1.122-4.179-3.182-6.933-4.108
			c-2.38-1.214-4.822-2.367-6.675-4.107c-2.936-0.573-4.668-2.352-7.189-3.339c-2.184,0.299-3.763,1.202-5.393,2.056h-4.621
			c-0.724-0.477-1.691-0.707-2.568-1.028c-0.537-0.575-1.432-0.792-2.054-1.283c-2.016-0.466-4.403-0.562-6.42-1.028
			c-1.969,0.256-3.534,0.918-5.135,1.541C11.225,45.028,11.676,44.33,12.068,44.328z M6.676,63.585v1.282
			c-0.199,0.469-0.276-0.153-0.257-0.513v-1.284C6.619,62.603,6.695,63.225,6.676,63.585z M8.987,59.733
			c-0.711-0.485-1.408-0.988-2.054-1.541c-0.332-4.354,1.272-6.773,2.567-9.499c0.633,0.033,1.237,0.038,1.541-0.257
			c1.47-1.012,3.379-1.586,5.392-2.055c1.538-0.082,2.294,0.617,3.595,0.771c0.047,0.559-0.21,0.817-0.77,0.771
			c0.176,0.69-0.531,0.496-0.77,0.771c-0.09,0.851-0.769,1.114-1.284,1.54c-0.922,1.046-1.829,2.108-2.824,3.081
			c-0.715,1.255-1.811,2.127-2.568,3.338c-0.698,0.33-0.739,1.315-1.54,1.54C9.871,58.733,9.811,59.616,8.987,59.733z
			 M12.326,76.423c-1.178,0.149-1.197-0.857-1.798-1.284c-0.114-3.224-0.194-6.481-0.513-9.5c0.755-0.505,1.406,0.87,2.311,1.026
			C11.938,69.411,11.885,73.686,12.326,76.423z M17.204,80.532c-0.96-0.152-1.328-0.898-2.054-1.284
			c-0.17-3.595-0.702-6.83-0.513-10.784c0.851,0.091,1.114,0.769,1.54,1.284c0.789,0.066,1.154,0.557,1.797,0.77
			C17.161,73.298,17.166,76.899,17.204,80.532z M16.177,64.098c-1.158-0.896-2.579-1.529-3.851-2.311
			c0.564-1.403,1.91-2.027,2.566-3.339c0.992-0.892,1.814-1.951,2.569-3.081c1.867-1.983,3.484-4.218,5.649-5.904
			c0.09-0.338,0.451-0.404,0.513-0.771c1.843,0.297,3.228,1.051,4.878,1.54h4.109c-0.169,0.944-0.946,1.279-1.541,1.797
			c-1.314,1.768-3.243,2.92-4.365,4.879c-2.264,1.929-3.862,4.525-5.648,6.933c-0.333,0.78-0.484,1.741-0.771,2.567
			C18.188,66.366,17.691,64.724,16.177,64.098z M21.826,82.842c-1.326-0.133-0.833-0.916-0.77-2.054V70.774
			c0.298-0.041,0.456,0.057,0.513,0.256v6.677c-0.212,0.726,0.361,0.665,0.257,1.284C21.68,80.344,22.046,82.233,21.826,82.842z
			 M27.731,84.639c-1.101,0.074-1.697-0.357-2.31-0.771c0.079-4.273-0.738-7.649-0.514-12.067c1.182,0.017,2.045,0.352,2.824,0.77
			C27.237,76.073,26.778,81.264,27.731,84.639z M25.421,68.207c-0.808-0.22-1.085-0.971-2.055-1.027
			c0.333-1.123,1.296-1.614,2.055-2.312c0.321-1.133,1.245-1.663,1.797-2.566c1.323-1.587,2.747-3.072,4.108-4.622
			c2.895-2.925,5.699-5.94,8.473-8.986c1.524,0.7,2.927,1.522,4.622,2.054c1.012,1.127,2.291,1.987,3.337,3.08
			c4.384,1.522,7.342,4.471,11.298,6.42c2.182,0.387,4.102,1.033,5.905,1.798c-0.304,1.75-1.59,2.518-2.054,4.108
			c-0.862,0.637-1.785,3.695-0.256,4.364c2.185,0.131,2.242-1.864,3.081-3.081c0.581-1.387,1.128-2.811,1.797-4.107
			c3.52,1.357,7.97,1.786,11.554,3.08c-0.186,1.021-1.025,1.721-1.54,2.567c-0.507,0.834-0.763,1.874-1.541,2.568
			c-0.062,0.86-0.553,1.618,0.257,2.054c-0.217,0.605-1.324-0.016-1.541-0.257c-0.67-0.099-1.409-0.132-1.797-0.513
			c-1.577,0.035-2.527-0.554-3.851-0.771c-2.671-0.409-5.422-0.74-8.217-1.028h-8.216c-2.204,0.365-4.912,0.225-6.934,0.771h-5.905
			c-2.404-0.251-4.342-0.965-6.933-1.027c-0.582-0.53-1.7-0.525-2.31-1.026c-0.976-0.138-1.424-0.803-2.568-0.771
			C27.357,68.496,26.229,68.51,25.421,68.207z M92.949,91.829c-4.335-0.629-7.849-2.079-11.811-3.081
			c-2.842,0.103-4.963-0.514-7.189-1.026c0.02-2.074-0.151-3.957-1.797-4.365c-0.782,0.159-1.313,0.57-1.284,1.541
			c-0.616,0.323,0.141,2.024-0.513,2.311c-1.508-0.082-0.173-1.41-0.514-2.568v-3.338c-0.458-0.995-0.312-2.598-2.054-2.311
			c-1.451,0.004-0.773,2.137-1.284,3.081v3.082c0.021,0.961,0.194,2.077-1.028,1.797c-1.023,0.167-0.735-0.977-0.77-1.797
			c0.167-0.938-0.173-1.369-0.514-1.798c-1.52,0.362-1.67,2.095-2.31,3.338H59.57c-0.749-1.819,0.608-5.744-1.798-5.905
			c-2.31,0.427-1.106,4.371-1.797,6.419c-0.943-0.084-2.273,0.219-2.824-0.257c-0.172-2.056,0.436-4.888-0.514-6.162
			c-0.605,0.005-0.757-0.443-1.54-0.257c-2.457,0.282-1.656,3.821-1.798,6.419c-4.264-0.187-7.816-1.085-12.068-1.284
			c-0.909,0.032-1.46,0.421-2.054,0.771c-1.672-0.381-3.473-0.636-5.135-1.027c0.246-0.78,0.518-1.536,0.77-2.312
			c0.272-1.61-0.752-4.519,1.028-4.621c0.283,1.771,0.399,3.709,2.31,3.852c3.164-0.386,1.158-4.349,2.054-6.934
			c0.927,0.102,1.722,0.332,2.567,0.515c-0.281,0.746-0.231,1.821-0.512,2.567c0.079,1.547-0.416,3.668,1.026,3.852
			c2.818,0.357,1.676-4.105,1.541-5.905c1.325-0.559,3.65-0.116,5.392-0.257c0.967-0.23,2.175-0.222,3.081-0.514
			c1.4-0.055,3.087,0.178,4.108-0.258h5.906c3.139,0.457,6.542,0.648,9.5,1.284c3.006,0.589,5.451,1.739,8.216,2.568
			c2.488,1.106,5.392,1.798,7.961,2.824c2.685,0.824,4.934,2.084,7.702,2.825c0.25,0.836-0.15,2.354,0,3.851
			C92.633,89.868,93.347,91.18,92.949,91.829z M100.396,91.059c-1.728,0.326-3.106,1.002-5.392,0.77
			c-0.072-0.414,0.243-0.441,0.257-0.77c-0.019-1.15,0.952,0.156,1.797-0.258c0.208-0.048,0.256-0.257,0.514-0.257
			c1.189-0.437,0.651-2.602,0.77-4.107c0.588,0.269,1.549,0.163,2.054,0.514C100.599,87.614,100.261,89.639,100.396,91.059z
			 M105.53,90.032c-1.039,0.072-1.784,0.439-2.824,0.513c0.067-1.131,0.411-1.985,0.257-3.337h2.824
			C106.063,87.669,105.719,89.229,105.53,90.032z M113.748,79.76c-0.741,0.372-1.524,0.702-2.054,1.284
			c-1.865,0.446-3.716,0.906-5.649,1.284c-3.098,0.158-5.745-0.457-8.216-1.027c-2.568-0.592-4.896-1.09-7.19-2.054
			c-2.025-1.057-4.562-1.6-6.675-2.568c-2.305-0.69-4.564-1.426-6.676-2.31c0.076-0.693,1.08-0.462,1.284-1.028
			c0.659-0.024,0.366-1.002,1.027-1.026c0.028-0.656,0.47-0.899,0.77-1.285c0.403-1.308,0.834-2.588,1.284-3.851
			c1.23,0.48,2.688,0.735,4.365,0.771c0.612-0.33,1.391-0.491,1.54-1.284c0.297-0.644,1.024-0.859,1.027-1.798
			c-0.389-2.177-1.874-3.26-3.851-3.851c-1.346-1.223-3.78-1.354-5.393-2.312c-1.904-0.663-3.126-2.01-5.135-2.567
			c-1.722-0.761-3.671-1.292-5.393-2.054c-3.438-1.611-6.013-4.088-10.014-5.136c-3.369-1.681-6.505-3.595-8.474-6.675
			c0.169-0.944,0.5-1.727,0.514-2.825c1.406-1.161,2.904-2.231,4.365-3.338c1.571-0.91,2.637-2.327,4.365-3.081
			c0.824-1.315,1.91-2.37,2.824-3.594c0.141-0.801,0.21-1.674,0.513-2.312c-0.308-0.338-0.1-0.404,0-0.771
			c1.676-0.134,2.923,0.159,4.108,0.515c-0.902,3.975-3.362,6.393-4.878,9.757c-1.007,1.476-1.736,3.228-2.824,4.621
			c-0.651,1.746-2.357,2.438-2.311,4.879c0.195,0.661,0.624,1.089,1.284,1.283c2.433-0.134,2.977-2.158,3.851-3.851
			c1.222-1.346,2.103-3.032,2.824-4.879c2.106-3.029,3.854-6.416,5.649-9.757c3.264,0.673,5.133,2.741,8.473,3.338
			c-0.232,2.25-1.385,3.579-2.31,5.136c-0.66,1.737-1.48,3.312-2.311,4.879c-0.318,2.162-1.345,3.619-1.798,5.649
			c-0.754,1.263-2.215,3.509-1.027,5.136c2.628,0.144,2.637-2.328,3.853-3.595c0.329-2.067,1.524-3.27,1.797-5.393
			c1.771-3.108,3.558-6.199,5.135-9.501c1.609,0.188,2.178,1.417,3.595,1.798c0.992,0.72,2.195,1.227,3.081,2.054
			c-0.425,1.8-1.158,3.294-1.797,4.878c-0.577,1.563-1.067,3.214-1.798,4.623c-0.318,1.821-1.222,3.057-1.54,4.879
			c-0.758,1.167-1.757,3.191-0.77,4.621c1.594,0.473,2.958-0.562,3.337-2.055c0.862-1.107,1.239-2.697,1.798-4.107
			c1.054-2.797,2.083-5.621,3.081-8.474c1.195,0.174,1.054,1.685,1.54,2.567c0.631,0.654,0.586,1.982,1.284,2.568
			c0.38,3.471,1.601,6.101,2.054,9.5c-0.539,1.857-1.273,3.52-2.311,4.879c-0.551,1.844-1.57,3.221-2.31,4.878
			c-1.455,3.253-3.91,5.505-4.622,9.5c1.721,1.623,3.258-0.598,4.108-1.54c0.618-1.521,1.757-2.523,2.311-4.109
			c1.107-1.031,1.57-2.707,2.568-3.851c0.371-0.741,0.701-1.523,1.283-2.054c0.282-0.744,0.317-1.736,1.284-1.797
			c0.661,1.819,1.848,3.115,2.568,4.878c0.655,0.542,1.136,1.261,1.54,2.054c0.566,0.632,1.271,1.126,1.541,2.055
			c-1.047,0.579-1.264,1.987-2.311,2.567c-0.524,2.3-2.329,3.319-2.311,6.162c2.115,0.779,2.953-1.57,3.851-2.824
			c1.169-1.143,1.774-2.848,3.082-3.851c1.358,0.438,2.41,1.185,3.595,1.797c2.206,0.104,3.572,1.05,5.136,1.797
			C115.084,78.873,114.004,78.904,113.748,79.76z M44.678,67.95c0.736-1.146,1.588-2.178,2.054-3.595
			c1.062-0.822,1.406-2.36,2.31-3.338c0.368-1.515,1.964-1.802,1.541-4.108c-0.431-0.34-0.861-0.681-1.797-0.514
			c-0.003,0.34-0.45,0.235-0.514,0.514c-1.482,2.027-2.832,4.187-4.108,6.42c-0.769,1.027-1.394,2.2-2.054,3.337
			c-0.504,0.958-1.714,2.754-0.514,3.852C43.533,70.571,44.032,69.186,44.678,67.95z"/>
	</g>
</g>
<g>
</g>
<g>
</g>
<g>
</g>
<g>
</g>
<g>
</g>
<g>
</g>
<g>
</g>
<g>
</g>
<g>
</g>
<g>
</g>
<g>
</g>
<g>
</g>
<g>
</g>
<g>
</g>
<g>
</g>
</svg>
