<?xml version="1.0" encoding="iso-8859-1"?>
<!-- Generator: Adobe Illustrator 19.0.0, SVG Export Plug-In . SVG Version: 6.00 Build 0)  -->
<svg version="1.1" id="Capa_1" xmlns="http://www.w3.org/2000/svg" xmlns:xlink="http://www.w3.org/1999/xlink" x="0px" y="0px"
	 viewBox="0 0 120 120" style="enable-background:new 0 0 120 120;" xml:space="preserve">
<g id="_x30_102-tea-pot">
	<g>
		<path style="fill-rule:evenodd;clip-rule:evenodd;" d="M119.052,45.076c-0.697-0.963-1.493-1.826-2.134-2.846
			c-2.449-1.897-5.221-3.472-9.247-3.794h-3.556c-2.426,0.419-5.026,0.665-6.875,1.661c-2.346,0.591-3.537,2.317-5.69,2.844
			c-2.269-0.182-3.837-1.062-6.401-0.947c-1.273-1.258-2.739-2.318-4.03-3.558c0.027-1.212-0.701-1.669-0.949-2.606
			c-1.021-0.957-1.867-2.084-2.845-3.084c-0.979-0.998-2.065-1.883-3.082-2.844c-0.745-0.204-1.001-0.896-1.897-0.949
			c-0.272-0.756-1.393-0.662-1.897-1.184c-0.971-0.059-1.335-0.721-2.371-0.713c-0.608-0.418-1.879-0.176-2.371-0.71
			c0.744-2.813,3.227-3.886,2.845-7.825c-1.061-2.021-3.378-2.785-6.639-2.607c-1.732,0.48-3.804,0.621-4.979,1.66
			c-1.681,0.611-3.039,1.545-3.319,3.556c-0.167,1.669,0.645,2.357,1.185,3.318c0.283,0.977,1.903,1.634,1.422,2.608
			c-1.996-0.02-2.934,1.018-4.742,1.187c-1.612,1.151-3.808,1.723-5.216,3.08c-1.783,1.062-3.178,2.513-4.504,4.031
			c-0.289,1.135-0.994,1.85-0.949,3.318c-0.451,0.577-1.627,0.428-1.896,1.187c-0.931,0.095-1.013,1.042-1.897,1.185
			c-0.875,1.338-2.184,2.242-2.844,3.793c-1.246,0.969-1.681,2.746-2.845,3.794c-0.576,1.638-1.654,2.773-2.134,4.505
			c-0.439,0.668-0.734,1.479-0.948,2.371c-0.444,0.741-0.485,1.885-0.948,2.607c-1.205-0.219-1.374-1.471-2.134-2.133
			c-0.393-1.109-0.589-2.416-0.948-3.558c-0.176-2.747-0.728-5.118-1.423-7.349c-0.948-1.422-2.133-2.609-3.556-3.557
			c-1.406-0.176-2.676-0.486-4.268-0.475c-2.644,0.201-4.625,1.065-7.35,1.186c-2.346,0.578-5.965-0.116-7.586,1.186
			c-0.184,1.844,0.413,2.908,0.948,4.031c2.955,2.578,7.637,3.426,10.195,6.401c1.43,1.335,1.654,3.876,1.897,6.399
			c-0.471,2.376-0.624,5.067-0.948,7.589c-0.133,3.001,0.378,5.27-0.237,7.587c0.539,0.646,0.202,2.168,0.948,2.606
			c0.013,1.252,0.924,1.605,1.185,2.608c0.689,1.762,1.918,2.982,2.846,4.506c1.296,0.6,1.959,1.832,3.556,2.133
			c1.139,0.836,2.882,1.069,4.504,1.422h2.371c1.462,0.197,1.849-0.678,3.082-0.711c1.856,4.15,5.405,6.607,8.298,9.721
			c0.981,0.521,1.892,1.113,2.608,1.896c2.551,0.928,4.832,2.122,7.586,2.846c3.045,0.432,5.73,1.225,8.772,1.659h5.453
			c2.441-0.484,5.019-0.829,7.587-1.185c2.65-0.907,5.192-1.92,7.35-3.32c2.345-1.213,4.149-2.964,6.165-4.504
			c1.512-2.122,3.386-3.884,4.742-6.164c1.146-0.988,2.42-1.849,3.319-3.084c0.831-1.302,2.358-1.908,2.846-3.555
			c0.96-1.174,1.526-2.74,2.371-4.031c0.523-1.691,1.489-2.935,2.133-4.504c0.565-0.225,0.789-0.793,1.186-1.186
			c1.289-1.283,2.508-2.422,3.793-3.557c1.444-1.275,3.185-2.797,4.505-3.793c1.215-0.918,2.245-1.883,3.32-2.846
			c0.406-0.363,0.796-0.799,1.185-1.185c0.193-0.191,0.543-0.262,0.712-0.475c0.179-0.223,0.234-0.677,0.475-0.947
			c0.771-0.871,1.689-1.634,2.371-2.607c0.682-0.977,1.083-2.1,1.896-3.084c0.354-1.463,0.865-2.769,0.948-4.503
			C119.834,47.928,119.459,46.486,119.052,45.076z M22.32,83.485c-0.355-0.277-0.58-0.685-1.185-0.711
			c-1.956-1.996-3.536-4.367-4.267-7.588c-0.048-5.733,0.099-11.454,0.236-16.359c-0.15-2.695-0.799-4.891-1.896-6.639
			c-1.85-3.049-5.285-4.515-8.772-5.928c1.097-0.719,3.144-0.489,4.504-0.947c1.617-0.2,3.009-0.627,4.742-0.711
			c0.383,0.066,0.409-0.225,0.711-0.238c1.663-0.16,1.841,1.164,2.845,1.662c1.002,2.158,1.19,5.132,1.422,8.059
			c0.559,2.605,1.618,4.706,3.082,6.402c0.813,0.609,1.682,1.163,2.845,1.424c-0.457,1.439-0.327,3.465-0.711,4.978
			c-0.378,7.334,0.816,13.093,2.845,18.019C26.412,84.608,24.287,84.125,22.32,83.485z M64.995,19.945
			c-0.435,1.223-1.565,1.752-1.896,3.081c-0.754,0.827-1.154,2.007-1.659,3.083c-0.762,0.051-0.578-0.847-0.948-1.187
			c-0.556-0.075-0.531-0.733-0.948-0.947c-0.381-0.965-1.422-1.266-1.423-2.608C59.904,20.385,62.095,19.811,64.995,19.945z
			 M59.306,30.613c0.173-0.221,0.431-0.359,0.711-0.473h3.319c3.199,0.434,6.085,1.184,8.061,2.844
			c1.14,0.677,2.052,1.582,2.845,2.608c0.835,0.981,1.965,1.671,2.371,3.081c-5.086,0.367-10.023,0.884-15.647,0.712
			c-1.066,0.118-3.426,0.55-4.979,0C56.144,35.512,57.29,32.627,59.306,30.613z M50.534,36.303c0.318-1.341,0.453-2.865,0.948-4.029
			c0.41,0.197-0.105,1.455-0.237,1.897c0.047,0.915,0.009,1.746-0.237,2.369c-0.096,1.011,0.23,2.442-0.237,3.083
			C50.225,38.985,50.687,37.337,50.534,36.303z M46.503,38.201c-0.03-0.426,0.29-0.502,0.237-0.949v-1.185
			c0.514-0.04,0.108,0.839,0.237,1.185c0.196,0.67-0.334,0.613-0.237,1.185c-0.129,0.346,0.277,1.228-0.237,1.187V38.201z
			 M92.024,72.815c-1.266,6.717-4.617,11.348-8.061,15.885c-1.964,1.988-3.659,4.246-6.164,5.69
			c-0.902,1.075-2.468,1.483-3.556,2.372c-1.593,0.381-2.446,1.504-4.268,1.658c0.569-1.354,0.707-3.291-0.948-3.556
			c-1.007,0.021-1.495,0.56-1.423,1.659c-0.543,0.405-0.56,1.336-0.711,2.135h-4.031c-0.148-2.066,1.063-3.986-0.237-5.216
			c-2.236,0.37-2.083,3.134-2.845,4.978h-3.556c0.488-0.856,0.525-2.162,0.948-3.081c-0.137-1.482,0.907-1.78,0.711-3.32
			c-0.393-0.712-0.814-1.398-2.134-1.185c-1.646,0.172-1.93,1.705-2.133,3.318c-0.486,0.463-0.305,1.592-0.712,2.135
			c-0.215,0.653-0.074,1.664-0.474,2.133c-0.893,0.182-1.133-0.289-1.897-0.236c0.345-2.185,0.723-4.336,1.186-6.402
			c0.078-1.875,1.626-4.795,0-6.162c-2.855-0.01-3.085,2.604-3.557,4.978c-0.515,0.907-0.594,2.251-0.948,3.318
			c-0.625,0.72,0.072,2.759-1.186,2.847c-0.356-0.385-1.466-0.641-0.711-1.423c-0.186-0.978,0.364-1.218,0.237-2.134
			c0.31-1.351,0.298-3.021,0.711-4.268c0.045-1.615,0.476-2.844,0.474-4.506c0.605-0.264-0.095-1.832,0.475-2.133
			c0.052-0.844-0.16-1.421-0.711-1.66c-1.72-0.218-1.8,1.204-2.371,2.135c-0.385,1.116-0.835,2.168-0.948,3.555
			c-0.375,0.416-0.317,1.264-0.474,1.897c-0.263,0.45-0.302,1.121-0.474,1.66c-0.27,1.232-0.323,2.68-0.711,3.793
			c0.112,0.971-0.639,0.037-0.712-0.235c-0.556-0.077-0.531-0.735-0.948-0.949c0.25-2.911,0.376-5.946,0.948-8.536
			c-0.119-2.514,2.136-5.996,0-7.586c-1.364-0.019-1.448,1.24-2.134,1.897c-0.234,1.109-0.714,1.974-0.948,3.083
			c-0.751,1.856-1.055,4.16-1.66,6.165c-0.843-0.473-0.069-1.086-0.237-2.135c0.148-0.721-0.304-2.043,0.237-2.371
			c0.002-1.815,0.137-3.498,0.474-4.979c0.154-3.401,1.447-5.665,1.896-8.771c-2.458-1.077-3.126,1.586-4.03,2.844
			c0.057,1.242-0.577,1.794-0.711,2.846c-0.076,0.555-0.375,0.889-0.237,1.659c-0.629-0.075,0.222,1.327-0.711,0.949
			c0.408-3.466,0.659-7.087,1.659-9.958c0.151-1.746,0.966-2.828,1.186-4.505c0.488-0.462,0.46-1.438,0.948-1.897
			c0.034-0.914,0.801-1.096,0.711-2.133c-0.045-0.193-0.238-0.236-0.238-0.475c-0.485-0.959-2.013-0.693-2.607,0
			c-0.735,0.608-1.058,1.63-1.659,2.371c-0.758,1.85-1.467,3.748-2.134,5.69c-0.392-0.104-0.392-1.791,0-1.897v-2.371
			c0.759-3.982,1.755-7.727,3.556-10.668c0.542-1.829,1.77-2.973,2.608-4.506c1.149-1.142,1.924-2.66,3.556-3.318
			c12.474,0.438,27.642,1.41,38.171-1.424c0.276,0.039,0.422-0.052,0.474-0.236c0.276-0.037,0.423,0.053,0.475,0.236
			c1.079,0.185,1.248,1.281,2.134,1.662c0.265,0.92,1.157,1.211,1.423,2.131c1.281,1.17,2.243,2.657,3.556,3.796
			c0.993,2.403,2.42,4.376,3.319,6.874c0.991,2.329,1.562,5.076,2.134,7.824c-0.089,1.432,0.066,2.62,0.237,3.793v0.713
			C92.334,70.596,91.841,71.368,92.024,72.815z M93.209,54.084c-0.175-0.807,0.874-0.39,0.948-0.947
			c0.73,0.176,0.456-0.65,1.186-0.475c0.558-0.627,1.48-0.889,2.134-1.422c1.532-0.76,3.007-1.576,5.216-1.659
			c1.103-0.456,2.983-0.316,3.556,0.475c0.163,1.979-0.692,2.942-1.66,3.793c-0.884,0.933-1.566,2.068-2.845,2.606
			c-1.661,1.897-4.03,3.084-6.401,4.268C94.912,58.231,94.029,56.19,93.209,54.084z M115.495,50.528
			c-0.036,0.755-0.537,1.044-0.475,1.896c-2.385,3.858-5.654,6.832-9.009,9.721c-1.83,1.331-3.405,2.917-5.215,4.268
			c-0.691,0.89-1.481,1.681-2.371,2.372c-0.155,0.635-0.68,0.9-0.948,1.422c-0.669,0.042-0.296,1.126-1.186,0.949
			c0.025-2.477,0.044-4.943-0.237-7.114c0.814,0.104,1.329-0.093,1.897-0.235c4.724-2.547,8.76-5.783,11.617-10.195
			c-0.114-0.746,0.337-0.928,0.474-1.424v-2.844c-0.553-1.503-1.525-2.586-2.845-3.318c-0.337,0.02-0.672,0.038-0.711-0.238h-4.268
			c-0.559-0.006-0.698,0.408-1.423,0.238c-1.684,0.687-3.482,1.26-4.979,2.132c-1.565,0.806-2.546,2.195-4.268,2.846
			c-0.378-1.044-1.139-1.706-1.66-2.608c-0.341-0.371-0.597-0.824-1.185-0.947c-0.217-0.417-0.081-1.184-0.475-1.422
			c0.84-0.749,1.535,0.666,2.845,0.234c0.748,0.118,0.837-0.426,1.659-0.234c4.756-1.49,8.814-3.674,15.648-3.084
			c2.527,0.398,4.341,1.508,5.927,2.846c0.175,0.693,0.573,1.166,0.948,1.66c-0.02,0.336-0.039,0.672,0.237,0.71V50.528z
			 M62.625,63.569c-0.392-0.558-1.383-0.513-2.371-0.475c-0.051,0.267-0.263,0.368-0.475,0.475
			c-0.962,1.248-2.014,2.411-2.845,3.793c-0.992,1.22-2.481,1.944-2.371,4.269c1.993,1.699,3.816-1.087,5.215-2.135
			C60.78,67.57,62.873,66.741,62.625,63.569z M64.047,69.26h-0.948c-0.062,0.333-0.521,0.27-0.711,0.475
			c-1.087,1.203-1.99,2.592-3.082,3.793c-0.764,1.527-2.582,2-2.371,4.503c2.475,0.807,3.365-1.784,4.742-2.845
			c0.802-1.963,2.884-2.646,2.844-5.451C64.256,69.684,64.153,69.469,64.047,69.26z"/>
	</g>
</g>
<g>
</g>
<g>
</g>
<g>
</g>
<g>
</g>
<g>
</g>
<g>
</g>
<g>
</g>
<g>
</g>
<g>
</g>
<g>
</g>
<g>
</g>
<g>
</g>
<g>
</g>
<g>
</g>
<g>
</g>
</svg>
