<?xml version="1.0" encoding="UTF-8" standalone="no"?>
<!-- Generator: Adobe Illustrator 16.0.0, SVG Export Plug-In . SVG Version: 6.00 Build 0)  -->

<svg
   xmlns:dc="http://purl.org/dc/elements/1.1/"
   xmlns:cc="http://creativecommons.org/ns#"
   xmlns:rdf="http://www.w3.org/1999/02/22-rdf-syntax-ns#"
   xmlns:svg="http://www.w3.org/2000/svg"
   xmlns="http://www.w3.org/2000/svg"
   xmlns:sodipodi="http://sodipodi.sourceforge.net/DTD/sodipodi-0.dtd"
   xmlns:inkscape="http://www.inkscape.org/namespaces/inkscape"
   version="1.1"
   id="Capa_1"
   x="0px"
   y="0px"
   width="21.664px"
   height="21.665px"
   viewBox="0 0 21.664 21.665"
   style="enable-background:new 0 0 21.664 21.665;"
   xml:space="preserve"
   inkscape:version="0.91 r13725"
   sodipodi:docname="coffee.svg"><metadata
     id="metadata49"><rdf:RDF><cc:Work
         rdf:about=""><dc:format>image/svg+xml</dc:format><dc:type
           rdf:resource="http://purl.org/dc/dcmitype/StillImage" /></cc:Work></rdf:RDF></metadata><defs
     id="defs47" /><sodipodi:namedview
     pagecolor="#ffffff"
     bordercolor="#666666"
     borderopacity="1"
     objecttolerance="10"
     gridtolerance="10"
     guidetolerance="10"
     inkscape:pageopacity="0"
     inkscape:pageshadow="2"
     inkscape:window-width="1280"
     inkscape:window-height="709"
     id="namedview45"
     showgrid="false"
     inkscape:zoom="21.78629"
     inkscape:cx="9.632507"
     inkscape:cy="9.9032188"
     inkscape:window-x="0"
     inkscape:window-y="0"
     inkscape:window-maximized="1"
     inkscape:current-layer="g5" /><g
     id="g3"><g
       id="g5"><path
         d="m 20.865,12.844001 c -0.752,-0.609 -1.811,-0.619 -2.508,-0.542 0.02,-0.486 0.031,-0.983 0.031,-1.5 l -18.388,0 c 0,4.97 0.752,8.556 5.511,9.894 l 7.366,0 c 1.885,-0.529 3.135,-1.418 3.964,-2.6 1.806,-0.035 4.711,-0.746 4.82,-3.24 0.047,-1.092 -0.407,-1.698 -0.796,-2.012 z m -3.267,3.826 c 0.346,-0.889 0.551,-1.889 0.664,-2.988 0.488,-0.08 1.329,-0.131 1.754,0.215 0.078,0.064 0.321,0.262 0.293,0.901 -0.057,1.292 -1.661,1.726 -2.711,1.872 z"
         id="path9"
         inkscape:connector-curvature="0" /><path
         d="m 7.491,9.6650009 c 0,0 3.5,-0.2570002 1.896,-3.2080009 -1.288,-2.369 -0.994,-3.759 0.654,-5.015 0,0 -5.398,1.375 -2.25,5.6299996 1.155,1.8540006 -0.3,2.5930013 -0.3,2.5930013 z"
         id="path11"
         inkscape:connector-curvature="0" /><path
         d="m 9.85,9.4290007 c 0,0 2.804,-0.5910006 1.278,-2.8460007 -0.554,-0.978 0.21,-1.327 0.21,-1.327 0,0 -1.805,0.057 -1.043,1.6079996 0.61,1.2470003 0.429,1.9550005 -0.445,2.5650011 z"
         id="path13"
         inkscape:connector-curvature="0" /></g></g><g
     id="g15" /><g
     id="g17" /><g
     id="g19" /><g
     id="g21" /><g
     id="g23" /><g
     id="g25" /><g
     id="g27" /><g
     id="g29" /><g
     id="g31" /><g
     id="g33" /><g
     id="g35" /><g
     id="g37" /><g
     id="g39" /><g
     id="g41" /><g
     id="g43" /></svg>