<?xml version="1.0" encoding="UTF-8" standalone="no"?>
<!-- Generator: Adobe Illustrator 16.0.0, SVG Export Plug-In . SVG Version: 6.00 Build 0)  -->

<svg
   xmlns:dc="http://purl.org/dc/elements/1.1/"
   xmlns:cc="http://creativecommons.org/ns#"
   xmlns:rdf="http://www.w3.org/1999/02/22-rdf-syntax-ns#"
   xmlns:svg="http://www.w3.org/2000/svg"
   xmlns="http://www.w3.org/2000/svg"
   xmlns:sodipodi="http://sodipodi.sourceforge.net/DTD/sodipodi-0.dtd"
   xmlns:inkscape="http://www.inkscape.org/namespaces/inkscape"
   version="1.1"
   id="Capa_1"
   x="0px"
   y="0px"
   width="947.516px"
   height="947.516px"
   viewBox="0 0 947.516 947.516"
   style="enable-background:new 0 0 947.516 947.516;"
   xml:space="preserve"
   inkscape:version="0.91 r13725"
   sodipodi:docname="burger.svg"><metadata
     id="metadata49"><rdf:RDF><cc:Work
         rdf:about=""><dc:format>image/svg+xml</dc:format><dc:type
           rdf:resource="http://purl.org/dc/dcmitype/StillImage" /></cc:Work></rdf:RDF></metadata><defs
     id="defs47" /><sodipodi:namedview
     pagecolor="#ffffff"
     bordercolor="#666666"
     borderopacity="1"
     objecttolerance="10"
     gridtolerance="10"
     guidetolerance="10"
     inkscape:pageopacity="0"
     inkscape:pageshadow="2"
     inkscape:window-width="1280"
     inkscape:window-height="709"
     id="namedview45"
     showgrid="false"
     inkscape:zoom="0.49814463"
     inkscape:cx="590.37055"
     inkscape:cy="560.25291"
     inkscape:window-x="0"
     inkscape:window-y="0"
     inkscape:window-maximized="1"
     inkscape:current-layer="g5" /><g
     id="g3"><g
       id="g5"
       transform="translate(-1.0037246,0)"><path
         d="m 44.579,617.98459 459.752,0 c 5.855,0 10.858,-4.744 10.701,-10.597 -0.889,-33.234 -13.227,-133.217 -129.477,-133.217 l -222.2,0 c -116.04,0 -128.518,99.982 -129.46,133.217 -0.165,5.852 4.829,10.597 10.684,10.597 z"
         id="path7"
         inkscape:connector-curvature="0"
         sodipodi:nodetypes="sscsscs" /><path
         d="m 163.355,827.19568 222.157,0 c 109.891,0 126.931,-56.737 129.217,-80.801 0.553,-5.828 -4.585,-10.587 -10.439,-10.587 l -459.711,0 c -5.855,0 -10.978,4.758 -10.408,10.585 2.352,24.064 19.526,80.803 129.184,80.803 z"
         id="path9"
         inkscape:connector-curvature="0" /><path
         d="m 511.588,714.124 c 20.618,0 37.332,-16.714 37.332,-37.332 0,-20.618 -16.714,-37.332 -37.332,-37.332 l -474.256,0 C 16.714,639.46 0,656.174 0,676.792 c 0,20.618 16.714,37.332 37.332,37.332 l 474.256,0 z"
         id="path11"
         inkscape:connector-curvature="0" /><path
         d="m 526.252,301.45 75.43,532.314 c 0.82,5.797 6.232,10.496 12.088,10.496 l 213.534,0 c 5.854,0 11.269,-4.699 12.094,-10.495 L 915.104,301.45 c -537.39007,1.09115 72.7044,0.4582 -388.852,0 z"
         id="path13"
         inkscape:connector-curvature="0"
         sodipodi:nodetypes="ccssccc" /><path
         id="path4179"
         d="m 937.91673,238.49299 -87.321,0 10.622,-42.131 22.038,-87.411 c 1.432,-5.678 -1.994,-11.505997 -7.648,-13.018986 l -17.72,-4.73799 c -5.655,-1.512 -11.384,1.867993 -12.793,7.551979 l -24.21,97.616997 -10.448,42.131 -304.983,0 c -5.855,0 -10.601,4.745 -10.601,10.601 l 0,29.331 c 0,5.854 4.745,10.602 10.601,10.602 l 21.802,0 c 318.61016,-0.22486 95.42067,-0.33323 388.852,0 l 21.811,0 c 5.854,0 10.602,-4.747 10.602,-10.602 l 0,-29.331 c -0.002,-5.857 -4.748,-10.602 -10.604,-10.602 z"
         inkscape:connector-curvature="0"
         sodipodi:nodetypes="sccccscccssssccsscs" /></g></g><g
     id="g15" /><g
     id="g17" /><g
     id="g19" /><g
     id="g21" /><g
     id="g23" /><g
     id="g25" /><g
     id="g27" /><g
     id="g29" /><g
     id="g31" /><g
     id="g33" /><g
     id="g35" /><g
     id="g37" /><g
     id="g39" /><g
     id="g41" /><g
     id="g43" /></svg>