<?xml version="1.0" encoding="UTF-8" standalone="no"?>
<!-- Generator: Adobe Illustrator 16.0.0, SVG Export Plug-In . SVG Version: 6.00 Build 0)  -->

<svg
   xmlns:dc="http://purl.org/dc/elements/1.1/"
   xmlns:cc="http://creativecommons.org/ns#"
   xmlns:rdf="http://www.w3.org/1999/02/22-rdf-syntax-ns#"
   xmlns:svg="http://www.w3.org/2000/svg"
   xmlns="http://www.w3.org/2000/svg"
   xmlns:sodipodi="http://sodipodi.sourceforge.net/DTD/sodipodi-0.dtd"
   xmlns:inkscape="http://www.inkscape.org/namespaces/inkscape"
   version="1.1"
   id="Capa_1"
   x="0px"
   y="0px"
   width="47.342px"
   height="47.342px"
   viewBox="0 0 47.342 47.342"
   style="enable-background:new 0 0 47.342 47.342;"
   xml:space="preserve"
   inkscape:version="0.91 r13725"
   sodipodi:docname="bread.svg"><metadata
     id="metadata43"><rdf:RDF><cc:Work
         rdf:about=""><dc:format>image/svg+xml</dc:format><dc:type
           rdf:resource="http://purl.org/dc/dcmitype/StillImage" /><dc:title></dc:title></cc:Work></rdf:RDF></metadata><defs
     id="defs41" /><sodipodi:namedview
     pagecolor="#ffffff"
     bordercolor="#666666"
     borderopacity="1"
     objecttolerance="10"
     gridtolerance="10"
     guidetolerance="10"
     inkscape:pageopacity="0"
     inkscape:pageshadow="2"
     inkscape:window-width="1280"
     inkscape:window-height="709"
     id="namedview39"
     showgrid="false"
     inkscape:zoom="9.9700057"
     inkscape:cx="29.133191"
     inkscape:cy="22.821265"
     inkscape:window-x="0"
     inkscape:window-y="0"
     inkscape:window-maximized="1"
     inkscape:current-layer="g5" /><g
     id="g3"><g
       id="g5"><path
         d="M 36.641337,14.938886 C 36.751036,18.29739 38.188,22.067 37.971,23.707 c -0.021,0.151 -0.147,0.265 -0.301,0.271 -0.152,0.005 -0.285,-0.103 -0.316,-0.251 -0.871,-4.412 -2.584,-8.213 -3.656,-10.305 -0.116,-0.226 -0.32,-0.393 -0.564,-0.462 -2.828,-0.793 -5.451,-1.07 -7.082,-1.158 -0.709389,0.06488 -1.693712,0.125374 -1.537805,1.07385 0.995,4.145 1.331805,8.77015 1.091805,11.09315 -0.016,0.149 -0.135,0.267 -0.283,0.279 -0.148,0.014 -0.286,-0.081 -0.327,-0.224 C 24.212,21.305 23.488159,15.47985 21.729159,12.47385 21.550159,12.16785 20.156,12.043 19.804,12.076 c -2.388,0.223 -4.684,0.566 -6.73,1.493 l -0.002,0 c -0.405,0 -0.646,0.435 -0.579,0.863 0.596,3.762 0.32,7.263 0.045,9.34 -0.021,0.151 -0.146,0.232 -0.3,0.237 -0.152,0.005 -0.286,-0.117 -0.316,-0.268 -0.563,-2.852 0.222162,-6.167234 -0.645838,-8.215234 C 9.9699385,14.363815 9.4754887,15.013291 7.969,15.695 2.459,18.895 0,22.635 0,26.454 c 0,8.124 10.598,9.087 23.671,9.087 13.073,0 23.67,-0.963 23.67,-9.087 C 47.00156,21.711828 38.389414,13.202494 36.641337,14.938886 Z"
         id="path7"
         inkscape:connector-curvature="0"
         sodipodi:nodetypes="ccccccccccccccsccccccsscc" /></g></g><g
     id="g9" /><g
     id="g11" /><g
     id="g13" /><g
     id="g15" /><g
     id="g17" /><g
     id="g19" /><g
     id="g21" /><g
     id="g23" /><g
     id="g25" /><g
     id="g27" /><g
     id="g29" /><g
     id="g31" /><g
     id="g33" /><g
     id="g35" /><g
     id="g37" /></svg>