<?xml version="1.0" encoding="UTF-8" standalone="no"?>
<!-- Generator: Adobe Illustrator 16.0.0, SVG Export Plug-In . SVG Version: 6.00 Build 0)  -->

<svg
   xmlns:dc="http://purl.org/dc/elements/1.1/"
   xmlns:cc="http://creativecommons.org/ns#"
   xmlns:rdf="http://www.w3.org/1999/02/22-rdf-syntax-ns#"
   xmlns:svg="http://www.w3.org/2000/svg"
   xmlns="http://www.w3.org/2000/svg"
   xmlns:sodipodi="http://sodipodi.sourceforge.net/DTD/sodipodi-0.dtd"
   xmlns:inkscape="http://www.inkscape.org/namespaces/inkscape"
   version="1.1"
   id="Capa_1"
   x="0px"
   y="0px"
   width="950px"
   height="950px"
   viewBox="0 0 950 950"
   style="enable-background:new 0 0 950 950;"
   xml:space="preserve"
   inkscape:version="0.91 r13725"
   sodipodi:docname="pas.svg"><metadata
     id="metadata43"><rdf:RDF><cc:Work
         rdf:about=""><dc:format>image/svg+xml</dc:format><dc:type
           rdf:resource="http://purl.org/dc/dcmitype/StillImage" /></cc:Work></rdf:RDF></metadata><defs
     id="defs41" /><sodipodi:namedview
     pagecolor="#ffffff"
     bordercolor="#666666"
     borderopacity="1"
     objecttolerance="10"
     gridtolerance="10"
     guidetolerance="10"
     inkscape:pageopacity="0"
     inkscape:pageshadow="2"
     inkscape:window-width="1280"
     inkscape:window-height="709"
     id="namedview39"
     showgrid="false"
     inkscape:zoom="0.49684211"
     inkscape:cx="592.65357"
     inkscape:cy="507.81994"
     inkscape:window-x="0"
     inkscape:window-y="0"
     inkscape:window-maximized="1"
     inkscape:current-layer="Capa_1" /><g
     id="g9" /><g
     id="g11" /><g
     id="g13" /><g
     id="g15" /><g
     id="g17" /><g
     id="g19" /><g
     id="g21" /><g
     id="g23" /><g
     id="g25" /><g
     id="g27" /><g
     id="g29" /><g
     id="g31" /><g
     id="g33" /><g
     id="g35" /><g
     id="g37" /><g
     id="g4150"><g
       transform="matrix(1,0,0,1.1340431,0,-151.02317)"
       id="g3"><path
         inkscape:connector-curvature="0"
         id="path5"
         d="m 901.261,449.657 c -16.71,-43.479 -35.013,-91.496 -64.4,-128.276 -22.216,-27.803 -63.87,-51.881 -100.746,-46.25 -0.479,0.073 -3.56,0.746 -8.913,1.943 1.331,9.227 2.011,18.583 2.011,28.039 0,26.248 -5.153,51.743 -15.318,75.776 -9.807,23.184 -23.831,43.991 -41.686,61.847 -17.854,17.854 -38.663,31.88 -61.846,41.685 -24.033,10.165 -49.528,15.319 -75.776,15.319 -26.248,0 -51.742,-5.154 -75.775,-15.319 -23.184,-9.806 -43.991,-23.831 -61.847,-41.685 -17.854,-17.855 -31.88,-38.663 -41.685,-61.847 -2.411,-5.7 -4.53,-11.485 -6.375,-17.34 -152.941,35.083 -294.746,67.669 -303.027,69.597 -7.299,1.699 -16.184,2.713 -22.735,6.199 -5.526,2.94 -9.487,7.641 -9.487,15.993 l 0,381.766 c 0,15.044 15.905,28.903 35.503,30.944 l 141.915,14.758 638.322,66.438 c 58.699,6.117 106.354,-25.531 106.354,-70.708 0,-28.52 -18.981,-55.522 -47.74,-73.177 28.759,-11.623 47.745,-34.733 47.745,-63.21 0,-28.471 -18.984,-55.474 -47.693,-73.079 84.847,-34.563 36.914,-157.705 13.199,-219.413 z M 714.38,875.212 88.654,810.058 l 0,-62.544 625.726,65.105 c 58.701,6.123 106.347,25.059 106.347,42.329 0,17.275 -47.646,26.386 -106.347,20.264 z m 0,-124.661 -625.726,-65.155 0,-62.593 625.726,65.202 c 58.701,6.123 106.347,25.054 106.347,42.329 0,17.272 -47.646,26.34 -106.347,20.217 z m 0,-124.661 -625.726,-65.11 0,-62.593 625.726,65.11 c 58.701,6.118 106.347,25.104 106.347,42.373 0,17.324 -47.646,26.338 -106.347,20.22 z" /></g><circle
       r="175"
       cy="211.24606"
       cx="535.07013"
       id="path4171"
       style="opacity:1;fill:#000000;fill-opacity:1;fill-rule:nonzero;stroke:none;stroke-width:4;stroke-linejoin:round;stroke-miterlimit:4;stroke-dasharray:none;stroke-opacity:1" /></g></svg>