<?xml version="1.0" encoding="UTF-8" standalone="no"?>
<!-- Generator: Adobe Illustrator 16.0.0, SVG Export Plug-In . SVG Version: 6.00 Build 0)  -->

<svg
   xmlns:dc="http://purl.org/dc/elements/1.1/"
   xmlns:cc="http://creativecommons.org/ns#"
   xmlns:rdf="http://www.w3.org/1999/02/22-rdf-syntax-ns#"
   xmlns:svg="http://www.w3.org/2000/svg"
   xmlns="http://www.w3.org/2000/svg"
   xmlns:sodipodi="http://sodipodi.sourceforge.net/DTD/sodipodi-0.dtd"
   xmlns:inkscape="http://www.inkscape.org/namespaces/inkscape"
   version="1.1"
   id="Capa_1"
   x="0px"
   y="0px"
   width="950px"
   height="950px"
   viewBox="0 0 950 950"
   style="enable-background:new 0 0 950 950;"
   xml:space="preserve"
   inkscape:version="0.91 r13725"
   sodipodi:docname="cake.svg"><metadata
     id="metadata43"><rdf:RDF><cc:Work
         rdf:about=""><dc:format>image/svg+xml</dc:format><dc:type
           rdf:resource="http://purl.org/dc/dcmitype/StillImage" /></cc:Work></rdf:RDF></metadata><defs
     id="defs41" /><sodipodi:namedview
     pagecolor="#ffffff"
     bordercolor="#666666"
     borderopacity="1"
     objecttolerance="10"
     gridtolerance="10"
     guidetolerance="10"
     inkscape:pageopacity="0"
     inkscape:pageshadow="2"
     inkscape:window-width="1280"
     inkscape:window-height="709"
     id="namedview39"
     showgrid="false"
     inkscape:zoom="0.49684211"
     inkscape:cx="559.20647"
     inkscape:cy="436.48682"
     inkscape:window-x="0"
     inkscape:window-y="0"
     inkscape:window-maximized="1"
     inkscape:current-layer="Capa_1" /><g
     id="g3"><path
       d="M901.261,449.657c-16.71-43.479-35.013-91.496-64.4-128.276c-22.216-27.803-63.87-51.881-100.746-46.25   c-0.479,0.073-3.56,0.746-8.913,1.943c1.331,9.227,2.011,18.583,2.011,28.039c0,26.248-5.153,51.743-15.318,75.776   c-9.807,23.184-23.831,43.991-41.686,61.847c-17.854,17.854-38.663,31.88-61.846,41.685   c-24.033,10.165-49.528,15.319-75.776,15.319s-51.742-5.154-75.775-15.319c-23.184-9.806-43.991-23.831-61.847-41.685   c-17.854-17.855-31.88-38.663-41.685-61.847c-2.411-5.7-4.53-11.485-6.375-17.34c-152.941,35.083-294.746,67.669-303.027,69.597   c-7.299,1.699-16.184,2.713-22.735,6.199c-5.526,2.94-9.487,7.641-9.487,15.993v381.766c0,15.044,15.905,28.903,35.503,30.944   l141.915,14.758l638.322,66.438c58.699,6.117,106.354-25.531,106.354-70.708c0-28.52-18.981-55.522-47.74-73.177   c28.759-11.623,47.745-34.733,47.745-63.21c0-28.471-18.984-55.474-47.693-73.079C972.909,634.507,924.976,511.365,901.261,449.657   z M714.38,875.212L88.654,810.058v-62.544l625.726,65.105c58.701,6.123,106.347,25.059,106.347,42.329   C820.727,872.223,773.081,881.334,714.38,875.212z M714.38,750.551L88.654,685.396v-62.593l625.726,65.202   c58.701,6.123,106.347,25.054,106.347,42.329C820.727,747.606,773.081,756.674,714.38,750.551z M714.38,625.89L88.654,560.78   v-62.593l625.726,65.11c58.701,6.118,106.347,25.104,106.347,42.373C820.727,622.994,773.081,632.008,714.38,625.89z"
       id="path5" /></g><g
     id="g9" /><g
     id="g11" /><g
     id="g13" /><g
     id="g15" /><g
     id="g17" /><g
     id="g19" /><g
     id="g21" /><g
     id="g23" /><g
     id="g25" /><g
     id="g27" /><g
     id="g29" /><g
     id="g31" /><g
     id="g33" /><g
     id="g35" /><g
     id="g37" /><circle
     style="opacity:1;fill:#000000;fill-opacity:1;fill-rule:nonzero;stroke:none;stroke-width:4;stroke-linejoin:round;stroke-miterlimit:4;stroke-dasharray:none;stroke-opacity:1"
     id="path4171"
     cx="533.07013"
     cy="301.24606"
     r="175" /></svg>