<?xml version="1.0" encoding="UTF-8" standalone="no"?>
<!-- Generator: Adobe Illustrator 16.0.0, SVG Export Plug-In . SVG Version: 6.00 Build 0)  -->

<svg
   xmlns:dc="http://purl.org/dc/elements/1.1/"
   xmlns:cc="http://creativecommons.org/ns#"
   xmlns:rdf="http://www.w3.org/1999/02/22-rdf-syntax-ns#"
   xmlns:svg="http://www.w3.org/2000/svg"
   xmlns="http://www.w3.org/2000/svg"
   xmlns:sodipodi="http://sodipodi.sourceforge.net/DTD/sodipodi-0.dtd"
   xmlns:inkscape="http://www.inkscape.org/namespaces/inkscape"
   version="1.1"
   id="Capa_1"
   x="0px"
   y="0px"
   width="45.001px"
   height="45.001px"
   viewBox="0 0 45.001 45.001"
   style="enable-background:new 0 0 45.001 45.001;"
   xml:space="preserve"
   inkscape:version="0.91 r13725"
   sodipodi:docname="pizza.svg"><metadata
     id="metadata51"><rdf:RDF><cc:Work
         rdf:about=""><dc:format>image/svg+xml</dc:format><dc:type
           rdf:resource="http://purl.org/dc/dcmitype/StillImage" /></cc:Work></rdf:RDF></metadata><defs
     id="defs49" /><sodipodi:namedview
     pagecolor="#ffffff"
     bordercolor="#666666"
     borderopacity="1"
     objecttolerance="10"
     gridtolerance="10"
     guidetolerance="10"
     inkscape:pageopacity="0"
     inkscape:pageshadow="2"
     inkscape:window-width="1280"
     inkscape:window-height="709"
     id="namedview47"
     showgrid="false"
     inkscape:zoom="7.4165997"
     inkscape:cx="20.242023"
     inkscape:cy="19.663823"
     inkscape:window-x="0"
     inkscape:window-y="0"
     inkscape:window-maximized="1"
     inkscape:current-layer="Capa_1" /><g
     id="g3"><g
       id="g5"><g
         id="g7"><path
           d="M6.42,30.262C1.3,21.393,4.351,10.01,13.22,4.889c8.867-5.12,20.248-2.071,25.368,6.798     c3.629,6.286,3.138,13.82-0.602,19.507l2.002,1.321c4.228-6.416,4.78-14.917,0.676-22.03C34.873,0.457,22.048-2.977,12.021,2.813     C1.993,8.604-1.446,21.425,4.346,31.458C8.45,38.569,16.089,42.34,23.758,41.886l-0.143-2.395     C16.824,39.89,10.048,36.547,6.42,30.262z"
           id="path9" /><path
           d="M33.588,40.17c-2.584,1.491-5.38,2.272-8.175,2.432l0.145,2.399c3.152-0.188,6.308-1.067,9.229-2.757     c2.921-1.686,5.263-3.979,7.001-6.613l-2.002-1.322C38.245,36.647,36.17,38.678,33.588,40.17z"
           id="path11" /><path
           d="m 38.785,33.649 -14.483,-9.563 1.039,17.322 c 2.615,-0.151 5.23,-0.882 7.648,-2.276 2.417,-1.394 4.356,-3.298 5.796,-5.483 z m -8.527,4.998 c -0.084,0.318 -0.284,0.584 -0.567,0.742 -0.187,0.108 -0.397,0.165 -0.61,0.165 -0.434,0 -0.841,-0.23 -1.06,-0.61 -0.162,-0.28 -0.206,-0.612 -0.121,-0.927 0.084,-0.314 0.287,-0.577 0.568,-0.742 0.186,-0.104 0.396,-0.164 0.607,-0.164 0.438,0 0.843,0.236 1.062,0.61 0.162,0.286 0.206,0.612 0.121,0.926 z"
           id="path13"
           inkscape:connector-curvature="0"
           sodipodi:nodetypes="cccccccscccscc" /><path
           d="M 37.55,12.286 C 32.76,3.989 22.113,1.139 13.819,5.928 5.522,10.718 2.668,21.363 7.458,29.66 c 3.395,5.881 9.729,9.008 16.083,8.634 L 22.504,20.972 36.985,30.535 C 40.488,25.217 40.946,18.167 37.55,12.286 Z M 12.814,10.159 c 0.187,-0.106 0.396,-0.162 0.608,-0.162 0.437,0 0.841,0.234 1.06,0.612 0.162,0.283 0.206,0.613 0.124,0.927 -0.084,0.314 -0.286,0.578 -0.569,0.742 -0.187,0.107 -0.396,0.163 -0.61,0.163 -0.435,0 -0.84,-0.235 -1.059,-0.613 -0.339,-0.582 -0.136,-1.331 0.446,-1.669 z m 1.375,18.709 c -0.456,0.261 -0.972,0.397 -1.492,0.397 -1.069,0 -2.062,-0.571 -2.593,-1.493 -0.827,-1.433 -0.336,-3.263 1.09,-4.088 0.454,-0.263 0.967,-0.398 1.489,-0.398 1.068,0 2.062,0.573 2.596,1.496 0.821,1.426 0.33,3.261 -1.09,4.086 z m 6.021,3.652 c -0.187,0.104 -0.396,0.165 -0.61,0.165 -0.437,0 -0.842,-0.236 -1.06,-0.611 -0.338,-0.587 -0.135,-1.335 0.447,-1.668 0.188,-0.11 0.398,-0.166 0.612,-0.166 0.436,0 0.84,0.23 1.058,0.61 0.336,0.582 0.136,1.331 -0.447,1.67 z m 6.822,-22.019 c -0.33,0.19 -0.705,0.291 -1.084,0.291 -0.775,0 -1.499,-0.417 -1.887,-1.086 -0.599,-1.04 -0.241,-2.371 0.796,-2.972 0.331,-0.189 0.706,-0.291 1.087,-0.291 0.773,0 1.497,0.417 1.883,1.088 0.602,1.037 0.245,2.37 -0.795,2.97 z m 5.159,13.853 c -0.187,0.108 -0.397,0.164 -0.612,0.164 -0.436,0 -0.84,-0.23 -1.059,-0.608 -0.336,-0.585 -0.137,-1.334 0.446,-1.671 0.188,-0.107 0.396,-0.162 0.609,-0.162 0.438,0 0.841,0.233 1.059,0.61 0.341,0.583 0.141,1.329 -0.443,1.667 z"
           id="path15"
           inkscape:connector-curvature="0"
           sodipodi:nodetypes="ccccccccscccscccsccscccsccscccsccscccsccscc" /></g></g></g><g
     id="g17" /><g
     id="g19" /><g
     id="g21" /><g
     id="g23" /><g
     id="g25" /><g
     id="g27" /><g
     id="g29" /><g
     id="g31" /><g
     id="g33" /><g
     id="g35" /><g
     id="g37" /><g
     id="g39" /><g
     id="g41" /><g
     id="g43" /><g
     id="g45" /></svg>