<?xml version="1.0" encoding="UTF-8" standalone="no"?>
<!-- Generator: Adobe Illustrator 16.0.0, SVG Export Plug-In . SVG Version: 6.00 Build 0)  -->

<svg
   xmlns:dc="http://purl.org/dc/elements/1.1/"
   xmlns:cc="http://creativecommons.org/ns#"
   xmlns:rdf="http://www.w3.org/1999/02/22-rdf-syntax-ns#"
   xmlns:svg="http://www.w3.org/2000/svg"
   xmlns="http://www.w3.org/2000/svg"
   xmlns:sodipodi="http://sodipodi.sourceforge.net/DTD/sodipodi-0.dtd"
   xmlns:inkscape="http://www.inkscape.org/namespaces/inkscape"
   version="1.1"
   id="Capa_1"
   x="0px"
   y="0px"
   width="380.721px"
   height="380.722px"
   viewBox="0 0 380.721 380.722"
   style="enable-background:new 0 0 380.721 380.722;"
   xml:space="preserve"
   inkscape:version="0.91 r13725"
   sodipodi:docname="waiter.svg"><metadata
     id="metadata49"><rdf:RDF><cc:Work
         rdf:about=""><dc:format>image/svg+xml</dc:format><dc:type
           rdf:resource="http://purl.org/dc/dcmitype/StillImage" /></cc:Work></rdf:RDF></metadata><defs
     id="defs47" /><sodipodi:namedview
     pagecolor="#ffffff"
     bordercolor="#666666"
     borderopacity="1"
     objecttolerance="10"
     gridtolerance="10"
     guidetolerance="10"
     inkscape:pageopacity="0"
     inkscape:pageshadow="2"
     inkscape:window-width="1280"
     inkscape:window-height="709"
     id="namedview45"
     showgrid="false"
     inkscape:zoom="0.87663548"
     inkscape:cx="177.3859"
     inkscape:cy="294.98074"
     inkscape:window-x="0"
     inkscape:window-y="0"
     inkscape:window-maximized="1"
     inkscape:current-layer="Capa_1" /><g
     id="g3"><g
       id="g5"><path
         d="m 357.379,195.316 c 0.267,-3.486 0.418,-7.018 0.418,-10.567 0,-66.981 -48.811,-122.147 -111.621,-129.455 4.055,-3.793 6.623,-9.173 6.623,-15.157 0.023,-11.502 -9.295,-20.809 -20.774,-20.809 -11.491,0 -20.82,9.307 -20.82,20.809 0,5.996 2.556,11.363 6.622,15.157 -62.805,7.308 -111.603,62.474 -111.603,129.455 0,3.538 0.127,7.023 0.389,10.498 303.82716,-0.0175 74.3089,0.0653 250.766,0.069 z"
         id="path7"
         inkscape:connector-curvature="0"
         sodipodi:nodetypes="csccsscscc" /><rect
         x="83.329"
         y="202.995"
         width="297.392"
         height="26.236"
         id="rect9" /><path
         d="M258.631,247.855c-15.115,7.343-67.818,26.351-67.818,26.351l-62.299-3.903c0,0,35.635-9.911,49.449-13.013    c13.838-3.091,7.819-18.694,0.168-18.694c-7.65,0-74.324,2.753-74.324,2.753L59.534,257.29l11.717,74.162    c0,0,9.115-15.604,18.207-15.604c9.126,0,88.174,2.103,98.904,0c10.736-2.127,76.126-46.859,83.957-52.076    C280.115,258.579,273.805,240.501,258.631,247.855z"
         id="path11" /><polygon
         points="0,265.261 0,361.394 67.83,348.694 50.861,256.313   "
         id="polygon13" /></g></g><g
     id="g15" /><g
     id="g17" /><g
     id="g19" /><g
     id="g21" /><g
     id="g23" /><g
     id="g25" /><g
     id="g27" /><g
     id="g29" /><g
     id="g31" /><g
     id="g33" /><g
     id="g35" /><g
     id="g37" /><g
     id="g39" /><g
     id="g41" /><g
     id="g43" /></svg>