<?xml version="1.0" encoding="UTF-8" standalone="no"?>
<!-- Generator: Adobe Illustrator 16.0.0, SVG Export Plug-In . SVG Version: 6.00 Build 0)  -->

<svg
   xmlns:dc="http://purl.org/dc/elements/1.1/"
   xmlns:cc="http://creativecommons.org/ns#"
   xmlns:rdf="http://www.w3.org/1999/02/22-rdf-syntax-ns#"
   xmlns:svg="http://www.w3.org/2000/svg"
   xmlns="http://www.w3.org/2000/svg"
   xmlns:sodipodi="http://sodipodi.sourceforge.net/DTD/sodipodi-0.dtd"
   xmlns:inkscape="http://www.inkscape.org/namespaces/inkscape"
   version="1.1"
   id="Capa_1"
   x="0px"
   y="0px"
   width="947.516px"
   height="947.516px"
   viewBox="0 0 947.516 947.516"
   style="enable-background:new 0 0 947.516 947.516;"
   xml:space="preserve"
   inkscape:version="0.91 r13725"
   sodipodi:docname="ros.svg"><metadata
     id="metadata49"><rdf:RDF><cc:Work
         rdf:about=""><dc:format>image/svg+xml</dc:format><dc:type
           rdf:resource="http://purl.org/dc/dcmitype/StillImage" /></cc:Work></rdf:RDF></metadata><defs
     id="defs47" /><sodipodi:namedview
     pagecolor="#ffffff"
     bordercolor="#666666"
     borderopacity="1"
     objecttolerance="10"
     gridtolerance="10"
     guidetolerance="10"
     inkscape:pageopacity="0"
     inkscape:pageshadow="2"
     inkscape:window-width="1280"
     inkscape:window-height="709"
     id="namedview45"
     showgrid="false"
     inkscape:zoom="0.49814463"
     inkscape:cx="421.74482"
     inkscape:cy="479.95495"
     inkscape:window-x="0"
     inkscape:window-y="0"
     inkscape:window-maximized="1"
     inkscape:current-layer="g5" /><g
     id="g3"><g
       id="g5"
       transform="translate(-1.0037246,0)"><path
         style="fill:#000000"
         d="M 375.58656,894.67372 C 304.1224,874.3143 233.63137,822.44603 180.10959,750.83938 115.01951,663.75553 87.818557,558.34651 106.35757,465.03499 c 8.42747,-42.41765 12.97546,-51.88618 39.09504,-81.3927 13.46326,-15.20913 27.6961,-29.52176 31.62856,-31.806 3.93246,-2.2841 14.56908,-11.60425 23.63702,-20.71118 21.91161,-22.00594 44.5109,-38.56373 69.54057,-50.95033 25.77151,-12.75371 40.2881,-16.25899 95.35342,-23.02453 53.47886,-6.57067 71.11162,-12.06882 147.67001,-46.04559 77.48361,-34.38741 111.42031,-46.09571 146.67771,-50.60423 41.04119,-5.24801 55.25484,-13.92246 80.39852,-49.06593 19.63875,-27.449242 35.93632,-42.262137 46.49809,-42.262137 9.23125,0 23.3469,11.008828 28.93371,22.565501 3.61272,7.473372 10.67249,13.958856 22.42734,20.603106 27.35659,15.4629 39.18072,32.85209 39.18072,57.62152 0,18.36965 -4.21444,30.43457 -15.97446,45.73075 -11.66172,15.1683 -24.10315,21.62656 -46.70135,24.2422 -15.64775,1.81106 -21.88427,4.54235 -35.7928,15.67531 -9.26384,7.41527 -18.74643,14.45197 -21.07237,15.63743 -2.69982,1.37589 -5.32203,9.68847 -7.25168,22.98788 -1.66239,11.45789 -6.5487,29.93927 -10.85846,41.06967 -10.72566,27.70058 -46.15072,91.01782 -76.23289,136.25598 -40.6798,61.17492 -43.57841,69.5948 -54.41042,158.05345 -8.1631,66.66228 -10.68442,77.05911 -33.23381,137.03618 -16.80188,44.68977 -20.51081,51.87042 -40.52059,78.45009 -30.11377,40.00121 -35.45628,45.17186 -53.11897,51.41003 -22.04171,7.78496 -76.13965,6.85275 -106.64392,-1.83774 z M 479.6369,866.53406 c 14.94865,-5.75274 30.22389,-28.66501 36.28569,-54.42704 7.6409,-32.47352 6.55217,-86.00836 -2.53225,-124.51508 -19.64812,-83.28341 -71.54686,-184.51789 -115.2042,-224.71922 -40.25511,-37.0683 -121.74711,-75.04429 -171.16718,-79.76548 -35.22619,-3.36525 -48.44117,1.97185 -71.03112,28.68726 -17.05123,20.16521 -19.38611,24.54193 -24.61492,46.14017 -11.77005,48.61756 -9.88313,104.45849 5.26489,155.81179 42.08996,142.6881 187.79274,265.39819 306.72117,258.31903 14.25202,-0.84907 30.57711,-3.3375 36.27792,-5.53143 z M 391.78493,836.75825 C 288.223,810.35324 185.55566,704.97884 155.52111,594.26479 c -6.85851,-25.28196 -7.55165,-31.8498 -7.39402,-70.06217 0.20872,-50.60491 4.0414,-67.36984 19.61302,-85.79286 18.08698,-21.39893 24.68051,-24.89019 47.00727,-24.89019 38.2049,0 90.90463,20.24487 144.39501,55.47017 25.92696,17.07369 32.51105,23.30647 50.66224,47.95973 22.66458,30.78335 55.7356,94.9025 68.2477,132.3208 15.8036,47.26189 19.69313,68.8189 19.59384,108.59665 -0.11128,44.52427 -5.67508,65.93883 -19.72563,75.91961 -11.84956,8.41731 -58.46971,10.02568 -86.13561,2.97172 z m -82.6652,-219.28684 c 21.00746,-17.36885 7.11383,-68.88237 -23.82874,-88.35002 -20.62948,-12.97906 -58.41038,-5.01944 -65.86861,13.87718 -8.67923,21.99042 0.77823,46.62253 24.09779,62.76481 28.30696,19.59447 51.13355,23.66848 65.59956,11.70803 z m -29.38692,-21.66267 c -13.24213,-3.20003 -34.15049,-17.26871 -41.05044,-27.62174 -5.07624,-7.61676 -5.07843,-7.79386 -0.15207,-12.67798 7.48486,-7.42147 27.83486,-7.92283 40.74203,-1.00405 7.48476,4.0123 20.27118,26.31593 20.27118,35.35939 0,7.22054 -6.48112,9.16528 -19.81021,5.94425 z M 728.60983,255.6133 c 4.39115,-1.49502 15.78103,-8.87444 25.31084,-16.39875 29.67963,-23.43344 33.64648,-25.65596 49.62609,-27.80369 26.21142,-3.5228 36.99981,-8.65908 45.38354,-21.60686 4.25578,-6.57256 7.73772,-14.42489 7.73772,-17.44972 0,-11.25546 -16.5368,-28.28832 -35.50885,-36.57395 -14.51333,-6.33832 -18.89582,-9.84413 -20.04119,-16.0319 -1.9867,-10.73349 -8.46932,-18.95241 -14.94864,-18.95241 -3.2431,0 -14.69303,12.42878 -29.10447,31.59279 -20.85758,27.73574 -26.5884,33.23726 -46.94188,45.06375 -21.11121,12.26694 -23.70499,14.84915 -29.0141,28.88564 -3.20672,8.47781 -5.83042,18.36736 -5.83042,21.97655 0,5.55758 1.28919,6.19142 8.42171,4.14099 4.63187,-1.33154 9.49243,-2.64313 10.80121,-2.91457 1.30886,-0.27089 3.43948,5.83144 4.73483,13.56168 3.94777,23.55864 3.43671,22.80824 12.83224,18.84163 4.70661,-1.98707 12.15022,-4.83602 16.54137,-6.33118 z"
         id="path4250"
         inkscape:connector-curvature="0" /></g></g><g
     id="g15" /><g
     id="g17" /><g
     id="g19" /><g
     id="g21" /><g
     id="g23" /><g
     id="g25" /><g
     id="g27" /><g
     id="g29" /><g
     id="g31" /><g
     id="g33" /><g
     id="g35" /><g
     id="g37" /><g
     id="g39" /><g
     id="g41" /><g
     id="g43" /></svg>