<?xml version="1.0" encoding="UTF-8" standalone="no"?>
<!-- Created with Inkscape (http://www.inkscape.org/) -->

<svg
   xmlns:dc="http://purl.org/dc/elements/1.1/"
   xmlns:cc="http://creativecommons.org/ns#"
   xmlns:rdf="http://www.w3.org/1999/02/22-rdf-syntax-ns#"
   xmlns:svg="http://www.w3.org/2000/svg"
   xmlns="http://www.w3.org/2000/svg"
   xmlns:sodipodi="http://sodipodi.sourceforge.net/DTD/sodipodi-0.dtd"
   xmlns:inkscape="http://www.inkscape.org/namespaces/inkscape"
   width="45.155556mm"
   height="45.155556mm"
   viewBox="0 0 160 160"
   id="svg2"
   version="1.1"
   inkscape:version="0.91 r13725"
   sodipodi:docname="poultry.svg">
  <defs
     id="defs4" />
  <sodipodi:namedview
     id="base"
     pagecolor="#ffffff"
     bordercolor="#666666"
     borderopacity="1.0"
     inkscape:pageopacity="0.0"
     inkscape:pageshadow="2"
     inkscape:zoom="2.8"
     inkscape:cx="83.818774"
     inkscape:cy="69.321301"
     inkscape:document-units="px"
     inkscape:current-layer="layer1"
     showgrid="false"
     fit-margin-top="0"
     fit-margin-left="0"
     fit-margin-right="0"
     fit-margin-bottom="0"
     inkscape:window-width="1280"
     inkscape:window-height="710"
     inkscape:window-x="0"
     inkscape:window-y="1"
     inkscape:window-maximized="1" />
  <metadata
     id="metadata7">
    <rdf:RDF>
      <cc:Work
         rdf:about="">
        <dc:format>image/svg+xml</dc:format>
        <dc:type
           rdf:resource="http://purl.org/dc/dcmitype/StillImage" />
        <dc:title></dc:title>
      </cc:Work>
    </rdf:RDF>
  </metadata>
  <g
     inkscape:label="Livello 1"
     inkscape:groupmode="layer"
     id="layer1"
     transform="translate(-243.57143,-452.36221)">
    <path
       style="fill:#000000"
       d="m 301.16071,577.5048 c -20.04791,-1.4679 -35.625,-5.25024 -35.625,-8.65024 0,-0.902 20.96051,-1.31378 66.875,-1.31378 42.57491,0 66.875,0.44254 66.875,1.2179 0,1.67167 -5.67345,4.37332 -12.88528,6.13586 -14.05901,3.43596 -56.29752,4.72941 -85.23972,2.61026 z m -25.06332,-19.37184 c -2.12048,-7.29418 -1.70387,-14.00897 1.3264,-21.37893 1.58802,-3.86224 1.50949,-4.00976 -6.20342,-11.65412 -7.41133,-7.34546 -8.04378,-7.69884 -12.33706,-6.89342 -3.94895,0.74083 -5.00743,0.36676 -8.31143,-2.93723 -5.90485,-5.90485 -4.8193,-13.33723 2.50089,-17.12264 2.04211,-1.05602 3.71294,-2.66217 3.71294,-3.56921 0,-2.47509 4.0596,-5.66105 8.292,-6.50753 2.9466,-0.58932 4.63702,-0.007 7.86752,2.71158 3.71992,3.13011 4.05741,3.96927 3.51866,8.74903 -0.57494,5.10091 -0.32452,5.5558 7.12063,12.93478 l 7.71654,7.64794 7.80884,-2.00053 c 8.03348,-2.05808 16.66436,-1.28913 22.88239,2.03866 4.25833,2.27899 12.35803,10.13853 14.28144,13.858 2.00068,3.86888 5.1604,4.65211 6.34231,1.57211 2.61951,-6.82634 -17.87112,-24.23962 -28.56906,-24.27846 -1.85005,-0.007 -3.69729,-0.55193 -4.10498,-1.21158 -1.40043,-2.26595 8.37036,-11.28017 16.63944,-15.35102 7.67726,-3.77951 9.18582,-4.07461 20.82927,-4.07461 11.63574,0 13.15528,0.29671 20.80451,4.06242 9.78308,4.81619 17.46402,12.6616 22.11998,22.59365 2.91092,6.20955 3.32551,8.66329 3.32551,19.68231 0,11.55384 -0.31149,13.19749 -3.79018,20 l -3.79017,7.41162 -53.98355,0.32575 -53.98356,0.32575 -2.01586,-6.93432 z m 8.89288,-33.22092 c 0.48085,-0.77803 -3.15476,-5.41253 -8.34439,-10.63703 -8.24858,-8.30401 -9.03745,-9.51299 -7.65334,-11.7293 2.16322,-3.46387 1.92189,-5.96428 -0.71168,-7.37373 -3.13973,-1.68033 -5.59081,0.21132 -5.74229,4.43169 -0.11076,3.08572 -0.71297,3.6457 -4.50286,4.18711 -3.30248,0.47178 -4.4702,1.29374 -4.76336,3.35292 -0.5392,3.78754 3.58938,5.92754 6.77818,3.5134 1.2981,-0.98275 2.71632,-1.8047 3.1516,-1.82657 0.43528,-0.0219 4.65403,3.85549 9.375,8.61635 8.61601,8.68879 10.83292,10.02203 12.41314,7.46516 z"
       id="path4203"
       inkscape:connector-curvature="0" />
  </g>
</svg>
