<?xml version="1.0" encoding="UTF-8" standalone="no"?>
<!-- Generator: Adobe Illustrator 16.0.0, SVG Export Plug-In . SVG Version: 6.00 Build 0)  -->

<svg
   xmlns:dc="http://purl.org/dc/elements/1.1/"
   xmlns:cc="http://creativecommons.org/ns#"
   xmlns:rdf="http://www.w3.org/1999/02/22-rdf-syntax-ns#"
   xmlns:svg="http://www.w3.org/2000/svg"
   xmlns="http://www.w3.org/2000/svg"
   xmlns:sodipodi="http://sodipodi.sourceforge.net/DTD/sodipodi-0.dtd"
   xmlns:inkscape="http://www.inkscape.org/namespaces/inkscape"
   version="1.1"
   id="Capa_1"
   x="0px"
   y="0px"
   width="302.459px"
   height="302.46px"
   viewBox="0 0 302.459 302.46"
   style="enable-background:new 0 0 302.459 302.46;"
   xml:space="preserve"
   inkscape:version="0.91 r13725"
   sodipodi:docname="cutlery.svg"><metadata
     id="metadata49"><rdf:RDF><cc:Work
         rdf:about=""><dc:format>image/svg+xml</dc:format><dc:type
           rdf:resource="http://purl.org/dc/dcmitype/StillImage" /></cc:Work></rdf:RDF></metadata><defs
     id="defs47" /><sodipodi:namedview
     pagecolor="#ffffff"
     bordercolor="#666666"
     borderopacity="1"
     objecttolerance="10"
     gridtolerance="10"
     guidetolerance="10"
     inkscape:pageopacity="0"
     inkscape:pageshadow="2"
     inkscape:window-width="1280"
     inkscape:window-height="709"
     id="namedview45"
     showgrid="false"
     inkscape:zoom="0.78026849"
     inkscape:cx="43.129922"
     inkscape:cy="240.9518"
     inkscape:window-x="0"
     inkscape:window-y="0"
     inkscape:window-maximized="1"
     inkscape:current-layer="Capa_1" /><g
     id="g3"
     transform="translate(-6,0)"><g
       id="g5"><path
         d="m 163.816,222.91 c 38.745,0 70.269,-31.514 70.269,-70.259 0,-38.745 -31.523,-70.274 -70.269,-70.274 -38.743,0 -70.264,31.524 -70.264,70.274 0,38.745 31.516,70.259 70.264,70.259 z"
         id="path7"
         inkscape:connector-curvature="0" /><path
         d="m 163.816,241.771 c 49.226,0 89.118,-39.903 89.118,-89.119 0,-49.228 -39.893,-89.123 -89.118,-89.123 -49.221,0 -89.119,39.895 -89.119,89.123 0,49.215 39.898,89.119 89.119,89.119 z m 0,-164.588 c 41.608,0 75.469,33.862 75.469,75.469 0,41.609 -33.86,75.464 -75.469,75.464 -41.609,0 -75.464,-33.854 -75.464,-75.464 0,-41.607 33.855,-75.469 75.464,-75.469 z"
         id="path9"
         inkscape:connector-curvature="0" /><path
         d="M 302.459,250.062 298.68733,50.036 c 0,-4.307 -2.53355,-7.8 -5.65751,-7.8 -0.83557,0 -1.62036,0.264 -2.33118,0.718 l 0,-0.074 c 0,0 -0.14724,0.13 -0.35758,0.328 -0.54109,0.412 -1.02706,0.919 -1.44702,1.539 -4.14013,4.685 -17.34025,23.78 -18.44564,49.592 -1.67622,39.372 12.19482,55.317 16.92029,69.921 l -3.77094,85.798 c 0,4.306 6.30521,7.8 9.42845,7.8 3.12758,0.004 9.4328,-3.489 9.4328,-7.796 z"
         id="path11"
         inkscape:connector-curvature="0" /><path
         d="m 20.705056,128.206 8.607224,6.724 c 0.980869,0.769 2.062128,1.33 3.191982,1.747 l -3.324981,117.007 c 0,3.615 5.560391,6.54 8.312452,6.54 2.75334,0 8.312452,-2.925 8.312452,-6.54 L 42.479204,136.078 c 1.170777,-0.576 2.298713,-1.279 3.285977,-2.224 l 6.376929,-6.073 c 4.601262,-4.39 8.068833,-14.045 8.068833,-22.475 l 0,-44.426 c 0,-4.307 -2.234131,-15.8 -4.987471,-15.8 -2.752061,0 -4.987471,11.493 -4.987471,15.8 l 0,39.225 -2.769965,0 0,-39.225 c 0,-4.307 -2.234131,-15.8 -4.987471,-15.8 -2.752061,0 -4.987471,11.493 -4.987471,15.8 l 0,39.225 -2.779557,0 0,-39.225 c 0,-4.307 -2.234131,-15.8 -4.987471,-15.8 -2.752061,0 -4.987471,11.493 -4.987471,15.8 l 0,39.225 -2.761653,0 0,-39.225609 c 0,-4.306 -2.234131,-15.876605 -4.987471,-15.876605 -2.752061,0 -4.812041,11.570632 -4.82727,15.876605 L 12,106.177 c -0.03068,8.67495 3.743801,18.15 8.705056,22.029 z"
         id="path13"
         inkscape:connector-curvature="0"
         sodipodi:nodetypes="ccccsccccssssccsssccsssccssssc" /></g></g><g
     id="g15" /><g
     id="g17" /><g
     id="g19" /><g
     id="g21" /><g
     id="g23" /><g
     id="g25" /><g
     id="g27" /><g
     id="g29" /><g
     id="g31" /><g
     id="g33" /><g
     id="g35" /><g
     id="g37" /><g
     id="g39" /><g
     id="g41" /><g
     id="g43" /></svg>