<?xml version="1.0" encoding="UTF-8" standalone="no"?>
<!-- Created with Inkscape (http://www.inkscape.org/) -->

<svg
   xmlns:dc="http://purl.org/dc/elements/1.1/"
   xmlns:cc="http://creativecommons.org/ns#"
   xmlns:rdf="http://www.w3.org/1999/02/22-rdf-syntax-ns#"
   xmlns:svg="http://www.w3.org/2000/svg"
   xmlns="http://www.w3.org/2000/svg"
   xmlns:sodipodi="http://sodipodi.sourceforge.net/DTD/sodipodi-0.dtd"
   xmlns:inkscape="http://www.inkscape.org/namespaces/inkscape"
   width="180mm"
   height="180mm"
   viewBox="0 0 637.79527 637.79527"
   id="svg2"
   version="1.1"
   inkscape:version="0.91 r13725"
   sodipodi:docname="nsf.svg">
  <defs
     id="defs4">
    <clipPath
       id="clipPath4167"
       clipPathUnits="userSpaceOnUse">
      <path
         inkscape:connector-curvature="0"
         id="path4169"
         d="m 0,595.28 841.889,0 L 841.889,0 0,0 0,595.28 Z" />
    </clipPath>
    <linearGradient
       id="linearGradient4347"
       spreadMethod="pad"
       gradientTransform="matrix(-235.99001,-155.44252,-155.44252,235.99001,727.01465,485.85742)"
       gradientUnits="userSpaceOnUse"
       y2="0"
       x2="1"
       y1="0"
       x1="0">
      <stop
         id="stop4349"
         offset="0"
         style="stop-opacity:1;stop-color:#f9b33c" />
      <stop
         id="stop4351"
         offset="0.98638785"
         style="stop-opacity:1;stop-color:#aa2c27" />
      <stop
         id="stop4353"
         offset="1"
         style="stop-opacity:1;stop-color:#aa2c27" />
    </linearGradient>
    <clipPath
       id="clipPath4361"
       clipPathUnits="userSpaceOnUse">
      <path
         inkscape:connector-curvature="0"
         id="path4363"
         d="m 0,595.28 841.889,0 L 841.889,0 0,0 0,595.28 Z" />
    </clipPath>
  </defs>
  <sodipodi:namedview
     id="base"
     pagecolor="#ffffff"
     bordercolor="#666666"
     borderopacity="1.0"
     inkscape:pageopacity="0.0"
     inkscape:pageshadow="2"
     inkscape:zoom="0.98994949"
     inkscape:cx="156.96691"
     inkscape:cy="352.28673"
     inkscape:document-units="px"
     inkscape:current-layer="layer1"
     showgrid="false"
     inkscape:window-width="1920"
     inkscape:window-height="1017"
     inkscape:window-x="-4"
     inkscape:window-y="-4"
     inkscape:window-maximized="1"
     fit-margin-top="0"
     fit-margin-left="0"
     fit-margin-right="0"
     fit-margin-bottom="0" />
  <metadata
     id="metadata7">
    <rdf:RDF>
      <cc:Work
         rdf:about="">
        <dc:format>image/svg+xml</dc:format>
        <dc:type
           rdf:resource="http://purl.org/dc/dcmitype/StillImage" />
        <dc:title></dc:title>
      </cc:Work>
    </rdf:RDF>
  </metadata>
  <g
     inkscape:label="Livello 1"
     inkscape:groupmode="layer"
     id="layer1"
     transform="translate(-51.99037,36.98123)">
    <g
       id="g4596"
       transform="translate(7.7002117,-102.50013)">
      <g
         style="fill:#000000"
         transform="matrix(1.25,0,0,-1.25,-288.13963,844.21653)"
         id="g4335">
        <g
           style="fill:#000000"
           id="g4337">
          <g
             style="fill:#000000"
             id="g4343">
            <g
               style="fill:#000000"
               id="g4345">
              <path
                 inkscape:connector-curvature="0"
                 id="path4355"
                 style="fill:#000000;stroke:none"
                 d="m 517.702,533.526 c 4.475,-7.534 9.833,-14.458 15.71,-21.033 l 0,0 c -8.357,8.027 -16.885,15.895 -25.646,23.525 l 0,0 c -4.617,4.026 -11.059,-3.139 -7.227,-7.667 l 0,0 c 7.041,-8.362 14.117,-16.699 21.207,-25.026 l 0,0 c -12.523,11.118 -25.561,21.701 -39.455,31.369 l 0,0 c -4.904,3.408 -11.43,-3.071 -7.299,-7.726 l 0,0 c 20.822,-23.434 41.766,-46.754 62.736,-70.05 l 0,0 c -20.822,19.234 -42.98,36.937 -67.896,51.573 l 0,0 c -4.699,2.773 -11.688,-3.131 -7.105,-7.527 l 0,0 c 41.75,-40.025 81.57,-81.92 120.068,-125.016 l 0,0 c -5.711,5.81 -11.4,11.649 -16.998,17.581 l 0,0 c -33.602,35.632 -68.767,70.61 -111.689,94.939 l 0,0 c -5.098,2.893 -10.13,-2.385 -6.912,-7.321 l 0,0 c 3.216,-4.934 6.538,-9.787 9.927,-14.58 l 0,0 c -4.568,3.246 -9.228,6.372 -14.045,9.322 l 0,0 c -4.882,2.997 -10.371,-2.548 -6.883,-7.295 l 0,0 c 3.029,-4.117 6.174,-8.172 9.335,-12.216 l 0,0 c -3.231,-0.313 -6.19,-3.322 -4.118,-6.735 l 0,0 c 0.222,-0.359 0.465,-0.706 0.686,-1.069 l 0,0 -0.014,-0.001 c 0.014,-0.015 0.021,-0.027 0.035,-0.044 l 0,0 c 7.049,-11.418 15.12,-22.185 23.746,-32.584 l 0,0 c -5.727,5.538 -11.515,10.998 -17.511,16.263 l 0,0 c -4.19,3.684 -9.915,-2.811 -6.551,-6.934 l 0,0 c 9.566,-11.735 19.002,-23.583 28.394,-35.474 l 0,0 c -8.678,7.41 -17.916,14.11 -27.998,19.642 l 0,0 c -3.832,2.106 -9.785,-1.151 -7.269,-5.952 l 0,0 c 4.009,-7.652 8.477,-14.948 13.13,-22.084 l 0,0 c 30.985,-75.15 99.211,-130.085 156.16,-185.234 l 0,0 c 3.707,-3.59 11.619,-0.012 8.411,5.253 l 0,0 c -0.222,0.364 -0.473,0.707 -0.693,1.073 l 0,0 0.013,0.009 c -0.013,0.021 -0.043,0.045 -0.064,0.066 l 0,0 C 568.57,273.02 497.176,320.827 453.57,390.646 l 0,0 c 29.377,-21.469 51.793,-52.192 74.938,-79.8 l 0,0 c 27.627,-32.958 56.582,-66.254 88.59,-95.028 l 0,0 c 3.974,-3.569 10.199,3.034 6.421,6.801 l 0,0 c -42.396,42.22 -79.68,88.841 -116.541,135.828 l 0,0 c 39.385,-44.685 76.875,-91.184 125.315,-126.684 l 0,0 c 5.098,-3.73 10.392,3.851 5.687,7.821 l 0,0 c -33.079,27.928 -60.082,61.966 -87.379,95.394 l 0,0 c 27.362,-27.011 55.274,-53.457 83.715,-79.349 l 0,0 c 0.199,-1.047 0.809,-2.057 1.981,-2.862 l 0,0 c 4.831,-3.318 5.035,-3.513 10.4,-5.443 l 0,0 c 4.953,-1.778 8.148,3.726 5.566,7.699 l 0,0 c -25.229,38.859 -61.777,68.065 -95.672,98.985 l 0,0 c -31.515,28.753 -62.835,59.785 -90.489,92.972 l 0,0 c 6.818,-5.568 13.4,-11.414 19.812,-17.468 l 0,0 C 506.078,405.568 528,383.101 550.623,361.275 l 0,0 c 7.928,-8.248 16.3,-16.038 24.888,-23.605 l 0,0 c 25.69,-24.024 51.715,-47.671 76.571,-72.151 l 0,0 c 4.549,-4.489 12.002,1.191 7.838,6.412 l 0,0 c -31.472,39.48 -75.159,67.37 -109.504,104.301 l 0,0 c -18.652,20.043 -36.818,40.75 -56.586,59.63 l 0,0 c -8.481,10.056 -16.633,20.38 -24.406,31.028 l 0,0 c 34.888,-23.906 64.595,-54.427 93.632,-85.201 l 0,0 c 34.881,-36.978 72.948,-70.963 107.372,-108.256 l 0,0 c 4.41,-4.78 12.05,1.326 7.857,6.435 l 0,0 c -50.867,62.02 -103.652,122.614 -159.64,180.095 l 0,0 C 576.554,409.832 622.422,346.017 681.528,296.782 l 0,0 c 4.582,-3.801 11.015,3.131 7.097,7.521 l 0,0 C 636.117,363.15 583.293,421.735 530.721,480.54 l 0,0 C 587.092,426.549 633.424,361.922 694.818,312.945 l 0,0 c 4.65,-3.715 11.504,3.373 7.217,7.649 l 0,0 c -23.295,23.219 -45.951,47.048 -68.213,71.254 l 0,0 c 22.223,-23.2 45.142,-45.688 70.049,-66.169 l 0,0 c 4.807,-3.951 10.914,3.049 7.262,7.69 l 0,0 c -29.555,37.567 -60.24,74.191 -91.676,110.193 l 0,0 c -2.338,2.67 -4.654,5.36 -6.985,8.044 l 0,0 c 37.292,-38.845 72.264,-80.286 113.966,-114.583 l 0,0 c 4.837,-3.976 11.171,3.127 7.361,7.798 l 0,0 c -24.295,29.813 -47.06,60.817 -70.498,91.307 l 0,0 c 15.754,-13.991 30.207,-29.393 44.644,-44.849 l 0,0 c 1.736,-1.871 3.475,-3.735 5.233,-5.589 l 0,0 c 10.219,-10.922 20.514,-21.784 31.353,-32.085 l 0,0 c 4.979,-4.735 13.434,1.855 8.436,6.9 l 0,0 c -10.275,10.35 -20.711,20.814 -30.926,31.561 l 0,0 c -2.666,2.84 -5.324,5.683 -7.985,8.526 l 0,0 c -16.603,18.007 -32.265,36.914 -45.095,57.521 l 0,0 c 29.971,-18.872 51.186,-48.96 76.668,-73.441 l 0,0 c 4.135,-3.977 12.631,-0.154 9.299,5.797 l 0,0 c -15.088,26.861 -36.518,49.103 -54.774,73.62 l 0,0 c 20.622,-17.19 41.172,-34.438 61.006,-52.534 l 0,0 c 4.934,-4.5 10.709,3.135 7.484,7.919 l 0,0 c -4.21,6.226 -8.748,12.143 -13.445,17.918 l 0,0 c 2.053,-1.464 4.078,-2.956 6.187,-4.352 l 0,0 c 5.136,-3.412 11.297,2.908 7.409,7.856 l 0,0 c -7.756,9.885 -16.352,18.981 -25.125,27.909 l 0,0 c 3.48,-2.695 7.049,-5.311 10.793,-7.681 l 0,0 c 4.388,-2.769 10.435,1.456 8.041,6.582 l 0,0 c -0.936,1.983 -1.973,3.866 -3.059,5.712 l 0,0 c 0.801,1.632 0.836,3.63 -0.578,5.486 l 0,0 c -9.658,12.661 -22.688,21.792 -35.018,31.663 l 0,0 c -4.474,3.581 -9.299,-1.551 -8.04,-5.963 l 0,0 c -4.582,3.224 -9.329,6.23 -14.418,8.799 l 0,0 c -5.083,2.562 -9.227,-4.503 -6.133,-8.464 l 0,0 c 3.337,-4.248 6.855,-8.319 10.443,-12.328 l 0,0 c -3.91,3.195 -7.864,6.343 -11.93,9.35 l 0,0 c -4.902,3.624 -11.844,-3.347 -7.447,-7.885 l 0,0 c 8.219,-8.486 16.611,-16.775 24.938,-25.116 l 0,0 c -10.608,8.854 -21.228,17.698 -31.801,26.61 l 0,0 c -4.156,3.509 -10.678,-1.934 -8.162,-6.682 l 0,0 c 7.42,-14.033 16.64,-26.754 26.353,-39.109 l 0,0 c -12.146,10.866 -25.375,20.396 -40.877,27.151 l 0,0 c -4.297,1.876 -9.142,-3.162 -6.929,-7.375 l 0,0 c 2.722,-5.2 5.65,-10.279 8.716,-15.267 l 0,0 c -7.209,5.789 -14.697,11.273 -22.617,16.291 l 0,0 c -5.06,3.205 -11.322,-2.854 -7.326,-7.768 l 0,0 c 18.842,-23.203 36.84,-47.075 54.916,-70.883 l 0,0 c -50.498,51.841 -95.879,108.997 -157.736,148.226 l 0,0 c -0.876,0.555 -1.879,0.804 -2.888,0.804 l 0,0 c -3.751,0 -7.576,-3.448 -5.209,-7.432 m 35.616,-40.757 c 16.053,-14.508 33.262,-28.14 47.182,-43.841 l 0,0 c 19.199,-21.65 38.068,-43.583 56.6,-65.802 l 0,0 c -35.471,35.642 -68.495,73.782 -103.782,109.643 M 481.603,337.696 c 29.636,-33.766 63.416,-64.214 92.07,-98.833 l 0,0 c -32.763,30.762 -66.071,62.65 -92.07,98.833 m 104.38,-23.448 c 6.833,-6.254 13.565,-12.601 20.099,-19.127 l 0,0 c -6.732,6.343 -13.437,12.712 -20.099,19.127" />
            </g>
          </g>
        </g>
      </g>
      <g
         style="fill:#000000"
         transform="matrix(1.25,0,0,-1.25,-288.13963,844.21653)"
         id="g4357">
        <g
           style="fill:#000000"
           clip-path="url(#clipPath4361)"
           id="g4359">
          <g
             style="fill:#000000"
             transform="translate(526.543,272.3965)"
             id="g4365">
            <path
               inkscape:connector-curvature="0"
               id="path4367"
               style="fill:#000000;fill-opacity:1;fill-rule:nonzero;stroke:none"
               d="m 0,0 5.359,6.215 c 0,0 -35.531,26.502 -49.369,39.65 -21.457,20.396 -43.545,33.033 -43.545,33.033 l -1.314,-3.452 c 0,0 19.607,-11.043 34.988,-26.859 15.354,-15.799 30.549,-29.316 30.549,-29.316 L 0,0 Z m -198.787,159.021 c -2.781,1.176 -7.984,-0.33 -12.567,2.674 -13.044,8.576 -28.949,15.412 -28.949,15.412 0,0 15.469,-10.813 26.869,-18.956 4.346,-3.096 5.87,-8.11 7.245,-9.662 4.878,-5.5 12.384,-8.465 15.535,-3.656 3.16,4.805 1.73,10.009 -8.133,14.188 m 2.029,-21.689 c -4.596,-3.258 -13.679,-3.231 -22.773,-0.232 -9.799,3.23 -34.908,13.268 -34.908,13.268 0,0 28.64,-15.229 43.886,-18.98 15.233,-3.74 20.186,-5.668 25.819,-3.609 5.632,2.073 7.722,5.981 7.722,5.981 0,0 -5.232,3.593 -7.701,5.207 -2.484,1.63 -7.484,1.628 -12.045,-1.635 m -24.101,-8.236 c 0,0 11.507,-4.759 26.746,-8.503 15.24,-3.736 20.177,-5.678 25.826,-3.625 5.625,2.087 7.689,6 7.689,6 0,0 -5.203,3.589 -7.662,5.206 -2.48,1.633 -7.482,1.618 -12.064,-1.66 -4.59,-3.231 -13.967,-2.84 -23.428,-0.728 -9.26,2.05 -17.107,3.31 -17.107,3.31 m 17.455,-11.454 c 0,0 11.521,-4.765 26.754,-8.519 15.238,-3.742 20.177,-5.672 25.824,-3.599 5.625,2.068 7.691,5.979 7.691,5.979 0,0 -5.176,3.588 -7.67,5.211 -2.484,1.614 -7.484,1.617 -12.064,-1.642 -4.568,-3.254 -13.94,-2.863 -23.436,-0.754 -9.244,2.047 -17.099,3.324 -17.099,3.324 m 16.611,-10.922 c 0,0 11.522,-4.75 26.768,-8.505 15.24,-3.736 20.185,-5.668 25.804,-3.598 5.639,2.065 7.711,5.979 7.711,5.979 0,0 -5.207,3.583 -7.683,5.2 -2.459,1.622 -7.465,1.622 -12.043,-1.617 -4.59,-3.258 -13.961,-2.866 -23.453,-0.783 -9.227,2.076 -17.104,3.324 -17.104,3.324 m 16.453,-10.772 c 0,0 11.512,-4.78 26.748,-8.529 15.225,-3.731 20.207,-5.669 25.824,-3.599 5.641,2.069 7.713,5.981 7.713,5.981 0,0 -5.224,3.583 -7.683,5.196 -2.496,1.646 -7.485,1.635 -12.073,-1.644 -4.576,-3.24 -13.943,-2.843 -23.418,-0.74 -9.261,2.052 -17.111,3.335 -17.111,3.335 m 34.561,-14.794 c -9.264,2.053 -17.092,3.313 -17.092,3.313 0,0 11.51,-4.764 26.736,-8.503 15.25,-3.752 20.197,-5.668 25.815,-3.618 5.64,2.068 7.713,5.975 7.713,5.975 0,0 -5.204,3.597 -7.684,5.206 -2.467,1.635 -7.469,1.635 -12.051,-1.625 -4.582,-3.248 -13.957,-2.853 -23.437,-0.748 m -51.315,86.111 c -9.492,12.514 -37.701,34.432 -37.701,34.432 0,0 21.09,-18.689 28.981,-27.733 6.296,-7.221 10.693,-15.176 9.521,-20.67 -1.166,-5.505 0.814,-10.088 3.285,-11.72 2.483,-1.61 7.844,-4.97 7.844,-4.97 0,0 2.766,3.465 2.416,9.446 -0.328,5.979 -4.846,8.731 -14.346,21.215 m 17.205,-9.75 c -9.478,12.473 -18.423,21.156 -18.423,21.156 0,0 4.263,-6.696 9.832,-14.369 5.703,-7.863 9.793,-16.313 8.638,-21.802 -1.17,-5.492 0.811,-10.093 3.291,-11.721 2.451,-1.612 7.826,-4.993 7.826,-4.993 0,0 2.782,3.48 2.428,9.469 -0.353,5.979 -4.078,9.752 -13.592,22.26 m 17.473,-11.47 c -9.504,12.476 -18.445,21.159 -18.445,21.159 0,0 4.281,-6.676 9.863,-14.369 5.691,-7.862 9.783,-16.309 8.631,-21.802 -1.19,-5.504 0.799,-10.096 3.263,-11.714 2.481,-1.622 7.842,-4.978 7.842,-4.978 0,0 2.758,3.443 2.416,9.44 -0.34,5.989 -4.082,9.777 -13.57,22.264 m 16.615,-10.911 c -9.492,12.498 -18.449,21.175 -18.449,21.175 0,0 4.281,-6.706 9.854,-14.369 5.707,-7.86 9.796,-16.329 8.623,-21.804 -1.164,-5.509 0.816,-10.102 3.289,-11.735 2.486,-1.63 7.839,-4.957 7.839,-4.957 0,0 2.768,3.438 2.416,9.439 -0.335,5.995 -4.074,9.76 -13.572,22.251 m 16.44,-10.797 c -9.493,12.491 -18.442,21.154 -18.442,21.154 0,0 4.282,-6.692 9.842,-14.366 5.705,-7.867 9.815,-16.316 8.629,-21.795 -1.166,-5.505 0.82,-10.081 3.299,-11.709 2.469,-1.628 7.844,-4.986 7.844,-4.986 0,0 2.751,3.467 2.408,9.446 -0.34,5.982 -4.074,9.758 -13.58,22.256 m 31.05,-33.721 c -0.357,5.988 -4.082,9.763 -13.587,22.263 -9.504,12.478 -18.424,21.168 -18.424,21.168 0,0 4.285,-6.697 9.834,-14.368 5.709,-7.866 9.783,-16.314 8.617,-21.819 -1.164,-5.5 0.822,-10.088 3.295,-11.721 2.472,-1.601 7.834,-4.96 7.834,-4.96 0,0 2.773,3.447 2.431,9.437" />
          </g>
          <g
             style="fill:#000000"
             transform="translate(518.0156,287.7246)"
             id="g4369">
            <path
               inkscape:connector-curvature="0"
               id="path4371"
               style="fill:#000000;fill-opacity:1;fill-rule:nonzero;stroke:none"
               d="m 0,0 c -34.504,17.315 -65.818,17.643 -65.818,17.643 l 0.486,-2.624 c 0,0 35.268,-4.557 60.242,-18.8 C 19.984,-18.084 10.057,-5.052 0,0 m -151.869,35.278 c -1.916,-0.022 -4.561,-2.225 -7.992,-1.644 -9.778,1.667 -20.778,1.589 -20.778,1.589 0,0 11.766,-2.347 20.471,-4.184 3.316,-0.693 5.482,-3.224 6.676,-3.776 4.246,-1.956 9.363,-1.772 9.978,1.832 0.616,3.606 -1.545,6.267 -8.355,6.183 m 6.711,-12.105 c -1.844,-3.067 -7.133,-5.366 -13.194,-5.94 -6.527,-0.618 -23.703,-1.175 -23.703,-1.175 0,0 20.551,-1.562 30.385,0.141 9.815,1.708 13.195,1.845 15.947,4.481 2.752,2.641 2.967,5.449 2.967,5.449 0,0 -3.953,0.756 -5.812,1.068 -1.858,0.315 -4.76,-0.961 -6.59,-4.024 M -157.08,12.237 c 0,0 7.906,0.166 17.734,1.869 9.821,1.708 13.188,1.839 15.946,4.471 2.746,2.653 2.953,5.454 2.953,5.454 0,0 -3.944,0.764 -5.791,1.077 -1.858,0.32 -4.768,-0.963 -6.596,-4.038 -1.846,-3.052 -7.406,-5.216 -13.453,-6.398 -5.908,-1.168 -10.793,-2.435 -10.793,-2.435 m 13.072,-2.217 c 0,0 7.92,0.164 17.748,1.861 9.822,1.707 13.188,1.845 15.947,4.491 2.745,2.636 2.959,5.438 2.959,5.438 0,0 -3.933,0.772 -5.796,1.081 -1.862,0.303 -4.768,-0.969 -6.604,-4.035 -1.83,-3.058 -7.385,-5.216 -13.445,-6.412 -5.908,-1.167 -10.809,-2.424 -10.809,-2.424 m 12.455,-2.124 c 0,0 7.924,0.173 17.752,1.877 9.822,1.708 13.188,1.846 15.934,4.481 2.752,2.638 2.959,5.447 2.959,5.447 0,0 -3.94,0.756 -5.791,1.065 -1.85,0.32 -4.764,-0.958 -6.604,-4.01 -1.843,-3.066 -7.39,-5.225 -13.445,-6.431 -5.904,-1.145 -10.805,-2.429 -10.805,-2.429 m 12.324,-2.073 c 0,0 7.916,0.149 17.737,1.856 9.822,1.704 13.209,1.849 15.953,4.487 2.752,2.641 2.967,5.448 2.967,5.448 0,0 -3.953,0.75 -5.803,1.065 -1.863,0.321 -4.768,-0.958 -6.605,-4.035 -1.831,-3.052 -7.391,-5.21 -13.43,-6.401 -5.926,-1.167 -10.819,-2.42 -10.819,-2.42 m 23.883,0.199 c -5.91,-1.167 -10.793,-2.428 -10.793,-2.428 0,0 7.916,0.16 17.731,1.865 9.84,1.707 13.199,1.85 15.951,4.477 2.752,2.644 2.965,5.442 2.965,5.442 0,0 -3.951,0.767 -5.803,1.071 -1.859,0.322 -4.762,-0.951 -6.598,-4.017 -1.837,-3.06 -7.398,-5.218 -13.453,-6.41 m -51.82,37.04 c -8.707,4.862 -30.721,10.427 -30.721,10.427 0,0 17.047,-5.499 23.946,-8.755 5.502,-2.594 10.087,-6.106 10.806,-9.603 0.729,-3.499 3.053,-5.663 4.897,-5.983 1.857,-0.307 5.832,-0.891 5.832,-0.891 0,0 0.728,2.722 -1,6.113 -1.717,3.395 -5.039,3.846 -13.76,8.692 m 12.502,-1.292 c -8.699,4.846 -16.111,7.618 -16.111,7.618 0,0 4.187,-2.809 9.38,-5.858 5.323,-3.122 9.862,-6.996 10.59,-10.488 0.715,-3.493 3.045,-5.666 4.897,-5.982 1.844,-0.31 5.832,-0.912 5.832,-0.912 0,0 0.728,2.736 -1,6.133 -1.727,3.39 -4.862,4.634 -13.588,9.489 m 13.094,-2.221 c -8.713,4.841 -16.133,7.614 -16.133,7.614 0,0 4.197,-2.793 9.41,-5.85 5.314,-3.126 9.854,-6.999 10.582,-10.49 0.709,-3.504 3.039,-5.674 4.879,-5.983 1.861,-0.314 5.836,-0.901 5.836,-0.901 0,0 0.728,2.706 -1,6.112 -1.723,3.397 -4.867,4.648 -13.574,9.498 m 12.451,-2.112 c -8.705,4.851 -16.133,7.617 -16.133,7.617 0,0 4.197,-2.809 9.4,-5.845 5.325,-3.125 9.864,-7.01 10.579,-10.5 0.722,-3.499 3.044,-5.668 4.9,-5.988 1.869,-0.315 5.828,-0.89 5.828,-0.89 0,0 0.731,2.707 -1,6.111 -1.723,3.403 -4.861,4.643 -13.574,9.495 m 12.324,-2.099 c -8.715,4.852 -16.127,7.613 -16.127,7.613 0,0 4.197,-2.804 9.393,-5.848 5.326,-3.128 9.871,-7 10.572,-10.492 0.721,-3.499 3.051,-5.657 4.91,-5.972 1.856,-0.318 5.832,-0.9 5.832,-0.9 0,0 0.723,2.716 -1,6.111 -1.723,3.395 -4.861,4.642 -13.58,9.488 m 26.668,-11.713 c -1.738,3.401 -4.869,4.646 -13.582,9.5 -8.719,4.839 -16.125,7.621 -16.125,7.621 0,0 4.203,-2.802 9.393,-5.854 5.324,-3.124 9.853,-6.999 10.572,-10.502 0.728,-3.497 3.058,-5.661 4.91,-5.981 1.848,-0.304 5.824,-0.888 5.824,-0.888 0,0 0.731,2.707 -0.992,6.104" />
          </g>
          <g
             style="fill:#000000"
             transform="translate(534.4473,266.9248)"
             id="g4373">
            <path
               inkscape:connector-curvature="0"
               id="path4375"
               style="fill:#000000;fill-opacity:1;fill-rule:nonzero;stroke:none"
               d="m 0,0 c 0,0 -17.396,13.668 -32.998,14.115 -15.6,0.442 -18.322,12.155 -38.365,13.116 -24.91,1.176 -52.401,-12.139 -52.401,-12.139 0,0 47.569,6.802 63.159,0.376 C -45.031,9.036 -37.539,8.601 -31.85,9.077 -23.201,9.792 4.51,-8.435 4.51,-8.435 L 0,0 Z" />
          </g>
          <g
             style="fill:#000000"
             transform="translate(521.3594,286.8486)"
             id="g4377">
            <path
               inkscape:connector-curvature="0"
               id="path4379"
               style="fill:#000000;fill-opacity:1;fill-rule:nonzero;stroke:none"
               d="m 0,0 c 0,0 -10.764,10.756 -21.668,15.853 -10.91,5.094 -10.654,10.793 -24.549,17.613 -17.269,8.461 -40.814,7.463 -40.814,7.463 0,0 35.761,-9.759 44.824,-19.089 9.064,-9.322 14.225,-11.928 18.398,-13.33 6.348,-2.141 15.204,-5.625 15.204,-5.625 L 0,0 Z" />
          </g>
          <g
             style="fill:#000000"
             transform="translate(496.4082,311.3481)"
             id="g4381">
            <path
               inkscape:connector-curvature="0"
               id="path4383"
               style="fill:#000000;fill-opacity:1;fill-rule:nonzero;stroke:none"
               d="m 0,0 c 0,0 -13.582,15.663 -23.674,26.808 -10.094,11.136 -3.76,20.834 -16.455,35.41 -15.789,18.089 -43.373,28.332 -43.373,28.332 0,0 36.434,-28.529 42.361,-43.65 5.922,-15.114 10.612,-20.612 14.737,-24.243 6.261,-5.538 14.769,-13.823 14.769,-13.823" />
          </g>
        </g>
      </g>
    </g>
  </g>
</svg>
